<svg xmlns="http://www.w3.org/2000/svg" xmlns:xlink="http://www.w3.org/1999/xlink" width="960" height="960">
     <g transform="translate(480,480)">
          <path class="area" d="M2.3512441993389643e-14,-384.0L6.920136701091393,-396.4543660851341L14.264169739856836,-408.47237754103946L21.99780935161698,-419.7432070687884L30.0666320392421,-429.97287025656226L38.398078552398275,-438.89204617945103L46.90415414913326,-446.2632169918903L55.48473827337977,-451.8869299639057L64.03138953355102,-455.607010369218L72.43151435044658,-457.31458344033905L80.57275443745571,-456.95079739766453L88.34743982572004,-454.5081763561031L95.6569507433135,-450.0305706478898L102.4158334315191,-443.6117116533294L108.55552189839503,-435.3924174601158L114.02752947074552,-425.55653344637983L118.80599045213769,-414.3257271176101L122.88945272047322,-401.95328821484276L126.30184606498192,-388.71711234903785L129.09257771767946,-374.91206843489607L131.33573503705682,-360.8419663817888L133.1284047474207,-346.81135140763587L134.58814758607645,-333.11735471594983L135.84969571694973,-320.041827051213L137.06096691175506,-307.8439719506708L138.378513410019,-296.7536796576105L139.96254375932588,-286.9657411469562L141.97167212498806,-278.6350951966343L144.55756098955882,-271.8732307189797L147.8596294285404,-266.74583256582275L152.0,-263.2717227504694L157.07885264136283,-261.4231115621805L163.17034391680485,-261.12713548556616L170.31923476368675,-262.2686222763119L178.53834996943053,-264.69398904734544L187.8069685449906,-268.21614777980733L198.07021665530758,-272.6202651881737L209.23950464146134,-277.670201112871L221.19401783244632,-283.1154322158063L233.78323826611438,-288.69825618038107L246.83044211963113,-294.16106615768757L260.13708659115025,-299.25348596097535L273.4879711475056,-303.7391634116649L286.65703236850544,-307.4020320205178L299.4136098992405,-310.0518694121277L311.5290039756343,-311.5290039756342L322.7831331863821,-311.708048415146L332.97109499232107,-310.5005693281158L341.9094312890234,-307.85663471621115L349.44190703926307,-303.7652154264421L355.4446216072058,-298.2534508945542L359.83028960520875,-291.3848231822334L362.55155035524746,-283.25631516028113L363.6031918502119,-273.99465784903043L363.02320561497777,-263.75179753211586L360.8926222341384,-252.69973457261278L357.3341125606724,-241.02490228050385L352.5093757117143,-228.9222652605014L346.61537082484006,-216.589322129129L339.87948412043625,-204.22019722337325L332.55375505322445,-192.00000000000003L324.90831426152835,-180.09961948742597L317.2242107509591,-168.67110480765365L309.7858255133354,-157.8437619916849L302.8730829578459,-147.72107275795304L296.7536796576106,-138.37851341001902L291.6755517054066,-129.8623224224401L287.8597973278826,-122.18923456488706L285.49426041849426,-115.3471685344836L284.7279635941957,-109.29682499268495L285.6665567189162,-103.97412357100332L288.3689191952923,-99.29338169343534L292.84502248234105,-95.15111574828087L299.05512415577124,-91.4303269018482L306.9103273958518,-88.00512022248553L316.2745011436246,-84.74549716799038L326.96751742858703,-81.52215811506252L338.7697246660821,-78.2111535417634L351.4275401510752,-74.69822961066622L364.6600125789763,-70.88272597526574L378.1661771566878,-66.68090022410125L391.6330025635308,-62.028573923642504L404.74371137500316,-56.883019037186834L417.18624410212436,-51.22402979681128L428.66163207577125,-45.05415302706067L438.89204617945103,-38.398078552398246L447.6282968707887,-31.301219735877538L454.65657580283795,-23.827541474258457L459.80425024430184,-16.056718234107173L462.9445478102054,-8.080727140191373L464.0,0.0L462.94454781020545,8.080727140191476L459.8042502443019,16.056718234107073L454.656575802838,23.827541474258357L447.62829687078863,31.301219735877535L438.892046179451,38.39807855239834L428.6616320757713,45.05415302706068L417.1862441021245,51.224029796811294L404.74371137500356,56.88301903718679L391.63300256353074,62.0285739236426L378.1661771566879,66.68090022410126L364.66001257897625,70.88272597526573L351.42754015107545,74.69822961066617L338.76972466608214,78.21115354176341L326.9675174285871,81.52215811506254L316.27450114362466,84.74549716799048L306.91032739585177,88.00512022248552L299.05512415577135,91.43032690184823L292.84502248234105,95.15111574828087L288.36891919529234,99.29338169343528L285.6665567189162,103.97412357100332L284.72796359419567,109.29682499268493L285.49426041849426,115.34716853448366L287.8597973278826,122.18923456488699L291.67555170540646,129.86232242244006L296.7536796576106,138.37851341001902L302.8730829578458,147.72107275795307L309.78582551333545,157.84376199168491L317.224210750959,168.67110480765348L324.9083142615283,180.09961948742594L332.5537550532244,191.99999999999991L339.8794841204362,204.22019722337322L346.6153708248401,216.58932212912902L352.5093757117141,228.92226526050132L357.3341125606724,241.02490228050382L360.8926222341383,252.69973457261258L363.0232056149778,263.7517975321159L363.60319185021183,273.99465784903055L362.5515503552474,283.2563151602812L359.83028960520875,291.3848231822333L355.4446216072058,298.25345089455425L349.44190703926296,303.7652154264422L341.90943128902336,307.85663471621115L332.97109499232107,310.5005693281158L322.7831331863822,311.7080484151459L311.52900397563434,311.5290039756343L299.41360989924056,310.05186941212787L286.65703236850544,307.4020320205179L273.4879711475056,303.73916341166483L260.13708659115036,299.25348596097547L246.8304421196312,294.16106615768757L233.78323826611467,288.69825618038124L221.1940178324463,283.11543221580627L209.23950464146137,277.67020111287115L198.0702166553076,272.62026518817373L187.80696854499064,268.2161477798073L178.53834996943056,264.69398904734555L170.3192347636866,262.2686222763119L163.17034391680485,261.12713548556616L157.07885264136283,261.4231115621805L152.0,263.2717227504694L147.85962942854036,266.7458325658227L144.55756098955888,271.8732307189797L141.97167212498806,278.6350951966343L139.96254375932583,286.96574114695625L138.37851341001894,296.7536796576104L137.0609669117551,307.8439719506707L135.84969571694973,320.04182705121264L134.58814758607645,333.11735471594983L133.12840474742055,346.81135140763575L131.33573503705682,360.8419663817887L129.0925777176795,374.912068434896L126.30184606498187,388.71711234903773L122.88945272047326,401.9532882148426L118.8059904521378,414.3257271176098L114.02752947074556,425.55653344637955L108.55552189839504,435.39241746011584L102.41583343151892,443.6117116533294L95.6569507433134,450.0305706478899L88.34743982572004,454.5081763561031L80.57275443745563,456.9507973976646L72.43151435044658,457.3145834403391L64.03138953355112,455.60701036921796L55.484738273379776,451.88692996390574L46.90415414913337,446.2632169918904L38.398078552398474,438.8920461794511L30.06663203924212,429.97287025656254L21.997809351616887,419.7432070687884L14.264169739856653,408.4723775410394L6.9201367010913035,396.454366085134L2.351244199338965e-14,384.0000000000001L-6.483311442742283,371.42866379497445L-12.538643727663956,359.0597776096263L-18.196205042963875,347.20427562272454L-23.506339796246063,336.15632034298284L-28.537531877803158,326.18548195500983L-33.37370564042451,317.52959865094385L-38.1109174617736,310.38851449662957L-42.85355200377928,304.9188664243079L-47.710154800450745,301.23006213672676L-52.78904601074689,299.3815569157113L-58.19386862346641,299.3815005317028L-64.01922780472566,301.1867867156729L-70.34657630456931,304.70449810173136L-77.2404939221497,309.7947003198495L-84.74549716799028,316.2745011436246L-92.88349881531755,323.92325536301854L-101.65201650658844,332.48876436476826L-111.02320561497785,341.69429216564004L-120.94376490541701,351.24619762537935L-131.33573503705674,360.8419663817887L-142.09818050337006,370.17841614221504L-153.1097161573441,378.95984559134297L-164.2318109628124,386.90590040026115L-175.31277497045926,393.7589395188465L-186.19231160683805,399.29070078653655L-196.7064969746854,403.30808641080404L-206.69303167498362,405.65791538003225L-215.99659923000536,406.23052059667606L-224.4741589206465,404.96210251723323L-232.0000000000001,401.83578735597945L-238.47038888955888,396.88137537704176L-243.80765101429643,390.173802362569L-247.9635441278542,381.83037390577385L-250.9217998961031,372.00686667492675L-252.69973457261275,360.89262223413857L-253.3488571053118,348.704786491786L-252.9544331393117,335.68187060345L-251.63399521765942,322.0768265541567L-249.53482206016085,308.14984221857253L-246.83044211963104,294.16106615768746L-243.71624767355928,280.3634716501133L-240.40433453609768,266.996062554974L-237.1177081594935,254.27761082300526L-234.08401861326945,242.4010972479564L-231.52900397563425,231.5290039756343L-229.66983347370197,221.78958009736408L-228.708547851202,213.27417119988337L-228.82579467761536,206.03567096739212L-230.1750505718258,200.08811883826763L-232.87751070816932,195.40743334470804L-237.01780879374502,191.93323714404167L-242.64070841471508,189.5716978898243L-249.74887986610906,188.1992799317426L-258.3018460649819,187.6672762285036L-268.2161477798073,187.80696854499072L-279.3667431615993,188.43524758502966L-291.58962047037124,189.36051363103928L-304.685567023295,190.3886728019723L-318.42500281878586,191.32904430754843L-332.5537550532243,192.00000000000006L-346.7996208215276,192.23416886176076L-360.8795405646968,191.88305541191048L-374.50718506333124,190.82094180828713L-387.40074459991445,188.94796797605858L-399.2907007865364,186.19231160683827L-409.9273597641109,182.51141945977432L-419.0879301235916,177.89227211487523L-426.58293988879836,172.35069520893688L-432.2618039556552,165.92976025810586L-436.01737604466143,158.69734650311057L-437.78934686498303,150.74296092966097L-437.5663820323368,142.17393593167876L-435.3869284238399,133.1111423252137L-431.3386550847773,123.6843690449697L-425.5565334463799,114.02752947074546L-418.2196003513784,104.27385770548236L-409.54648508897867,94.551256194325L-399.7898172124875,84.97794893737313L-389.2296643088301,75.65858247392103L-378.1661771566883,66.68090022410131L-366.91164301353535,58.113095227254895L-355.7821654185224,50.00192250014325L-345.0892003584113,42.371625938341865L-335.13118356706275,35.22370676249711L-326.18548195500966,28.5375318778032L-318.50089372875635,22.27175209961081L-312.2909068886747,16.36647292032257L-307.7279049063638,10.746095233413785L-304.93848206990316,5.322721003642251L-304.00000000000006,3.7228033156200275e-14L-304.93848206990305,-5.322721003642174L-307.7279049063636,-10.746095233413703L-312.2909068886748,-16.366472920322494L-318.50089372875635,-22.271752099610733L-326.18548195500966,-28.53753187780312L-335.1311835670628,-35.22370676249703L-345.08920035841066,-42.371625938342014L-355.7821654185225,-50.001922500143486L-366.91164301353484,-58.113095227254725L-378.1661771566878,-66.68090022410111L-389.2296643088297,-75.65858247392049L-399.78981721248704,-84.97794893737257L-409.5464850889787,-94.5512561943249L-418.2196003513784,-104.27385770548227L-425.5565334463799,-114.02752947074575L-431.338655084777,-123.6843690449699L-435.3869284238399,-133.1111423252136L-437.56638203233683,-142.17393593167864L-437.7893468649831,-150.74296092966085L-436.01737604466155,-158.69734650311005L-432.2618039556554,-165.9297602581054L-426.5829398887986,-172.35069520893686L-419.08793012359183,-177.8922721148752L-409.9273597641108,-182.51141945977457L-399.2907007865368,-186.19231160683833L-387.4007445999145,-188.9479679760585L-374.5071850633313,-190.82094180828705L-360.8795405646968,-191.88305541191036L-346.79962082152764,-192.23416886176068L-332.5537550532248,-192.00000000000028L-318.42500281878637,-191.32904430754863L-304.68556702329545,-190.38867280197252L-291.5896204703717,-189.36051363103948L-279.3667431615999,-188.43524758502963L-268.2161477798074,-187.80696854499064L-258.301846064982,-187.6672762285035L-249.7488798661091,-188.19927993174258L-242.64070841471494,-189.5716978898244L-237.01780879374496,-191.9332371440419L-232.87751070816935,-195.40743334470798L-230.17505057182584,-200.08811883826738L-228.82579467761542,-206.03567096739187L-228.70854785120204,-213.27417119988294L-229.66983347370197,-221.7895800973636L-231.52900397563434,-231.52900397563425L-234.08401861326954,-242.4010972479563L-237.1177081594935,-254.27761082300535L-240.4043345360973,-266.99606255497366L-243.7162476735592,-280.3634716501134L-246.83044211963107,-294.1610661576874L-249.53482206016093,-308.1498422185724L-251.63399521765947,-322.07682655415596L-252.95443313931148,-335.68187060344957L-253.34885710531165,-348.7047864917857L-252.6997345726128,-360.8926222341381L-250.92179989610318,-372.00686667492636L-247.963544127854,-381.83037390577374L-243.80765101429682,-390.17380236256867L-238.470388889559,-396.88137537704165L-232.0000000000002,-401.8357873559794L-224.4741589206464,-404.96210251723323L-215.99659923000527,-406.2305205966761L-206.693031674984,-405.6579153800323L-196.70649697468534,-403.3080864108041L-186.19231160683847,-399.2907007865367L-175.31277497045951,-393.75893951884683L-164.23181096281314,-386.9059004002616L-153.1097161573442,-378.9598455913429L-142.09818050337034,-370.17841614221555L-131.33573503705668,-360.8419663817887L-120.94376490541735,-351.2461976253795L-111.02320561497785,-341.6942921656403L-101.65201650658837,-332.4887643647683L-92.8834988153179,-323.9232553630189L-84.7454971679904,-316.2745011436247L-77.24049392214988,-309.79470031985L-70.34657630456937,-304.7044981017313L-64.0192278047259,-301.186786715673L-58.19386862346635,-299.3815005317028L-52.78904601074709,-299.38155691571126L-47.7101548004508,-301.2300621367267L-42.85355200377934,-304.9188664243078L-38.11091746177368,-310.38851449662957L-33.37370564042457,-317.5295986509437L-28.537531877803186,-326.18548195500927L-23.506339796246,-336.15632034298284L-18.19620504296409,-347.204275622724L-12.538643727663887,-359.0597776096263L-6.4833114427427,-371.4286637949742L-7.05373259801689e-14,-383.9999999999999L-4.408582873760558e-14,-240.0L-4.188577544948039,-239.9634468375339L-8.375879208600182,-239.853798484583L-12.560629498306634,-239.67108834109771L-16.74155369859014,-239.41537206235782L-20.91737825943798,-239.08672754201893L-25.086831184236807,-238.68525488838563L-29.24864241723553,-238.21107639391727L-33.4015442304158,-237.66433649797685L-37.544271609655446,-237.04520174283303L-41.675562640063276,-236.35386072292994L-45.79415889037071,-235.59052402743936L-49.89880579626235,-234.75542417611334L-53.98825304252766,-233.84881554845643L-58.06125494392027,-232.87097430623916L-62.11657082460495,-231.8221983093764L-66.15296539607994,-230.70280702519648L-70.1692091334569,-229.51314143112847L-74.16407864998742,-228.25356391083685L-78.13635706971759,-226.92445814383603L-82.08483439816045,-225.52622898861802L-86.00830789087217,-224.0593023593284L-89.90558241981896,-222.52412509602897L-93.77547083742571,-220.92116482858566L-97.61679433819202,-219.25090983422425L-101.42838281776798,-217.51386888879594L-105.20907522937866,-215.71057111180005L-108.95771993749126,-213.84156580520826L-112.67317506861377,-211.9074222861425L-116.35430885912103,-209.90872971345493L-120.00000000000011,-207.84609690826522L-123.60913797841307,-205.7201521685069L-127.18062341596921,-203.53154307754224L-130.71336840360647,-201.28093630690176L-134.20629683297935,-198.96901741320994L-137.65834472425112,-196.596490629358L-141.06846055019358,-194.16407864998737L-144.4356055564916,-191.6725224113503L-147.75875407815795,-189.12258086561332L-151.03689385196108,-186.51503074967295L-154.26902632476947,-183.85066634855468L-157.45416695772175,-181.1302992534653L-160.59134552612596,-178.35475811457465L-163.67960641499957,-175.52488838860097L-166.71800891015943,-172.64155208127622L-169.70562748477144,-169.70562748477138L-172.64155208127625,-166.71800891015937L-175.52488838860103,-163.67960641499954L-178.3547581145747,-160.5913455261259L-181.1302992534653,-157.4541669577217L-183.8506663485547,-154.2690263247694L-186.515030749673,-151.03689385196103L-189.12258086561334,-147.7587540781579L-191.67252241135034,-144.43560555649154L-194.1640786499874,-141.06846055019352L-196.59649062935804,-137.65834472425107L-198.96901741320997,-134.2062968329793L-201.28093630690182,-130.7133684036064L-203.53154307754227,-127.18062341596915L-205.72015216850696,-123.609137978413L-207.84609690826525,-120.00000000000003L-209.90872971345496,-116.35430885912096L-211.9074222861425,-112.67317506861372L-213.8415658052083,-108.9577199374912L-215.71057111180005,-105.20907522937858L-217.51386888879605,-101.42838281776773L-219.25090983422427,-97.61679433819195L-220.9211648285857,-93.77547083742566L-222.52412509602897,-89.90558241981888L-224.05930235932843,-86.0083078908721L-225.52622898861804,-82.08483439816037L-226.92445814383606,-78.13635706971753L-228.25356391083687,-74.16407864998735L-229.5131414311285,-70.16920913345683L-230.7028070251965,-66.15296539607986L-231.82219830937643,-62.116570824604885L-232.87097430623916,-58.061254943920204L-233.84881554845646,-53.988253042527596L-234.75542417611334,-49.89880579626228L-235.59052402743933,-45.79415889037084L-236.35386072292994,-41.675562640063205L-237.04520174283306,-37.544271609655375L-237.66433649797685,-33.40154423041572L-238.2110763939173,-29.24864241723525L-238.68525488838563,-25.086831184236733L-239.08672754201893,-20.917378259437907L-239.41537206235782,-16.741553698590067L-239.67108834109771,-12.560629498306561L-239.853798484583,-8.375879208600109L-239.9634468375339,-4.188577544947966L-240.0,2.9390552491737054e-14L-239.9634468375339,4.188577544948025L-239.853798484583,8.375879208600168L-239.67108834109771,12.56062949830662L-239.41537206235782,16.741553698590124L-239.08672754201893,20.917378259437967L-238.68525488838563,25.08683118423679L-238.2110763939173,29.248642417235303L-237.66433649797685,33.40154423041578L-237.04520174283303,37.54427160965543L-236.35386072292994,41.67556264006327L-235.59052402743933,45.7941588903709L-234.75542417611337,49.89880579626213L-233.84881554845643,53.988253042527646L-232.87097430623916,58.061254943920254L-231.8221983093764,62.116570824604935L-230.70280702519648,66.15296539607992L-229.5131414311285,70.16920913345689L-228.25356391083685,74.1640786499874L-226.92445814383603,78.13635706971758L-225.52622898861802,82.08483439816044L-224.0593023593284,86.00830789087216L-222.52412509602897,89.90558241981894L-220.9211648285857,93.7754708374257L-219.25090983422425,97.61679433819201L-217.51386888879603,101.42838281776778L-215.71057111180005,105.20907522937864L-213.84156580520826,108.95771993749125L-211.9074222861425,112.67317506861377L-209.90872971345493,116.35430885912102L-207.84609690826534,119.99999999999989L-205.72015216850693,123.60913797841305L-203.53154307754224,127.18062341596918L-201.2809363069018,130.71336840360647L-198.96901741320994,134.20629683297935L-196.5964906293581,137.65834472425095L-194.16407864998737,141.06846055019358L-191.67252241135017,144.43560555649174L-189.12258086561332,147.75875407815795L-186.51503074967297,151.03689385196105L-183.85066634855468,154.26902632476947L-181.1302992534652,157.45416695772184L-178.35475811457457,160.591345526126L-175.5248883886009,163.67960641499965L-172.64155208127627,166.7180089101593L-169.70562748477138,169.7056274847714L-166.71800891015928,172.64155208127633L-163.6796064149996,175.52488838860094L-160.59134552612596,178.35475811457462L-157.45416695772172,181.1302992534653L-154.26902632476944,183.8506663485547L-151.03689385196103,186.515030749673L-147.75875407815798,189.1225808656133L-144.43560555649154,191.67252241135034L-141.06846055019352,194.1640786499874L-137.65834472425107,196.59649062935802L-134.2062968329792,198.96901741321003L-130.7133684036064,201.28093630690182L-127.18062341596915,203.53154307754227L-123.60913797841303,205.72015216850696L-119.99999999999994,207.84609690826528L-116.35430885912088,209.90872971345502L-112.67317506861382,211.90742228614246L-108.9577199374912,213.8415658052083L-105.20907522937851,215.7105711118001L-101.42838281776784,217.51386888879603L-97.61679433819207,219.25090983422422L-93.77547083742576,220.92116482858566L-89.9055824198189,222.52412509602897L-86.008307890872,224.05930235932846L-82.0848343981605,225.52622898861802L-78.13635706971763,226.924458143836L-74.16407864998736,228.25356391083687L-70.16920913345683,229.5131414311285L-66.15296539607988,230.7028070251965L-62.116570824605006,231.8221983093764L-58.06125494392022,232.87097430623916L-53.988253042527504,233.84881554845649L-49.89880579626219,234.75542417611337L-45.79415889037075,235.59052402743936L-41.67556264006322,236.35386072292994L-37.5442716096554,237.04520174283306L-33.40154423041574,237.66433649797685L-29.248642417235367,238.2110763939173L-25.086831184236853,238.6852548883856L-20.91737825943803,239.08672754201893L-16.741553698590078,239.41537206235782L-12.560629498306469,239.67108834109771L-8.375879208600123,239.853798484583L-4.188577544947981,239.9634468375339L1.4695276245868527e-14,240.0L4.188577544948011,239.9634468375339L8.37587920860026,239.853798484583L12.560629498306499,239.67108834109771L16.741553698590003,239.41537206235785L20.917378259437953,239.08672754201893L25.086831184236775,238.68525488838563L29.248642417235505,238.21107639391727L33.401544230415766,237.66433649797685L37.544271609655425,237.04520174283306L41.675562640063355,236.35386072292994L45.79415889037078,235.59052402743936L49.89880579626222,234.75542417611337L53.98825304252763,233.84881554845646L58.06125494392024,232.87097430623916L62.11657082460492,231.8221983093764L66.1529653960798,230.70280702519653L70.16920913345677,229.51314143112853L74.16407864998749,228.25356391083682L78.13635706971766,226.924458143836L82.08483439816052,225.526228988618L86.00830789087215,224.0593023593284L89.90558241981893,222.52412509602897L93.77547083742569,220.9211648285857L97.616794338192,219.25090983422425L101.42838281776787,217.513868888796L105.20907522937854,215.71057111180008L108.95771993749113,213.84156580520832L112.67317506861384,211.90742228614243L116.3543088591209,209.908729713455L120.00000000000009,207.84609690826522L123.60913797841305,205.72015216850693L127.18062341596918,203.53154307754224L130.71336840360652,201.28093630690174L134.20629683297923,198.96901741321003L137.65834472425104,196.59649062935807L141.06846055019355,194.1640786499874L144.43560555649157,191.67252241135031L147.75875407815792,189.12258086561332L151.03689385196105,186.51503074967297L154.26902632476947,183.85066634855468L157.45416695772184,181.13029925346524L160.591345526126,178.3547581145746L163.67960641499963,175.5248883886009L166.7180089101594,172.64155208127625L169.7056274847714,169.70562748477138L172.64155208127625,166.71800891015937L175.52488838860086,163.6796064149997L178.3547581145746,160.591345526126L181.13029925346524,157.4541669577218L183.8506663485547,154.26902632476944L186.5150307496731,151.03689385196085L189.12258086561334,147.75875407815792L191.67252241135031,144.43560555649157L194.1640786499874,141.06846055019355L196.59649062935802,137.6583447242511L198.96901741320997,134.20629683297932L201.2809363069018,130.71336840360644L203.53154307754227,127.18062341596918L205.72015216850693,123.60913797841303L207.84609690826522,120.00000000000006L209.90872971345505,116.3543088591208L211.9074222861425,112.67317506861374L213.8415658052083,108.95771993749122L215.71057111180005,105.20907522937861L217.51386888879597,101.42838281776794L219.25090983422425,97.61679433819198L220.9211648285857,93.77547083742567L222.52412509602897,89.90558241981891L224.0593023593284,86.00830789087213L225.52622898861796,82.0848343981606L226.92445814383603,78.13635706971755L228.25356391083685,74.16407864998737L229.5131414311285,70.16920913345685L230.70280702519656,66.1529653960797L231.8221983093764,62.11657082460491L232.87097430623916,58.061254943920225L233.84881554845646,53.98825304252762L234.75542417611334,49.89880579626231L235.59052402743933,45.794158890370866L236.35386072292994,41.675562640063234L237.04520174283306,37.54427160965541L237.66433649797688,33.40154423041554L238.2110763939173,29.248642417235278L238.68525488838563,25.086831184236765L239.08672754201893,20.917378259437935L239.41537206235782,16.741553698590096L239.67108834109771,12.56062949830659L239.853798484583,8.37587920860035L239.9634468375339,4.188577544947996L240.0,0.0L239.9634468375339,-4.188577544947996L239.853798484583,-8.37587920860035L239.67108834109771,-12.56062949830659L239.41537206235782,-16.741553698590096L239.08672754201893,-20.917378259437935L238.68525488838563,-25.086831184236765L238.21107639391727,-29.248642417235487L237.66433649797685,-33.40154423041575L237.04520174283306,-37.54427160965541L236.35386072292994,-41.675562640063234L235.59052402743936,-45.79415889037066L234.7554241761134,-49.8988057962621L233.84881554845646,-53.98825304252762L232.87097430623916,-58.061254943920225L231.82219830937635,-62.11657082460513L230.7028070251965,-66.15296539607989L229.5131414311285,-70.16920913345685L228.25356391083685,-74.16407864998737L226.92445814383603,-78.13635706971755L225.52622898861804,-82.0848343981604L224.05930235932848,-86.00830789087193L222.52412509602897,-89.90558241981891L220.9211648285857,-93.77547083742567L219.25090983422416,-97.61679433819216L217.51386888879597,-101.42838281776794L215.71057111180005,-105.20907522937861L213.8415658052083,-108.95771993749122L211.9074222861425,-112.67317506861374L209.90872971345505,-116.3543088591208L207.84609690826522,-120.00000000000006L205.72015216850693,-123.60913797841303L203.53154307754227,-127.18062341596918L201.2809363069018,-130.71336840360644L198.96901741321008,-134.20629683297912L196.59649062935802,-137.6583447242511L194.1640786499874,-141.06846055019355L191.67252241135031,-144.43560555649157L189.1225808656132,-147.75875407815806L186.51503074967297,-151.03689385196103L183.8506663485547,-154.26902632476944L181.1302992534653,-157.45416695772172L178.35475811457468,-160.59134552612593L175.524888388601,-163.67960641499957L172.6415520812764,-166.71800891015923L169.7056274847714,-169.70562748477138L166.7180089101594,-172.64155208127625L163.67960641499957,-175.524888388601L160.59134552612593,-178.35475811457468L157.45416695772175,-181.1302992534653L154.26902632476947,-183.85066634855468L151.03689385196105,-186.51503074967297L147.7587540781581,-189.1225808656132L144.43560555649157,-191.67252241135031L141.06846055019355,-194.1640786499874L137.6583447242511,-196.59649062935802L134.20629683297935,-198.96901741320994L130.71336840360644,-201.2809363069018L127.18062341596936,-203.53154307754212L123.60913797841305,-205.72015216850693L120.00000000000009,-207.84609690826522L116.35430885912082,-209.90872971345505L112.67317506861376,-211.9074222861425L108.95771993749123,-213.84156580520826L105.20907522937844,-215.71057111180014L101.42838281776795,-217.51386888879597L97.616794338192,-219.25090983422425L93.77547083742589,-220.9211648285856L89.90558241981893,-222.52412509602897L86.00830789087215,-224.0593023593284L82.08483439816041,-225.52622898861804L78.13635706971777,-226.92445814383598L74.16407864998739,-228.25356391083685L70.16920913345666,-229.51314143112856L66.1529653960799,-230.7028070251965L62.11657082460492,-231.8221983093764L58.06125494392024,-232.87097430623916L53.98825304252763,-233.84881554845646L49.89880579626232,-234.75542417611334L45.794158890370674,-235.59052402743936L41.67556264006346,-236.3538607229299L37.544271609655425,-237.04520174283306L33.401544230415766,-237.66433649797685L29.248642417235505,-238.21107639391727L25.086831184236775,-238.68525488838563L20.917378259437953,-239.08672754201893L16.741553698589897,-239.41537206235785L12.560629498306605,-239.67108834109771L8.375879208600153,-239.853798484583L4.188577544948224,-239.9634468375339L1.4695276245868527e-14,-240.0Z" fill="lightsteelblue" fill-rule="evenodd"/>
          <path class="line" d="M2.3512441993389643e-14,-384.0L6.920136701091393,-396.4543660851341L14.264169739856836,-408.47237754103946L21.99780935161698,-419.7432070687884L30.0666320392421,-429.97287025656226L38.398078552398275,-438.89204617945103L46.90415414913326,-446.2632169918903L55.48473827337977,-451.8869299639057L64.03138953355102,-455.607010369218L72.43151435044658,-457.31458344033905L80.57275443745571,-456.95079739766453L88.34743982572004,-454.5081763561031L95.6569507433135,-450.0305706478898L102.4158334315191,-443.6117116533294L108.55552189839503,-435.3924174601158L114.02752947074552,-425.55653344637983L118.80599045213769,-414.3257271176101L122.88945272047322,-401.95328821484276L126.30184606498192,-388.71711234903785L129.09257771767946,-374.91206843489607L131.33573503705682,-360.8419663817888L133.1284047474207,-346.81135140763587L134.58814758607645,-333.11735471594983L135.84969571694973,-320.041827051213L137.06096691175506,-307.8439719506708L138.378513410019,-296.7536796576105L139.96254375932588,-286.9657411469562L141.97167212498806,-278.6350951966343L144.55756098955882,-271.8732307189797L147.8596294285404,-266.74583256582275L152.0,-263.2717227504694L157.07885264136283,-261.4231115621805L163.17034391680485,-261.12713548556616L170.31923476368675,-262.2686222763119L178.53834996943053,-264.69398904734544L187.8069685449906,-268.21614777980733L198.07021665530758,-272.6202651881737L209.23950464146134,-277.670201112871L221.19401783244632,-283.1154322158063L233.78323826611438,-288.69825618038107L246.83044211963113,-294.16106615768757L260.13708659115025,-299.25348596097535L273.4879711475056,-303.7391634116649L286.65703236850544,-307.4020320205178L299.4136098992405,-310.0518694121277L311.5290039756343,-311.5290039756342L322.7831331863821,-311.708048415146L332.97109499232107,-310.5005693281158L341.9094312890234,-307.85663471621115L349.44190703926307,-303.7652154264421L355.4446216072058,-298.2534508945542L359.83028960520875,-291.3848231822334L362.55155035524746,-283.25631516028113L363.6031918502119,-273.99465784903043L363.02320561497777,-263.75179753211586L360.8926222341384,-252.69973457261278L357.3341125606724,-241.02490228050385L352.5093757117143,-228.9222652605014L346.61537082484006,-216.589322129129L339.87948412043625,-204.22019722337325L332.55375505322445,-192.00000000000003L324.90831426152835,-180.09961948742597L317.2242107509591,-168.67110480765365L309.7858255133354,-157.8437619916849L302.8730829578459,-147.72107275795304L296.7536796576106,-138.37851341001902L291.6755517054066,-129.8623224224401L287.8597973278826,-122.18923456488706L285.49426041849426,-115.3471685344836L284.7279635941957,-109.29682499268495L285.6665567189162,-103.97412357100332L288.3689191952923,-99.29338169343534L292.84502248234105,-95.15111574828087L299.05512415577124,-91.4303269018482L306.9103273958518,-88.00512022248553L316.2745011436246,-84.74549716799038L326.96751742858703,-81.52215811506252L338.7697246660821,-78.2111535417634L351.4275401510752,-74.69822961066622L364.6600125789763,-70.88272597526574L378.1661771566878,-66.68090022410125L391.6330025635308,-62.028573923642504L404.74371137500316,-56.883019037186834L417.18624410212436,-51.22402979681128L428.66163207577125,-45.05415302706067L438.89204617945103,-38.398078552398246L447.6282968707887,-31.301219735877538L454.65657580283795,-23.827541474258457L459.80425024430184,-16.056718234107173L462.9445478102054,-8.080727140191373L464.0,0.0L462.94454781020545,8.080727140191476L459.8042502443019,16.056718234107073L454.656575802838,23.827541474258357L447.62829687078863,31.301219735877535L438.892046179451,38.39807855239834L428.6616320757713,45.05415302706068L417.1862441021245,51.224029796811294L404.74371137500356,56.88301903718679L391.63300256353074,62.0285739236426L378.1661771566879,66.68090022410126L364.66001257897625,70.88272597526573L351.42754015107545,74.69822961066617L338.76972466608214,78.21115354176341L326.9675174285871,81.52215811506254L316.27450114362466,84.74549716799048L306.91032739585177,88.00512022248552L299.05512415577135,91.43032690184823L292.84502248234105,95.15111574828087L288.36891919529234,99.29338169343528L285.6665567189162,103.97412357100332L284.72796359419567,109.29682499268493L285.49426041849426,115.34716853448366L287.8597973278826,122.18923456488699L291.67555170540646,129.86232242244006L296.7536796576106,138.37851341001902L302.8730829578458,147.72107275795307L309.78582551333545,157.84376199168491L317.224210750959,168.67110480765348L324.9083142615283,180.09961948742594L332.5537550532244,191.99999999999991L339.8794841204362,204.22019722337322L346.6153708248401,216.58932212912902L352.5093757117141,228.92226526050132L357.3341125606724,241.02490228050382L360.8926222341383,252.69973457261258L363.0232056149778,263.7517975321159L363.60319185021183,273.99465784903055L362.5515503552474,283.2563151602812L359.83028960520875,291.3848231822333L355.4446216072058,298.25345089455425L349.44190703926296,303.7652154264422L341.90943128902336,307.85663471621115L332.97109499232107,310.5005693281158L322.7831331863822,311.7080484151459L311.52900397563434,311.5290039756343L299.41360989924056,310.05186941212787L286.65703236850544,307.4020320205179L273.4879711475056,303.73916341166483L260.13708659115036,299.25348596097547L246.8304421196312,294.16106615768757L233.78323826611467,288.69825618038124L221.1940178324463,283.11543221580627L209.23950464146137,277.67020111287115L198.0702166553076,272.62026518817373L187.80696854499064,268.2161477798073L178.53834996943056,264.69398904734555L170.3192347636866,262.2686222763119L163.17034391680485,261.12713548556616L157.07885264136283,261.4231115621805L152.0,263.2717227504694L147.85962942854036,266.7458325658227L144.55756098955888,271.8732307189797L141.97167212498806,278.6350951966343L139.96254375932583,286.96574114695625L138.37851341001894,296.7536796576104L137.0609669117551,307.8439719506707L135.84969571694973,320.04182705121264L134.58814758607645,333.11735471594983L133.12840474742055,346.81135140763575L131.33573503705682,360.8419663817887L129.0925777176795,374.912068434896L126.30184606498187,388.71711234903773L122.88945272047326,401.9532882148426L118.8059904521378,414.3257271176098L114.02752947074556,425.55653344637955L108.55552189839504,435.39241746011584L102.41583343151892,443.6117116533294L95.6569507433134,450.0305706478899L88.34743982572004,454.5081763561031L80.57275443745563,456.9507973976646L72.43151435044658,457.3145834403391L64.03138953355112,455.60701036921796L55.484738273379776,451.88692996390574L46.90415414913337,446.2632169918904L38.398078552398474,438.8920461794511L30.06663203924212,429.97287025656254L21.997809351616887,419.7432070687884L14.264169739856653,408.4723775410394L6.9201367010913035,396.454366085134L2.351244199338965e-14,384.0000000000001L-6.483311442742283,371.42866379497445L-12.538643727663956,359.0597776096263L-18.196205042963875,347.20427562272454L-23.506339796246063,336.15632034298284L-28.537531877803158,326.18548195500983L-33.37370564042451,317.52959865094385L-38.1109174617736,310.38851449662957L-42.85355200377928,304.9188664243079L-47.710154800450745,301.23006213672676L-52.78904601074689,299.3815569157113L-58.19386862346641,299.3815005317028L-64.01922780472566,301.1867867156729L-70.34657630456931,304.70449810173136L-77.2404939221497,309.7947003198495L-84.74549716799028,316.2745011436246L-92.88349881531755,323.92325536301854L-101.65201650658844,332.48876436476826L-111.02320561497785,341.69429216564004L-120.94376490541701,351.24619762537935L-131.33573503705674,360.8419663817887L-142.09818050337006,370.17841614221504L-153.1097161573441,378.95984559134297L-164.2318109628124,386.90590040026115L-175.31277497045926,393.7589395188465L-186.19231160683805,399.29070078653655L-196.7064969746854,403.30808641080404L-206.69303167498362,405.65791538003225L-215.99659923000536,406.23052059667606L-224.4741589206465,404.96210251723323L-232.0000000000001,401.83578735597945L-238.47038888955888,396.88137537704176L-243.80765101429643,390.173802362569L-247.9635441278542,381.83037390577385L-250.9217998961031,372.00686667492675L-252.69973457261275,360.89262223413857L-253.3488571053118,348.704786491786L-252.9544331393117,335.68187060345L-251.63399521765942,322.0768265541567L-249.53482206016085,308.14984221857253L-246.83044211963104,294.16106615768746L-243.71624767355928,280.3634716501133L-240.40433453609768,266.996062554974L-237.1177081594935,254.27761082300526L-234.08401861326945,242.4010972479564L-231.52900397563425,231.5290039756343L-229.66983347370197,221.78958009736408L-228.708547851202,213.27417119988337L-228.82579467761536,206.03567096739212L-230.1750505718258,200.08811883826763L-232.87751070816932,195.40743334470804L-237.01780879374502,191.93323714404167L-242.64070841471508,189.5716978898243L-249.74887986610906,188.1992799317426L-258.3018460649819,187.6672762285036L-268.2161477798073,187.80696854499072L-279.3667431615993,188.43524758502966L-291.58962047037124,189.36051363103928L-304.685567023295,190.3886728019723L-318.42500281878586,191.32904430754843L-332.5537550532243,192.00000000000006L-346.7996208215276,192.23416886176076L-360.8795405646968,191.88305541191048L-374.50718506333124,190.82094180828713L-387.40074459991445,188.94796797605858L-399.2907007865364,186.19231160683827L-409.9273597641109,182.51141945977432L-419.0879301235916,177.89227211487523L-426.58293988879836,172.35069520893688L-432.2618039556552,165.92976025810586L-436.01737604466143,158.69734650311057L-437.78934686498303,150.74296092966097L-437.5663820323368,142.17393593167876L-435.3869284238399,133.1111423252137L-431.3386550847773,123.6843690449697L-425.5565334463799,114.02752947074546L-418.2196003513784,104.27385770548236L-409.54648508897867,94.551256194325L-399.7898172124875,84.97794893737313L-389.2296643088301,75.65858247392103L-378.1661771566883,66.68090022410131L-366.91164301353535,58.113095227254895L-355.7821654185224,50.00192250014325L-345.0892003584113,42.371625938341865L-335.13118356706275,35.22370676249711L-326.18548195500966,28.5375318778032L-318.50089372875635,22.27175209961081L-312.2909068886747,16.36647292032257L-307.7279049063638,10.746095233413785L-304.93848206990316,5.322721003642251L-304.00000000000006,3.7228033156200275e-14L-304.93848206990305,-5.322721003642174L-307.7279049063636,-10.746095233413703L-312.2909068886748,-16.366472920322494L-318.50089372875635,-22.271752099610733L-326.18548195500966,-28.53753187780312L-335.1311835670628,-35.22370676249703L-345.08920035841066,-42.371625938342014L-355.7821654185225,-50.001922500143486L-366.91164301353484,-58.113095227254725L-378.1661771566878,-66.68090022410111L-389.2296643088297,-75.65858247392049L-399.78981721248704,-84.97794893737257L-409.5464850889787,-94.5512561943249L-418.2196003513784,-104.27385770548227L-425.5565334463799,-114.02752947074575L-431.338655084777,-123.6843690449699L-435.3869284238399,-133.1111423252136L-437.56638203233683,-142.17393593167864L-437.7893468649831,-150.74296092966085L-436.01737604466155,-158.69734650311005L-432.2618039556554,-165.9297602581054L-426.5829398887986,-172.35069520893686L-419.08793012359183,-177.8922721148752L-409.9273597641108,-182.51141945977457L-399.2907007865368,-186.19231160683833L-387.4007445999145,-188.9479679760585L-374.5071850633313,-190.82094180828705L-360.8795405646968,-191.88305541191036L-346.79962082152764,-192.23416886176068L-332.5537550532248,-192.00000000000028L-318.42500281878637,-191.32904430754863L-304.68556702329545,-190.38867280197252L-291.5896204703717,-189.36051363103948L-279.3667431615999,-188.43524758502963L-268.2161477798074,-187.80696854499064L-258.301846064982,-187.6672762285035L-249.7488798661091,-188.19927993174258L-242.64070841471494,-189.5716978898244L-237.01780879374496,-191.9332371440419L-232.87751070816935,-195.40743334470798L-230.17505057182584,-200.08811883826738L-228.82579467761542,-206.03567096739187L-228.70854785120204,-213.27417119988294L-229.66983347370197,-221.7895800973636L-231.52900397563434,-231.52900397563425L-234.08401861326954,-242.4010972479563L-237.1177081594935,-254.27761082300535L-240.4043345360973,-266.99606255497366L-243.7162476735592,-280.3634716501134L-246.83044211963107,-294.1610661576874L-249.53482206016093,-308.1498422185724L-251.63399521765947,-322.07682655415596L-252.95443313931148,-335.68187060344957L-253.34885710531165,-348.7047864917857L-252.6997345726128,-360.8926222341381L-250.92179989610318,-372.00686667492636L-247.963544127854,-381.83037390577374L-243.80765101429682,-390.17380236256867L-238.470388889559,-396.88137537704165L-232.0000000000002,-401.8357873559794L-224.4741589206464,-404.96210251723323L-215.99659923000527,-406.2305205966761L-206.693031674984,-405.6579153800323L-196.70649697468534,-403.3080864108041L-186.19231160683847,-399.2907007865367L-175.31277497045951,-393.75893951884683L-164.23181096281314,-386.9059004002616L-153.1097161573442,-378.9598455913429L-142.09818050337034,-370.17841614221555L-131.33573503705668,-360.8419663817887L-120.94376490541735,-351.2461976253795L-111.02320561497785,-341.6942921656403L-101.65201650658837,-332.4887643647683L-92.8834988153179,-323.9232553630189L-84.7454971679904,-316.2745011436247L-77.24049392214988,-309.79470031985L-70.34657630456937,-304.7044981017313L-64.0192278047259,-301.186786715673L-58.19386862346635,-299.3815005317028L-52.78904601074709,-299.38155691571126L-47.7101548004508,-301.2300621367267L-42.85355200377934,-304.9188664243078L-38.11091746177368,-310.38851449662957L-33.37370564042457,-317.5295986509437L-28.537531877803186,-326.18548195500927L-23.506339796246,-336.15632034298284L-18.19620504296409,-347.204275622724L-12.538643727663887,-359.0597776096263L-6.4833114427427,-371.4286637949742L-7.05373259801689e-14,-383.9999999999999" fill="none" stroke="steelblue" stroke-width="1.5px"/>
     </g>
</svg>
