<svg xmlns="http://www.w3.org/2000/svg" xmlns:xlink="http://www.w3.org/1999/xlink" width="140" height="160">
     <path d="M0,120L35,120L70,120L105,120L140,120L140,160L105,160L70,160L35,160L0,160Z" fill="rgb(31,119,180)"/>
     <path d="M0,80L35,80L70,80L105,80L140,80L140,120L105,120L70,120L35,120L0,120Z" fill="rgb(174,199,232)"/>
     <path d="M0,40L35,40L70,40L105,40L140,40L140,80L105,80L70,80L35,80L0,80Z" fill="rgb(255,127,14)"/>
     <path d="M0,0L35,0L70,0L105,0L140,0L140,40L105,40L70,40L35,40L0,40Z" fill="rgb(255,187,120)"/>
</svg>
