<svg xmlns="http://www.w3.org/2000/svg" xmlns:xlink="http://www.w3.org/1999/xlink" font-size="10px" font-family="sans-serif" fill="none" stroke="none" stroke-width="1.5" width="435" height="230">
     <g transform="translate(25,10)">
          <line shape-rendering="crispEdges" x1="40.4040404040404" y1="200" x2="40.4040404040404" y2="210" stroke="rgb(0,0,0)" stroke-width="1"/>
          <line shape-rendering="crispEdges" x1="80.8080808080808" y1="200" x2="80.8080808080808" y2="210" stroke="rgb(0,0,0)" stroke-width="1"/>
          <line shape-rendering="crispEdges" x1="121.21212121212122" y1="200" x2="121.21212121212122" y2="210" stroke="rgb(0,0,0)" stroke-width="1"/>
          <line shape-rendering="crispEdges" x1="161.6161616161616" y1="200" x2="161.6161616161616" y2="210" stroke="rgb(0,0,0)" stroke-width="1"/>
          <line shape-rendering="crispEdges" x1="202.02020202020202" y1="200" x2="202.02020202020202" y2="210" stroke="rgb(0,0,0)" stroke-width="1"/>
          <line shape-rendering="crispEdges" x1="242.42424242424244" y1="200" x2="242.42424242424244" y2="210" stroke="rgb(0,0,0)" stroke-width="1"/>
          <line shape-rendering="crispEdges" x1="282.82828282828285" y1="200" x2="282.82828282828285" y2="210" stroke="rgb(0,0,0)" stroke-width="1"/>
          <line shape-rendering="crispEdges" x1="323.2323232323232" y1="200" x2="323.2323232323232" y2="210" stroke="rgb(0,0,0)" stroke-width="1"/>
          <line shape-rendering="crispEdges" x1="363.6363636363636" y1="200" x2="363.6363636363636" y2="210" stroke="rgb(0,0,0)" stroke-width="1"/>
     </g>
     <g transform="translate(25,10)">
          <text x="0.0" y="210" dy=".71em" fill="rgb(0,0,0)" text-anchor="middle">0.0</text>
          <text x="40.4040404040404" y="210" dy=".71em" fill="rgb(0,0,0)" text-anchor="middle">1.0</text>
          <text x="80.8080808080808" y="210" dy=".71em" fill="rgb(0,0,0)" text-anchor="middle">2.0</text>
          <text x="121.21212121212122" y="210" dy=".71em" fill="rgb(0,0,0)" text-anchor="middle">3.0</text>
          <text x="161.6161616161616" y="210" dy=".71em" fill="rgb(0,0,0)" text-anchor="middle">4.0</text>
          <text x="202.02020202020202" y="210" dy=".71em" fill="rgb(0,0,0)" text-anchor="middle">5.0</text>
          <text x="242.42424242424244" y="210" dy=".71em" fill="rgb(0,0,0)" text-anchor="middle">6.0</text>
          <text x="282.82828282828285" y="210" dy=".71em" fill="rgb(0,0,0)" text-anchor="middle">7.0</text>
          <text x="323.2323232323232" y="210" dy=".71em" fill="rgb(0,0,0)" text-anchor="middle">8.0</text>
          <text x="363.6363636363636" y="210" dy=".71em" fill="rgb(0,0,0)" text-anchor="middle">9.0</text>
     </g>
     <g transform="translate(25,10)">
          <line shape-rendering="crispEdges" x1="0" y1="200.0" x2="400" y2="200.0" stroke="#000" stroke-width="1"/>
          <line shape-rendering="crispEdges" x1="0" y1="128.57142857142856" x2="400" y2="128.57142857142856" stroke="rgba(128,128,128,.2)" stroke-opacity="0.2" stroke-width="1"/>
          <line shape-rendering="crispEdges" x1="0" y1="57.14285714285714" x2="400" y2="57.14285714285714" stroke="rgba(128,128,128,.2)" stroke-opacity="0.2" stroke-width="1"/>
     </g>
     <g transform="translate(25,10)">
          <text x="-3" y="200.0" dy=".35em" fill="rgb(0,0,0)" text-anchor="end">0.0</text>
          <text x="-3" y="128.57142857142856" dy=".35em" fill="rgb(0,0,0)" text-anchor="end">5.0</text>
          <text x="-3" y="57.14285714285714" dy=".35em" fill="rgb(0,0,0)" text-anchor="end">10.0</text>
     </g>
     <g transform="translate(25,10)">
          <path d="M0.0,164.28571428571428L4.040404040404041,162.85952261933102L8.080808080808081,161.447580988642L12.121212121212123,160.06399704769515L16.161616161616163,158.7225951098764L20.2020202020202,157.43677801993996L24.242424242424246,156.21939323721378L28.28282828282828,155.08260446803297L32.323232323232325,154.03777013000683L36.36363636363637,153.09532986246452L40.4040404040404,152.26470021703005L44.44444444444445,151.55418057055093L48.48484848484849,150.9708702004682L52.52525252525253,150.52059735118297L56.56565656565656,150.20786100016485L60.60606060606061,150.03578590565638L64.64646464646465,150.00609138512135L68.68686868686869,150.1190741363933L72.72727272727273,150.37360527316864L76.76767676767678,150.7671416044655L80.8080808080808,151.2957510453474L84.84848484848484,151.9541519050161L88.8888888888889,152.73576565972013L92.92929292929294,153.6327826831897L96.96969696969698,154.6362402778407L101.01010101010101,155.73611222708632L105.05050505050507,156.92140897397908L109.09090909090911,158.180287425231L113.13131313131312,159.50016928348708L117.17171717171718,160.86786672551455L121.21212121212122,162.2697141705733L125.25252525252526,163.69170482238155L129.2929292929293,165.119630620394L133.33333333333334,166.5392242020464L137.37373737373738,167.93630145752616L141.41414141414143,169.29690325270886L145.45454545454547,170.60743490421217L149.4949494949495,171.85480201297847L153.53535353535355,173.0265412991817L157.5757575757576,174.11094513119963L161.6161616161616,175.09717850439898L165.65656565656568,175.97538730092015L169.6969696969697,176.73679674876556L173.73737373737373,177.37379909642078L177.7777777777778,177.8800296269931L181.8181818181818,178.25043025235854L185.85858585858588,178.48130005190663L189.8989898989899,178.57033225091573L193.93939393939397,178.51663726908345L197.97979797979798,178.32075160891904L202.02020202020202,177.9846324951877L206.06060606060606,177.51163831896758L210.10101010101013,176.90649508171649L214.14141414141415,176.17524917462714L218.18181818181822,175.32520696508553L222.22222222222223,174.36486179386273L226.26262626262624,173.30380911246172L230.3030303030303,172.15265060853767L234.34343434343435,170.92288827733938L238.3838383838384,169.6268094975748L242.42424242424244,168.27736425998467L246.4646464646465,166.88803577531564L250.50505050505052,165.47270575453567L254.5454545454546,164.0455157073664L258.5858585858586,162.62072564499294L262.62626262626264,161.21257159874548L266.6666666666667,159.8351233783803L270.7070707070707,158.50214399119145L274.74747474747477,157.2269521265913L278.7878787878788,156.02228908016858L282.82828282828285,154.90019144687443L286.8686868686869,153.87187085534464L290.90909090909093,152.94760194501208L294.949494949495,152.1366197053062L298.989898989899,151.44702720269103L303.030303030303,150.88571461750374L307.0707070707071,150.4582903995502L311.11111111111114,150.16902523032857L315.1515151515152,150.02080935179134L319.1919191919192,150.01512368800326L323.2323232323232,150.15202504823742L327.27272727272725,150.4301455593559L331.31313131313135,150.8467063331461L335.3535353535354,151.39754523205295L339.3939393939394,152.07715845588172L343.4343434343434,152.87875553395014L347.47474747474746,153.79432717322695L351.51515151515156,154.81472528454026L355.5555555555556,155.92975438726054L359.5959595959596,157.12827347917306L363.6363636363636,158.39830735368918L367.67676767676767,159.72716625215213L371.71717171717177,161.10157265571078L375.75757575757575,162.5077939498991L379.7979797979798,163.9317796363806L383.83838383838383,165.359301720883L387.87878787878793,166.776096874614L391.919191919192,168.16800894872776L395.95959595959596,169.5211304178847L400.0,170.82194133964745L400.0,200L395.95959595959596,200L391.919191919192,200L387.87878787878793,200L383.83838383838383,200L379.7979797979798,200L375.75757575757575,200L371.71717171717177,200L367.67676767676767,200L363.6363636363636,200L359.5959595959596,200L355.5555555555556,200L351.51515151515156,200L347.47474747474746,200L343.4343434343434,200L339.3939393939394,200L335.3535353535354,200L331.31313131313135,200L327.27272727272725,200L323.2323232323232,200L319.1919191919192,200L315.1515151515152,200L311.11111111111114,200L307.0707070707071,200L303.030303030303,200L298.989898989899,200L294.949494949495,200L290.90909090909093,200L286.8686868686869,200L282.82828282828285,200L278.7878787878788,200L274.74747474747477,200L270.7070707070707,200L266.6666666666667,200L262.62626262626264,200L258.5858585858586,200L254.5454545454546,200L250.50505050505052,200L246.4646464646465,200L242.42424242424244,200L238.3838383838384,200L234.34343434343435,200L230.3030303030303,200L226.26262626262624,200L222.22222222222223,200L218.18181818181822,200L214.14141414141415,200L210.10101010101013,200L206.06060606060606,200L202.02020202020202,200L197.97979797979798,200L193.93939393939397,200L189.8989898989899,200L185.85858585858588,200L181.8181818181818,200L177.7777777777778,200L173.73737373737373,200L169.6969696969697,200L165.65656565656568,200L161.6161616161616,200L157.5757575757576,200L153.53535353535355,200L149.4949494949495,200L145.45454545454547,200L141.41414141414143,200L137.37373737373738,200L133.33333333333334,200L129.2929292929293,200L125.25252525252526,200L121.21212121212122,200L117.17171717171718,200L113.13131313131312,200L109.09090909090911,200L105.05050505050507,200L101.01010101010101,200L96.96969696969698,200L92.92929292929294,200L88.8888888888889,200L84.84848484848484,200L80.8080808080808,200L76.76767676767678,200L72.72727272727273,200L68.68686868686869,200L64.64646464646465,200L60.60606060606061,200L56.56565656565656,200L52.52525252525253,200L48.48484848484849,200L44.44444444444445,200L40.4040404040404,200L36.36363636363637,200L32.323232323232325,200L28.28282828282828,200L24.242424242424246,200L20.2020202020202,200L16.161616161616163,200L12.121212121212123,200L8.080808080808081,200L4.040404040404041,200L0.0,200Z" fill="rgb(31,119,180)"/>
          <path d="M0.0,128.57142857142856L4.040404040404041,125.71904523866203L8.080808080808081,122.89516197728398L12.121212121212123,120.1279940953903L16.161616161616163,117.44519021975282L20.2020202020202,114.87355603987993L24.242424242424246,112.43878647442756L28.28282828282828,110.16520893606594L32.323232323232325,108.07554026001367L36.36363636363637,106.19065972492905L40.4040404040404,104.52940043406011L44.44444444444445,103.10836114110185L48.48484848484849,101.9417404009364L52.52525252525253,101.04119470236594L56.56565656565656,100.41572200032971L60.60606060606061,100.07157181131277L64.64646464646465,100.0121827702427L68.68686868686869,100.23814827278659L72.72727272727273,100.74721054633727L76.76767676767678,101.53428320893101L80.8080808080808,102.5915020906948L84.84848484848484,103.90830381003218L88.8888888888889,105.47153131944026L92.92929292929294,107.2655653663794L96.96969696969698,109.2724805556814L101.01010101010101,111.47222445417265L105.05050505050507,113.84281794795817L109.09090909090911,116.360574850462L113.13131313131312,119.00033856697416L117.17171717171718,121.73573345102909L121.21212121212122,124.53942834114662L125.25252525252526,127.3834096447631L129.2929292929293,130.23926124078798L133.33333333333334,133.0784484040928L137.37373737373738,135.8726029150523L141.41414141414143,138.59380650541772L145.45454545454547,141.21486980842434L149.4949494949495,143.70960402595693L153.53535353535355,146.0530825983634L157.5757575757576,148.22189026239926L161.6161616161616,150.19435700879797L165.65656565656568,151.9507746018403L169.6969696969697,153.4735934975311L173.73737373737373,154.74759819284156L177.7777777777778,155.76005925398619L181.8181818181818,156.50086050471708L185.85858585858588,156.96260010381326L189.8989898989899,157.14066450183145L193.93939393939397,157.0332745381669L197.97979797979798,156.64150321783808L202.02020202020202,155.9692649903754L206.06060606060606,155.02327663793517L210.10101010101013,153.81299016343297L214.14141414141415,152.35049834925428L218.18181818181822,150.65041393017106L222.22222222222223,148.72972358772546L226.26262626262624,146.60761822492344L230.3030303030303,144.30530121707534L234.34343434343435,141.84577655467876L238.3838383838384,139.25361899514962L242.42424242424244,136.55472851996933L246.4646464646465,133.7760715506313L250.50505050505052,130.94541150907133L254.5454545454546,128.0910314147328L258.5858585858586,125.24145128998589L262.62626262626264,122.42514319749097L266.6666666666667,119.6702467567606L270.7070707070707,117.00428798238289L274.74747474747477,114.4539042531826L278.7878787878788,112.04457816033715L282.82828282828285,109.80038289374886L286.8686868686869,107.74374171068928L290.90909090909093,105.89520389002416L294.949494949495,104.2732394106124L298.989898989899,102.89405440538206L303.030303030303,101.77142923500747L307.0707070707071,100.91658079910042L311.11111111111114,100.33805046065714L315.1515151515152,100.04161870358269L319.1919191919192,100.03024737600651L323.2323232323232,100.30405009647484L327.27272727272725,100.86029111871181L331.31313131313135,101.6934126662922L335.3535353535354,102.7950904641059L339.3939393939394,104.15431691176343L343.4343434343434,105.75751106790028L347.47474747474746,107.5886543464539L351.51515151515156,109.62945056908052L355.5555555555556,111.85950877452109L359.5959595959596,114.25654695834612L363.6363636363636,116.79661470737835L367.67676767676767,119.45433250430426L371.71717171717177,122.20314531142157L375.75757575757575,125.01558789979822L379.7979797979798,127.86355927276122L383.83838383838383,130.718603441766L387.87878787878793,133.55219374922802L391.919191919192,136.33601789745552L395.95959595959596,139.0422608357694L400.0,141.6438826792949L400.0,170.82194133964745L395.95959595959596,169.5211304178847L391.919191919192,168.16800894872776L387.87878787878793,166.776096874614L383.83838383838383,165.359301720883L379.7979797979798,163.9317796363806L375.75757575757575,162.5077939498991L371.71717171717177,161.10157265571078L367.67676767676767,159.72716625215213L363.6363636363636,158.39830735368918L359.5959595959596,157.12827347917306L355.5555555555556,155.92975438726054L351.51515151515156,154.81472528454026L347.47474747474746,153.79432717322695L343.4343434343434,152.87875553395014L339.3939393939394,152.07715845588172L335.3535353535354,151.39754523205295L331.31313131313135,150.8467063331461L327.27272727272725,150.4301455593559L323.2323232323232,150.15202504823742L319.1919191919192,150.01512368800326L315.1515151515152,150.02080935179134L311.11111111111114,150.16902523032857L307.0707070707071,150.4582903995502L303.030303030303,150.88571461750374L298.989898989899,151.44702720269103L294.949494949495,152.1366197053062L290.90909090909093,152.94760194501208L286.8686868686869,153.87187085534464L282.82828282828285,154.90019144687443L278.7878787878788,156.02228908016858L274.74747474747477,157.2269521265913L270.7070707070707,158.50214399119145L266.6666666666667,159.8351233783803L262.62626262626264,161.21257159874548L258.5858585858586,162.62072564499294L254.5454545454546,164.0455157073664L250.50505050505052,165.47270575453567L246.4646464646465,166.88803577531564L242.42424242424244,168.27736425998467L238.3838383838384,169.6268094975748L234.34343434343435,170.92288827733938L230.3030303030303,172.15265060853767L226.26262626262624,173.30380911246172L222.22222222222223,174.36486179386273L218.18181818181822,175.32520696508553L214.14141414141415,176.17524917462714L210.10101010101013,176.90649508171649L206.06060606060606,177.51163831896758L202.02020202020202,177.9846324951877L197.97979797979798,178.32075160891904L193.93939393939397,178.51663726908345L189.8989898989899,178.57033225091573L185.85858585858588,178.48130005190663L181.8181818181818,178.25043025235854L177.7777777777778,177.8800296269931L173.73737373737373,177.37379909642078L169.6969696969697,176.73679674876556L165.65656565656568,175.97538730092015L161.6161616161616,175.09717850439898L157.5757575757576,174.11094513119963L153.53535353535355,173.0265412991817L149.4949494949495,171.85480201297847L145.45454545454547,170.60743490421217L141.41414141414143,169.29690325270886L137.37373737373738,167.93630145752616L133.33333333333334,166.5392242020464L129.2929292929293,165.119630620394L125.25252525252526,163.69170482238155L121.21212121212122,162.2697141705733L117.17171717171718,160.86786672551455L113.13131313131312,159.50016928348708L109.09090909090911,158.180287425231L105.05050505050507,156.92140897397908L101.01010101010101,155.73611222708632L96.96969696969698,154.6362402778407L92.92929292929294,153.6327826831897L88.8888888888889,152.73576565972013L84.84848484848484,151.9541519050161L80.8080808080808,151.2957510453474L76.76767676767678,150.7671416044655L72.72727272727273,150.37360527316864L68.68686868686869,150.1190741363933L64.64646464646465,150.00609138512135L60.60606060606061,150.03578590565638L56.56565656565656,150.20786100016485L52.52525252525253,150.52059735118297L48.48484848484849,150.9708702004682L44.44444444444445,151.55418057055093L40.4040404040404,152.26470021703005L36.36363636363637,153.09532986246452L32.323232323232325,154.03777013000683L28.28282828282828,155.08260446803297L24.242424242424246,156.21939323721378L20.2020202020202,157.43677801993996L16.161616161616163,158.7225951098764L12.121212121212123,160.06399704769515L8.080808080808081,161.447580988642L4.040404040404041,162.85952261933102L0.0,164.28571428571428Z" fill="rgb(174,199,232)"/>
          <path d="M0.0,92.85714285714283L4.040404040404041,88.57856785799305L8.080808080808081,84.34274296592596L12.121212121212123,80.19199114308546L16.161616161616163,76.16778532962923L20.2020202020202,72.3103340598199L24.242424242424246,68.65817971164134L28.28282828282828,65.2478134040989L32.323232323232325,62.1133103900205L36.36363636363637,59.28598958739357L40.4040404040404,56.79410065109016L44.44444444444445,54.66254171165278L48.48484848484849,52.912610601404594L52.52525252525253,51.56179205354891L56.56565656565656,50.62358300049456L60.60606060606061,50.10735771696915L64.64646464646465,50.018274155364054L68.68686868686869,50.35722240917988L72.72727272727273,51.12081581950591L76.76767676767678,52.30142481339652L80.8080808080808,53.887253136042204L84.84848484848484,55.86245571504827L88.8888888888889,58.20729697916039L92.92929292929294,60.89834804956911L96.96969696969698,63.908720833522096L101.01010101010101,67.20833668125897L105.05050505050507,70.76422692193725L109.09090909090911,74.540862275693L113.13131313131312,78.50050785046125L117.17171717171718,82.60360017654364L121.21212121212122,86.80914251171993L125.25252525252526,91.07511446714466L129.2929292929293,95.35889186118197L133.33333333333334,99.6176726061392L137.37373737373738,103.80890437257847L141.41414141414143,107.89070975812658L145.45454545454547,111.82230471263651L149.4949494949495,115.5644060389354L153.53535353535355,119.0796238975451L157.5757575757576,122.33283539359888L161.6161616161616,125.29153551319695L165.65656565656568,127.92616190276044L169.6969696969697,130.21039024629667L173.73737373737373,132.12139728926235L177.7777777777778,133.64008888097928L181.8181818181818,134.75129075707562L185.85858585858588,135.4439001557199L189.8989898989899,135.71099675274718L193.93939393939397,135.54991180725034L197.97979797979798,134.96225482675712L202.02020202020202,133.9538974855631L206.06060606060606,132.53491495690275L210.10101010101013,130.71948524514946L214.14141414141415,128.52574752388142L218.18181818181822,125.97562089525658L222.22222222222223,123.09458538158819L226.26262626262624,119.91142733738516L230.3030303030303,116.45795182561301L234.34343434343435,112.76866483201815L238.3838383838384,108.88042849272443L242.42424242424244,104.832092779954L246.4646464646465,100.66410732594693L250.50505050505052,96.418117263607L254.5454545454546,92.13654712209922L258.5858585858586,87.86217693497883L262.62626262626264,83.63771479623645L266.6666666666667,79.50537013514091L270.7070707070707,75.50643197357434L274.74747474747477,71.6808563797739L278.7878787878788,68.06686724050573L282.82828282828285,64.70057434062329L286.8686868686869,61.61561256603392L290.90909090909093,58.842805835036245L294.949494949495,56.40985911591861L298.989898989899,54.3410816080731L303.030303030303,52.65714385251121L307.0707070707071,51.374871198650624L311.11111111111114,50.507075690985715L315.1515151515152,50.06242805537403L319.1919191919192,50.04537106400977L323.2323232323232,50.45607514471226L327.27272727272725,51.29043667806772L331.31313131313135,52.540118999438306L335.3535353535354,54.192635696158845L339.3939393939394,56.231475367645146L343.4343434343434,58.63626660185042L347.47474747474746,61.38298151968084L351.51515151515156,64.44417585362078L355.5555555555556,67.78926316178163L359.5959595959596,71.38482043751918L363.6363636363636,75.19492206106753L367.67676767676767,79.18149875645639L371.71717171717177,83.30471796713235L375.75757575757575,87.52338184969733L379.7979797979798,91.79533890914183L383.83838383838383,96.07790516264899L387.87878787878793,100.32829062384204L391.919191919192,104.50402684618328L395.95959595959596,108.56339125365412L400.0,112.46582401894236L400.0,141.6438826792949L395.95959595959596,139.0422608357694L391.919191919192,136.33601789745552L387.87878787878793,133.55219374922802L383.83838383838383,130.718603441766L379.7979797979798,127.86355927276122L375.75757575757575,125.01558789979822L371.71717171717177,122.20314531142157L367.67676767676767,119.45433250430426L363.6363636363636,116.79661470737835L359.5959595959596,114.25654695834612L355.5555555555556,111.85950877452109L351.51515151515156,109.62945056908052L347.47474747474746,107.5886543464539L343.4343434343434,105.75751106790028L339.3939393939394,104.15431691176343L335.3535353535354,102.7950904641059L331.31313131313135,101.6934126662922L327.27272727272725,100.86029111871181L323.2323232323232,100.30405009647484L319.1919191919192,100.03024737600651L315.1515151515152,100.04161870358269L311.11111111111114,100.33805046065714L307.0707070707071,100.91658079910042L303.030303030303,101.77142923500747L298.989898989899,102.89405440538206L294.949494949495,104.2732394106124L290.90909090909093,105.89520389002416L286.8686868686869,107.74374171068928L282.82828282828285,109.80038289374886L278.7878787878788,112.04457816033715L274.74747474747477,114.4539042531826L270.7070707070707,117.00428798238289L266.6666666666667,119.6702467567606L262.62626262626264,122.42514319749097L258.5858585858586,125.24145128998589L254.5454545454546,128.0910314147328L250.50505050505052,130.94541150907133L246.4646464646465,133.7760715506313L242.42424242424244,136.55472851996933L238.3838383838384,139.25361899514962L234.34343434343435,141.84577655467876L230.3030303030303,144.30530121707534L226.26262626262624,146.60761822492344L222.22222222222223,148.72972358772546L218.18181818181822,150.65041393017106L214.14141414141415,152.35049834925428L210.10101010101013,153.81299016343297L206.06060606060606,155.02327663793517L202.02020202020202,155.9692649903754L197.97979797979798,156.64150321783808L193.93939393939397,157.0332745381669L189.8989898989899,157.14066450183145L185.85858585858588,156.96260010381326L181.8181818181818,156.50086050471708L177.7777777777778,155.76005925398619L173.73737373737373,154.74759819284156L169.6969696969697,153.4735934975311L165.65656565656568,151.9507746018403L161.6161616161616,150.19435700879797L157.5757575757576,148.22189026239926L153.53535353535355,146.0530825983634L149.4949494949495,143.70960402595693L145.45454545454547,141.21486980842434L141.41414141414143,138.59380650541772L137.37373737373738,135.8726029150523L133.33333333333334,133.0784484040928L129.2929292929293,130.23926124078798L125.25252525252526,127.3834096447631L121.21212121212122,124.53942834114662L117.17171717171718,121.73573345102909L113.13131313131312,119.00033856697416L109.09090909090911,116.360574850462L105.05050505050507,113.84281794795817L101.01010101010101,111.47222445417265L96.96969696969698,109.2724805556814L92.92929292929294,107.2655653663794L88.8888888888889,105.47153131944026L84.84848484848484,103.90830381003218L80.8080808080808,102.5915020906948L76.76767676767678,101.53428320893101L72.72727272727273,100.74721054633727L68.68686868686869,100.23814827278659L64.64646464646465,100.0121827702427L60.60606060606061,100.07157181131277L56.56565656565656,100.41572200032971L52.52525252525253,101.04119470236594L48.48484848484849,101.9417404009364L44.44444444444445,103.10836114110185L40.4040404040404,104.52940043406011L36.36363636363637,106.19065972492905L32.323232323232325,108.07554026001367L28.28282828282828,110.16520893606594L24.242424242424246,112.43878647442756L20.2020202020202,114.87355603987993L16.161616161616163,117.44519021975282L12.121212121212123,120.1279940953903L8.080808080808081,122.89516197728398L4.040404040404041,125.71904523866203L0.0,128.57142857142856Z" fill="rgb(255,127,14)"/>
          <path d="M0.0,57.14285714285711L4.040404040404041,51.43809047732407L8.080808080808081,45.79032395456795L12.121212121212123,40.25598819078061L16.161616161616163,34.890380439505634L20.2020202020202,29.74711207975986L24.242424242424246,24.877572948855118L28.28282828282828,20.330417872131875L32.323232323232325,16.151080520027335L36.36363636363637,12.381319449858097L40.4040404040404,9.058800868120215L44.44444444444445,6.216722282203705L48.48484848484849,3.8834808018727927L52.52525252525253,2.0823894047318845L56.56565656565656,0.8314440006594168L60.60606060606061,0.14314362262553004L64.64646464646465,0.02436554048540529L68.68686868686869,0.47629654557317735L72.72727272727273,1.4944210926745427L76.76767676767678,3.06856641786203L80.8080808080808,5.183004181389606L84.84848484848484,7.81660762006436L88.8888888888889,10.94306263888052L92.92929292929294,14.531130732758811L96.96969696969698,18.544961111362795L101.01010101010101,22.944448908345294L105.05050505050507,27.685635895916334L109.09090909090911,32.721149700924L113.13131313131312,38.00067713394833L117.17171717171718,43.47146690205818L121.21212121212122,49.078856682293235L125.25252525252526,54.76681928952621L129.2929292929293,60.478522481575965L133.33333333333334,66.15689680818559L137.37373737373738,71.74520583010462L141.41414141414143,77.18761301083543L145.45454545454547,82.42973961684868L149.4949494949495,87.41920805191387L153.53535353535355,92.1061651967268L157.5757575757576,96.44378052479851L161.6161616161616,100.38871401759593L165.65656565656568,103.90154920368059L169.6969696969697,106.94718699506222L173.73737373737373,109.49519638568313L177.7777777777778,111.52011850797237L181.8181818181818,113.00172100943416L185.85858585858588,113.92520020762652L189.8989898989899,114.2813290036629L193.93939393939397,114.06654907633379L197.97979797979798,113.28300643567616L202.02020202020202,111.93852998075079L206.06060606060606,110.04655327587034L210.10101010101013,107.62598032686594L214.14141414141415,104.70099669850856L218.18181818181822,101.30082786034211L222.22222222222223,97.45944717545092L226.26262626262624,93.21523644984688L230.3030303030303,88.61060243415068L234.34343434343435,83.69155310935753L238.3838383838384,78.50723799029925L242.42424242424244,73.10945703993866L246.4646464646465,67.55214310126257L250.50505050505052,61.89082301814267L254.5454545454546,56.18206282946562L258.5858585858586,50.48290257997178L262.62626262626264,44.850286394981936L266.6666666666667,39.34049351352121L270.7070707070707,34.00857596476578L274.74747474747477,28.9078085063652L278.7878787878788,24.089156320674306L282.82828282828285,19.60076578749772L286.8686868686869,15.487483421378556L290.90909090909093,11.790407780048326L294.949494949495,8.54647882122481L298.989898989899,5.788108810764129L303.030303030303,3.5428584700149486L307.0707070707071,1.8331615982008316L311.11111111111114,0.676100921314287L315.1515151515152,0.08323740716537031L319.1919191919192,0.06049475201302812L323.2323232323232,0.6081001929496779L327.27272727272725,1.7205822374236277L331.31313131313135,3.386825332584408L335.3535353535354,5.590180928211794L339.3939393939394,8.308633823526861L343.4343434343434,11.515022135800564L347.47474747474746,15.177308692907786L351.51515151515156,19.258901138161036L355.5555555555556,23.719017549042178L359.5959595959596,28.51309391669224L363.6363636363636,33.593229414756706L367.67676767676767,38.90866500860852L371.71717171717177,44.40629062284313L375.75757575757575,50.03117579959644L379.7979797979798,55.727118545522444L383.83838383838383,61.437206883531985L387.87878787878793,67.10438749845605L391.919191919192,72.67203579491104L395.95959595959596,78.08452167153882L400.0,83.28776535858981L400.0,112.46582401894236L395.95959595959596,108.56339125365412L391.919191919192,104.50402684618328L387.87878787878793,100.32829062384204L383.83838383838383,96.07790516264899L379.7979797979798,91.79533890914183L375.75757575757575,87.52338184969733L371.71717171717177,83.30471796713235L367.67676767676767,79.18149875645639L363.6363636363636,75.19492206106753L359.5959595959596,71.38482043751918L355.5555555555556,67.78926316178163L351.51515151515156,64.44417585362078L347.47474747474746,61.38298151968084L343.4343434343434,58.63626660185042L339.3939393939394,56.231475367645146L335.3535353535354,54.192635696158845L331.31313131313135,52.540118999438306L327.27272727272725,51.29043667806772L323.2323232323232,50.45607514471226L319.1919191919192,50.04537106400977L315.1515151515152,50.06242805537403L311.11111111111114,50.507075690985715L307.0707070707071,51.374871198650624L303.030303030303,52.65714385251121L298.989898989899,54.3410816080731L294.949494949495,56.40985911591861L290.90909090909093,58.842805835036245L286.8686868686869,61.61561256603392L282.82828282828285,64.70057434062329L278.7878787878788,68.06686724050573L274.74747474747477,71.6808563797739L270.7070707070707,75.50643197357434L266.6666666666667,79.50537013514091L262.62626262626264,83.63771479623645L258.5858585858586,87.86217693497883L254.5454545454546,92.13654712209922L250.50505050505052,96.418117263607L246.4646464646465,100.66410732594693L242.42424242424244,104.832092779954L238.3838383838384,108.88042849272443L234.34343434343435,112.76866483201815L230.3030303030303,116.45795182561301L226.26262626262624,119.91142733738516L222.22222222222223,123.09458538158819L218.18181818181822,125.97562089525658L214.14141414141415,128.52574752388142L210.10101010101013,130.71948524514946L206.06060606060606,132.53491495690275L202.02020202020202,133.9538974855631L197.97979797979798,134.96225482675712L193.93939393939397,135.54991180725034L189.8989898989899,135.71099675274718L185.85858585858588,135.4439001557199L181.8181818181818,134.75129075707562L177.7777777777778,133.64008888097928L173.73737373737373,132.12139728926235L169.6969696969697,130.21039024629667L165.65656565656568,127.92616190276044L161.6161616161616,125.29153551319695L157.5757575757576,122.33283539359888L153.53535353535355,119.0796238975451L149.4949494949495,115.5644060389354L145.45454545454547,111.82230471263651L141.41414141414143,107.89070975812658L137.37373737373738,103.80890437257847L133.33333333333334,99.6176726061392L129.2929292929293,95.35889186118197L125.25252525252526,91.07511446714466L121.21212121212122,86.80914251171993L117.17171717171718,82.60360017654364L113.13131313131312,78.50050785046125L109.09090909090911,74.540862275693L105.05050505050507,70.76422692193725L101.01010101010101,67.20833668125897L96.96969696969698,63.908720833522096L92.92929292929294,60.89834804956911L88.8888888888889,58.20729697916039L84.84848484848484,55.86245571504827L80.8080808080808,53.887253136042204L76.76767676767678,52.30142481339652L72.72727272727273,51.12081581950591L68.68686868686869,50.35722240917988L64.64646464646465,50.018274155364054L60.60606060606061,50.10735771696915L56.56565656565656,50.62358300049456L52.52525252525253,51.56179205354891L48.48484848484849,52.912610601404594L44.44444444444445,54.66254171165278L40.4040404040404,56.79410065109016L36.36363636363637,59.28598958739357L32.323232323232325,62.1133103900205L28.28282828282828,65.2478134040989L24.242424242424246,68.65817971164134L20.2020202020202,72.3103340598199L16.161616161616163,76.16778532962923L12.121212121212123,80.19199114308546L8.080808080808081,84.34274296592596L4.040404040404041,88.57856785799305L0.0,92.85714285714283Z" fill="rgb(255,187,120)"/>
     </g>
</svg>
