<svg xmlns="http://www.w3.org/2000/svg" xmlns:xlink="http://www.w3.org/1999/xlink" font-size="10px" font-family="sans-serif" fill="none" stroke="none" stroke-width="1.5" width="430" height="225">
     <g transform="translate(20,5)">
          <line shape-rendering="crispEdges" x1="40.4040404040404" y1="200" x2="40.4040404040404" y2="205" stroke="rgb(0,0,0)" stroke-width="1"/>
          <line shape-rendering="crispEdges" x1="80.8080808080808" y1="200" x2="80.8080808080808" y2="205" stroke="rgb(0,0,0)" stroke-width="1"/>
          <line shape-rendering="crispEdges" x1="121.21212121212122" y1="200" x2="121.21212121212122" y2="205" stroke="rgb(0,0,0)" stroke-width="1"/>
          <line shape-rendering="crispEdges" x1="161.6161616161616" y1="200" x2="161.6161616161616" y2="205" stroke="rgb(0,0,0)" stroke-width="1"/>
          <line shape-rendering="crispEdges" x1="202.02020202020202" y1="200" x2="202.02020202020202" y2="205" stroke="rgb(0,0,0)" stroke-width="1"/>
          <line shape-rendering="crispEdges" x1="242.42424242424244" y1="200" x2="242.42424242424244" y2="205" stroke="rgb(0,0,0)" stroke-width="1"/>
          <line shape-rendering="crispEdges" x1="282.82828282828285" y1="200" x2="282.82828282828285" y2="205" stroke="rgb(0,0,0)" stroke-width="1"/>
          <line shape-rendering="crispEdges" x1="323.2323232323232" y1="200" x2="323.2323232323232" y2="205" stroke="rgb(0,0,0)" stroke-width="1"/>
          <line shape-rendering="crispEdges" x1="363.6363636363636" y1="200" x2="363.6363636363636" y2="205" stroke="rgb(0,0,0)" stroke-width="1"/>
     </g>
     <g transform="translate(20,5)">
          <text x="0" y="205" dy=".71em" fill="rgb(0,0,0)" text-anchor="middle">0.0</text>
          <text x="40.4040404040404" y="205" dy=".71em" fill="rgb(0,0,0)" text-anchor="middle">1.0</text>
          <text x="80.8080808080808" y="205" dy=".71em" fill="rgb(0,0,0)" text-anchor="middle">2.0</text>
          <text x="121.21212121212122" y="205" dy=".71em" fill="rgb(0,0,0)" text-anchor="middle">3.0</text>
          <text x="161.6161616161616" y="205" dy=".71em" fill="rgb(0,0,0)" text-anchor="middle">4.0</text>
          <text x="202.02020202020202" y="205" dy=".71em" fill="rgb(0,0,0)" text-anchor="middle">5.0</text>
          <text x="242.42424242424244" y="205" dy=".71em" fill="rgb(0,0,0)" text-anchor="middle">6.0</text>
          <text x="282.82828282828285" y="205" dy=".71em" fill="rgb(0,0,0)" text-anchor="middle">7.0</text>
          <text x="323.2323232323232" y="205" dy=".71em" fill="rgb(0,0,0)" text-anchor="middle">8.0</text>
          <text x="363.6363636363636" y="205" dy=".71em" fill="rgb(0,0,0)" text-anchor="middle">9.0</text>
     </g>
     <g transform="translate(20,5)">
          <line shape-rendering="crispEdges" x1="0" y1="200" x2="400" y2="200" stroke="#000" stroke-width="1"/>
          <line shape-rendering="crispEdges" x1="0" y1="128.57142857142856" x2="400" y2="128.57142857142856" stroke="rgba(128,128,128,.2)" stroke-opacity="0.2" stroke-width="1"/>
          <line shape-rendering="crispEdges" x1="0" y1="57.14285714285714" x2="400" y2="57.14285714285714" stroke="rgba(128,128,128,.2)" stroke-opacity="0.2" stroke-width="1"/>
     </g>
     <g transform="translate(20,5)">
          <text x="-3" y="200" dy=".35em" fill="rgb(0,0,0)" text-anchor="end">0.0</text>
          <text x="-3" y="128.57142857142856" dy=".35em" fill="rgb(0,0,0)" text-anchor="end">5.0</text>
          <text x="-3" y="57.14285714285714" dy=".35em" fill="rgb(0,0,0)" text-anchor="end">10.0</text>
     </g>
     <g transform="translate(20,5)">
          <path d="M0,35.71428571428572L4.040404040404041,37.14047738066898L8.080808080808081,38.55241901135801L12.121212121212123,39.93600295230485L16.161616161616163,41.27740489012359L20.2020202020202,42.563221980060035L24.242424242424246,43.78060676278622L28.28282828282828,44.91739553196703L32.323232323232325,45.962229869993166L36.36363636363637,46.904670137535476L40.4040404040404,47.735299782969946L44.44444444444445,48.445819429449074L48.48484848484849,49.0291297995318L52.52525252525253,49.47940264881703L56.56565656565656,49.792138999835146L60.60606060606061,49.96421409434362L64.64646464646465,49.99390861487865L68.68686868686869,49.880925863606706L72.72727272727273,49.626394726831364L76.76767676767678,49.23285839553449L80.8080808080808,48.7042489546526L84.84848484848484,48.04584809498391L88.8888888888889,47.26423434027987L92.92929292929294,46.3672173168103L96.96969696969698,45.3637597221593L101.01010101010101,44.26388777291368L105.05050505050507,43.078591026020916L109.09090909090911,41.819712574769L113.13131313131312,40.49983071651292L117.17171717171718,39.132133274485454L121.21212121212122,37.73028582942669L125.25252525252526,36.30829517761845L129.2929292929293,34.88036937960601L133.33333333333334,33.4607757979536L137.37373737373738,32.063698542473844L141.41414141414143,30.70309674729114L145.45454545454547,29.39256509578783L149.4949494949495,28.145197987021533L153.53535353535355,26.9734587008183L157.5757575757576,25.889054868800372L161.6161616161616,24.902821495601017L165.65656565656568,24.024612699079853L169.6969696969697,23.263203251234444L173.73737373737373,22.626200903579218L177.7777777777778,22.119970373006907L181.8181818181818,21.74956974764146L185.85858585858588,21.51869994809337L189.8989898989899,21.429667749084274L193.93939393939397,21.483362730916554L197.97979797979798,21.67924839108096L202.02020202020202,22.015367504812303L206.06060606060606,22.488361681032416L210.10101010101013,23.093504918283514L214.14141414141415,23.82475082537286L218.18181818181822,24.674793034914472L222.22222222222223,25.63513820613727L226.26262626262624,26.69619088753828L230.3030303030303,27.84734939146233L234.34343434343435,29.077111722660618L238.3838383838384,30.37319050242519L242.42424242424244,31.722635740015335L246.4646464646465,33.11196422468436L250.50505050505052,34.52729424546433L254.5454545454546,35.954484292633595L258.5858585858586,37.379274355007055L262.62626262626264,38.787428401254516L266.6666666666667,40.1648766216197L270.7070707070707,41.497856008808554L274.74747474747477,42.7730478734087L278.7878787878788,43.977710919831424L282.82828282828285,45.09980855312557L286.8686868686869,46.12812914465536L290.90909090909093,47.05239805498792L294.949494949495,47.8633802946938L298.989898989899,48.55297279730897L303.030303030303,49.11428538249626L307.0707070707071,49.54170960044979L311.11111111111114,49.83097476967143L315.1515151515152,49.97919064820866L319.1919191919192,49.98487631199674L323.2323232323232,49.84797495176258L327.27272727272725,49.56985444064409L331.31313131313135,49.1532936668539L335.3535353535354,48.60245476794705L339.3939393939394,47.922841544118285L343.4343434343434,47.12124446604986L347.47474747474746,46.20567282677305L351.51515151515156,45.18527471545974L355.5555555555556,44.070245612739456L359.5959595959596,42.87172652082694L363.6363636363636,41.60169264631082L367.67676767676767,40.27283374784787L371.71717171717177,38.89842734428922L375.75757575757575,37.49220605010089L379.7979797979798,36.06822036361939L383.83838383838383,34.640698279117004L387.87878787878793,33.22390312538599L391.919191919192,31.83199105127224L395.95959595959596,30.478869582115294L400,29.178058660352548L400,200L395.95959595959596,200L391.919191919192,200L387.87878787878793,200L383.83838383838383,200L379.7979797979798,200L375.75757575757575,200L371.71717171717177,200L367.67676767676767,200L363.6363636363636,200L359.5959595959596,200L355.5555555555556,200L351.51515151515156,200L347.47474747474746,200L343.4343434343434,200L339.3939393939394,200L335.3535353535354,200L331.31313131313135,200L327.27272727272725,200L323.2323232323232,200L319.1919191919192,200L315.1515151515152,200L311.11111111111114,200L307.0707070707071,200L303.030303030303,200L298.989898989899,200L294.949494949495,200L290.90909090909093,200L286.8686868686869,200L282.82828282828285,200L278.7878787878788,200L274.74747474747477,200L270.7070707070707,200L266.6666666666667,200L262.62626262626264,200L258.5858585858586,200L254.5454545454546,200L250.50505050505052,200L246.4646464646465,200L242.42424242424244,200L238.3838383838384,200L234.34343434343435,200L230.3030303030303,200L226.26262626262624,200L222.22222222222223,200L218.18181818181822,200L214.14141414141415,200L210.10101010101013,200L206.06060606060606,200L202.02020202020202,200L197.97979797979798,200L193.93939393939397,200L189.8989898989899,200L185.85858585858588,200L181.8181818181818,200L177.7777777777778,200L173.73737373737373,200L169.6969696969697,200L165.65656565656568,200L161.6161616161616,200L157.5757575757576,200L153.53535353535355,200L149.4949494949495,200L145.45454545454547,200L141.41414141414143,200L137.37373737373738,200L133.33333333333334,200L129.2929292929293,200L125.25252525252526,200L121.21212121212122,200L117.17171717171718,200L113.13131313131312,200L109.09090909090911,200L105.05050505050507,200L101.01010101010101,200L96.96969696969698,200L92.92929292929294,200L88.8888888888889,200L84.84848484848484,200L80.8080808080808,200L76.76767676767678,200L72.72727272727273,200L68.68686868686869,200L64.64646464646465,200L60.60606060606061,200L56.56565656565656,200L52.52525252525253,200L48.48484848484849,200L44.44444444444445,200L40.4040404040404,200L36.36363636363637,200L32.323232323232325,200L28.28282828282828,200L24.242424242424246,200L20.2020202020202,200L16.161616161616163,200L12.121212121212123,200L8.080808080808081,200L4.040404040404041,200L0,200Z"/>
          <path d="M0,-128.57142857142856L4.040404040404041,-125.71904523866203L8.080808080808081,-122.89516197728398L12.121212121212123,-120.1279940953903L16.161616161616163,-117.44519021975282L20.2020202020202,-114.87355603987993L24.242424242424246,-112.43878647442756L28.28282828282828,-110.16520893606594L32.323232323232325,-108.07554026001367L36.36363636363637,-106.19065972492905L40.4040404040404,-104.52940043406011L44.44444444444445,-103.10836114110185L48.48484848484849,-101.9417404009364L52.52525252525253,-101.04119470236594L56.56565656565656,-100.41572200032971L60.60606060606061,-100.07157181131277L64.64646464646465,-100.0121827702427L68.68686868686869,-100.23814827278659L72.72727272727273,-100.74721054633727L76.76767676767678,-101.53428320893101L80.8080808080808,-102.5915020906948L84.84848484848484,-103.90830381003218L88.8888888888889,-105.47153131944026L92.92929292929294,-107.2655653663794L96.96969696969698,-109.2724805556814L101.01010101010101,-111.47222445417265L105.05050505050507,-113.84281794795817L109.09090909090911,-116.360574850462L113.13131313131312,-119.00033856697416L117.17171717171718,-121.73573345102909L121.21212121212122,-124.53942834114662L125.25252525252526,-127.3834096447631L129.2929292929293,-130.23926124078798L133.33333333333334,-133.0784484040928L137.37373737373738,-135.8726029150523L141.41414141414143,-138.59380650541772L145.45454545454547,-141.21486980842434L149.4949494949495,-143.70960402595693L153.53535353535355,-146.0530825983634L157.5757575757576,-148.22189026239926L161.6161616161616,-150.19435700879797L165.65656565656568,-151.9507746018403L169.6969696969697,-153.4735934975311L173.73737373737373,-154.74759819284156L177.7777777777778,-155.76005925398619L181.8181818181818,-156.50086050471708L185.85858585858588,-156.96260010381326L189.8989898989899,-157.14066450183145L193.93939393939397,-157.0332745381669L197.97979797979798,-156.64150321783808L202.02020202020202,-155.9692649903754L206.06060606060606,-155.02327663793517L210.10101010101013,-153.81299016343297L214.14141414141415,-152.35049834925428L218.18181818181822,-150.65041393017106L222.22222222222223,-148.72972358772546L226.26262626262624,-146.60761822492344L230.3030303030303,-144.30530121707534L234.34343434343435,-141.84577655467876L238.3838383838384,-139.25361899514962L242.42424242424244,-136.55472851996933L246.4646464646465,-133.7760715506313L250.50505050505052,-130.94541150907133L254.5454545454546,-128.0910314147328L258.5858585858586,-125.24145128998589L262.62626262626264,-122.42514319749097L266.6666666666667,-119.6702467567606L270.7070707070707,-117.00428798238289L274.74747474747477,-114.4539042531826L278.7878787878788,-112.04457816033715L282.82828282828285,-109.80038289374886L286.8686868686869,-107.74374171068928L290.90909090909093,-105.89520389002416L294.949494949495,-104.2732394106124L298.989898989899,-102.89405440538206L303.030303030303,-101.77142923500747L307.0707070707071,-100.91658079910042L311.11111111111114,-100.33805046065714L315.1515151515152,-100.04161870358269L319.1919191919192,-100.03024737600651L323.2323232323232,-100.30405009647484L327.27272727272725,-100.86029111871181L331.31313131313135,-101.6934126662922L335.3535353535354,-102.7950904641059L339.3939393939394,-104.15431691176343L343.4343434343434,-105.75751106790028L347.47474747474746,-107.5886543464539L351.51515151515156,-109.62945056908052L355.5555555555556,-111.85950877452109L359.5959595959596,-114.25654695834612L363.6363636363636,-116.79661470737835L367.67676767676767,-119.45433250430426L371.71717171717177,-122.20314531142157L375.75757575757575,-125.01558789979822L379.7979797979798,-127.86355927276122L383.83838383838383,-130.718603441766L387.87878787878793,-133.55219374922802L391.919191919192,-136.33601789745552L395.95959595959596,-139.0422608357694L400,-141.6438826792949L400,29.178058660352548L395.95959595959596,30.478869582115294L391.919191919192,31.83199105127224L387.87878787878793,33.22390312538599L383.83838383838383,34.640698279117004L379.7979797979798,36.06822036361939L375.75757575757575,37.49220605010089L371.71717171717177,38.89842734428922L367.67676767676767,40.27283374784787L363.6363636363636,41.60169264631082L359.5959595959596,42.87172652082694L355.5555555555556,44.070245612739456L351.51515151515156,45.18527471545974L347.47474747474746,46.20567282677305L343.4343434343434,47.12124446604986L339.3939393939394,47.922841544118285L335.3535353535354,48.60245476794705L331.31313131313135,49.1532936668539L327.27272727272725,49.56985444064409L323.2323232323232,49.84797495176258L319.1919191919192,49.98487631199674L315.1515151515152,49.97919064820866L311.11111111111114,49.83097476967143L307.0707070707071,49.54170960044979L303.030303030303,49.11428538249626L298.989898989899,48.55297279730897L294.949494949495,47.8633802946938L290.90909090909093,47.05239805498792L286.8686868686869,46.12812914465536L282.82828282828285,45.09980855312557L278.7878787878788,43.977710919831424L274.74747474747477,42.7730478734087L270.7070707070707,41.497856008808554L266.6666666666667,40.1648766216197L262.62626262626264,38.787428401254516L258.5858585858586,37.379274355007055L254.5454545454546,35.954484292633595L250.50505050505052,34.52729424546433L246.4646464646465,33.11196422468436L242.42424242424244,31.722635740015335L238.3838383838384,30.37319050242519L234.34343434343435,29.077111722660618L230.3030303030303,27.84734939146233L226.26262626262624,26.69619088753828L222.22222222222223,25.63513820613727L218.18181818181822,24.674793034914472L214.14141414141415,23.82475082537286L210.10101010101013,23.093504918283514L206.06060606060606,22.488361681032416L202.02020202020202,22.015367504812303L197.97979797979798,21.67924839108096L193.93939393939397,21.483362730916554L189.8989898989899,21.429667749084274L185.85858585858588,21.51869994809337L181.8181818181818,21.74956974764146L177.7777777777778,22.119970373006907L173.73737373737373,22.626200903579218L169.6969696969697,23.263203251234444L165.65656565656568,24.024612699079853L161.6161616161616,24.902821495601017L157.5757575757576,25.889054868800372L153.53535353535355,26.9734587008183L149.4949494949495,28.145197987021533L145.45454545454547,29.39256509578783L141.41414141414143,30.70309674729114L137.37373737373738,32.063698542473844L133.33333333333334,33.4607757979536L129.2929292929293,34.88036937960601L125.25252525252526,36.30829517761845L121.21212121212122,37.73028582942669L117.17171717171718,39.132133274485454L113.13131313131312,40.49983071651292L109.09090909090911,41.819712574769L105.05050505050507,43.078591026020916L101.01010101010101,44.26388777291368L96.96969696969698,45.3637597221593L92.92929292929294,46.3672173168103L88.8888888888889,47.26423434027987L84.84848484848484,48.04584809498391L80.8080808080808,48.7042489546526L76.76767676767678,49.23285839553449L72.72727272727273,49.626394726831364L68.68686868686869,49.880925863606706L64.64646464646465,49.99390861487865L60.60606060606061,49.96421409434362L56.56565656565656,49.792138999835146L52.52525252525253,49.47940264881703L48.48484848484849,49.0291297995318L44.44444444444445,48.445819429449074L40.4040404040404,47.735299782969946L36.36363636363637,46.904670137535476L32.323232323232325,45.962229869993166L28.28282828282828,44.91739553196703L24.242424242424246,43.78060676278622L20.2020202020202,42.563221980060035L16.161616161616163,41.27740489012359L12.121212121212123,39.93600295230485L8.080808080808081,38.55241901135801L4.040404040404041,37.14047738066898L0,35.71428571428572Z"/>
          <path d="M0,-292.85714285714283L4.040404040404041,-288.57856785799305L8.080808080808081,-284.34274296592594L12.121212121212123,-280.1919911430855L16.161616161616163,-276.1677853296292L20.2020202020202,-272.31033405981987L24.242424242424246,-268.6581797116413L28.28282828282828,-265.2478134040989L32.323232323232325,-262.1133103900205L36.36363636363637,-259.2859895873936L40.4040404040404,-256.79410065109016L44.44444444444445,-254.66254171165278L48.48484848484849,-252.9126106014046L52.52525252525253,-251.5617920535489L56.56565656565656,-250.62358300049456L60.60606060606061,-250.10735771696915L64.64646464646465,-250.01827415536405L68.68686868686869,-250.35722240917988L72.72727272727273,-251.1208158195059L76.76767676767678,-252.30142481339652L80.8080808080808,-253.8872531360422L84.84848484848484,-255.86245571504827L88.8888888888889,-258.2072969791604L92.92929292929294,-260.8983480495691L96.96969696969698,-263.9087208335221L101.01010101010101,-267.20833668125897L105.05050505050507,-270.7642269219373L109.09090909090911,-274.54086227569303L113.13131313131312,-278.50050785046125L117.17171717171718,-282.60360017654364L121.21212121212122,-286.8091425117199L125.25252525252526,-291.07511446714466L129.2929292929293,-295.358891861182L133.33333333333334,-299.6176726061392L137.37373737373738,-303.80890437257847L141.41414141414143,-307.8907097581266L145.45454545454547,-311.82230471263654L149.4949494949495,-315.56440603893543L153.53535353535355,-319.0796238975451L157.5757575757576,-322.3328353935989L161.6161616161616,-325.29153551319695L165.65656565656568,-327.92616190276044L169.6969696969697,-330.2103902462967L173.73737373737373,-332.12139728926235L177.7777777777778,-333.6400888809793L181.8181818181818,-334.7512907570756L185.85858585858588,-335.4439001557199L189.8989898989899,-335.7109967527472L193.93939393939397,-335.54991180725034L197.97979797979798,-334.9622548267571L202.02020202020202,-333.95389748556306L206.06060606060606,-332.53491495690275L210.10101010101013,-330.7194852451495L214.14141414141415,-328.5257475238814L218.18181818181822,-325.9756208952566L222.22222222222223,-323.0945853815882L226.26262626262624,-319.91142733738513L230.3030303030303,-316.457951825613L234.34343434343435,-312.76866483201815L238.3838383838384,-308.88042849272443L242.42424242424244,-304.832092779954L246.4646464646465,-300.66410732594693L250.50505050505052,-296.418117263607L254.5454545454546,-292.1365471220992L258.5858585858586,-287.86217693497883L262.62626262626264,-283.6377147962364L266.6666666666667,-279.5053701351409L270.7070707070707,-275.5064319735743L274.74747474747477,-271.6808563797739L278.7878787878788,-268.06686724050576L282.82828282828285,-264.7005743406233L286.8686868686869,-261.6156125660339L290.90909090909093,-258.84280583503624L294.949494949495,-256.4098591159186L298.989898989899,-254.3410816080731L303.030303030303,-252.6571438525112L307.0707070707071,-251.37487119865062L311.11111111111114,-250.50707569098572L315.1515151515152,-250.06242805537403L319.1919191919192,-250.04537106400977L323.2323232323232,-250.45607514471226L327.27272727272725,-251.29043667806772L331.31313131313135,-252.5401189994383L335.3535353535354,-254.19263569615885L339.3939393939394,-256.23147536764515L343.4343434343434,-258.6362666018504L347.47474747474746,-261.3829815196808L351.51515151515156,-264.4441758536208L355.5555555555556,-267.7892631617816L359.5959595959596,-271.3848204375192L363.6363636363636,-275.19492206106753L367.67676767676767,-279.1814987564564L371.71717171717177,-283.3047179671323L375.75757575757575,-287.52338184969733L379.7979797979798,-291.79533890914183L383.83838383838383,-296.077905162649L387.87878787878793,-300.328290623842L391.919191919192,-304.50402684618325L395.95959595959596,-308.5633912536541L400,-312.4658240189424L400,-141.6438826792949L395.95959595959596,-139.0422608357694L391.919191919192,-136.33601789745552L387.87878787878793,-133.55219374922802L383.83838383838383,-130.718603441766L379.7979797979798,-127.86355927276122L375.75757575757575,-125.01558789979822L371.71717171717177,-122.20314531142157L367.67676767676767,-119.45433250430426L363.6363636363636,-116.79661470737835L359.5959595959596,-114.25654695834612L355.5555555555556,-111.85950877452109L351.51515151515156,-109.62945056908052L347.47474747474746,-107.5886543464539L343.4343434343434,-105.75751106790028L339.3939393939394,-104.15431691176343L335.3535353535354,-102.7950904641059L331.31313131313135,-101.6934126662922L327.27272727272725,-100.86029111871181L323.2323232323232,-100.30405009647484L319.1919191919192,-100.03024737600651L315.1515151515152,-100.04161870358269L311.11111111111114,-100.33805046065714L307.0707070707071,-100.91658079910042L303.030303030303,-101.77142923500747L298.989898989899,-102.89405440538206L294.949494949495,-104.2732394106124L290.90909090909093,-105.89520389002416L286.8686868686869,-107.74374171068928L282.82828282828285,-109.80038289374886L278.7878787878788,-112.04457816033715L274.74747474747477,-114.4539042531826L270.7070707070707,-117.00428798238289L266.6666666666667,-119.6702467567606L262.62626262626264,-122.42514319749097L258.5858585858586,-125.24145128998589L254.5454545454546,-128.0910314147328L250.50505050505052,-130.94541150907133L246.4646464646465,-133.7760715506313L242.42424242424244,-136.55472851996933L238.3838383838384,-139.25361899514962L234.34343434343435,-141.84577655467876L230.3030303030303,-144.30530121707534L226.26262626262624,-146.60761822492344L222.22222222222223,-148.72972358772546L218.18181818181822,-150.65041393017106L214.14141414141415,-152.35049834925428L210.10101010101013,-153.81299016343297L206.06060606060606,-155.02327663793517L202.02020202020202,-155.9692649903754L197.97979797979798,-156.64150321783808L193.93939393939397,-157.0332745381669L189.8989898989899,-157.14066450183145L185.85858585858588,-156.96260010381326L181.8181818181818,-156.50086050471708L177.7777777777778,-155.76005925398619L173.73737373737373,-154.74759819284156L169.6969696969697,-153.4735934975311L165.65656565656568,-151.9507746018403L161.6161616161616,-150.19435700879797L157.5757575757576,-148.22189026239926L153.53535353535355,-146.0530825983634L149.4949494949495,-143.70960402595693L145.45454545454547,-141.21486980842434L141.41414141414143,-138.59380650541772L137.37373737373738,-135.8726029150523L133.33333333333334,-133.0784484040928L129.2929292929293,-130.23926124078798L125.25252525252526,-127.3834096447631L121.21212121212122,-124.53942834114662L117.17171717171718,-121.73573345102909L113.13131313131312,-119.00033856697416L109.09090909090911,-116.360574850462L105.05050505050507,-113.84281794795817L101.01010101010101,-111.47222445417265L96.96969696969698,-109.2724805556814L92.92929292929294,-107.2655653663794L88.8888888888889,-105.47153131944026L84.84848484848484,-103.90830381003218L80.8080808080808,-102.5915020906948L76.76767676767678,-101.53428320893101L72.72727272727273,-100.74721054633727L68.68686868686869,-100.23814827278659L64.64646464646465,-100.0121827702427L60.60606060606061,-100.07157181131277L56.56565656565656,-100.41572200032971L52.52525252525253,-101.04119470236594L48.48484848484849,-101.9417404009364L44.44444444444445,-103.10836114110185L40.4040404040404,-104.52940043406011L36.36363636363637,-106.19065972492905L32.323232323232325,-108.07554026001367L28.28282828282828,-110.16520893606594L24.242424242424246,-112.43878647442756L20.2020202020202,-114.87355603987993L16.161616161616163,-117.44519021975282L12.121212121212123,-120.1279940953903L8.080808080808081,-122.89516197728398L4.040404040404041,-125.71904523866203L0,-128.57142857142856Z"/>
          <path d="M0,-457.1428571428571L4.040404040404041,-451.43809047732407L8.080808080808081,-445.79032395456795L12.121212121212123,-440.2559881907806L16.161616161616163,-434.89038043950563L20.2020202020202,-429.74711207975986L24.242424242424246,-424.8775729488551L28.28282828282828,-420.3304178721319L32.323232323232325,-416.15108052002734L36.36363636363637,-412.3813194498581L40.4040404040404,-409.0588008681202L44.44444444444445,-406.2167222822037L48.48484848484849,-403.8834808018728L52.52525252525253,-402.0823894047319L56.56565656565656,-400.8314440006594L60.60606060606061,-400.14314362262553L64.64646464646465,-400.0243655404854L68.68686868686869,-400.4762965455732L72.72727272727273,-401.49442109267454L76.76767676767678,-403.06856641786203L80.8080808080808,-405.1830041813896L84.84848484848484,-407.81660762006436L88.8888888888889,-410.9430626388805L92.92929292929294,-414.5311307327588L96.96969696969698,-418.5449611113628L101.01010101010101,-422.9444489083453L105.05050505050507,-427.68563589591633L109.09090909090911,-432.721149700924L113.13131313131312,-438.00067713394833L117.17171717171718,-443.4714669020582L121.21212121212122,-449.07885668229324L125.25252525252526,-454.7668192895262L129.2929292929293,-460.47852248157596L133.33333333333334,-466.1568968081856L137.37373737373738,-471.7452058301046L141.41414141414143,-477.18761301083543L145.45454545454547,-482.4297396168487L149.4949494949495,-487.41920805191387L153.53535353535355,-492.1061651967268L157.5757575757576,-496.4437805247985L161.6161616161616,-500.38871401759593L165.65656565656568,-503.9015492036806L169.6969696969697,-506.9471869950622L173.73737373737373,-509.49519638568313L177.7777777777778,-511.52011850797237L181.8181818181818,-513.0017210094342L185.85858585858588,-513.9252002076265L189.8989898989899,-514.2813290036629L193.93939393939397,-514.0665490763338L197.97979797979798,-513.2830064356762L202.02020202020202,-511.9385299807508L206.06060606060606,-510.04655327587034L210.10101010101013,-507.62598032686594L214.14141414141415,-504.70099669850856L218.18181818181822,-501.3008278603421L222.22222222222223,-497.4594471754509L226.26262626262624,-493.2152364498469L230.3030303030303,-488.6106024341507L234.34343434343435,-483.6915531093575L238.3838383838384,-478.50723799029925L242.42424242424244,-473.10945703993866L246.4646464646465,-467.5521431012626L250.50505050505052,-461.89082301814267L254.5454545454546,-456.1820628294656L258.5858585858586,-450.4829025799718L262.62626262626264,-444.85028639498194L266.6666666666667,-439.3404935135212L270.7070707070707,-434.0085759647658L274.74747474747477,-428.9078085063652L278.7878787878788,-424.0891563206743L282.82828282828285,-419.6007657874977L286.8686868686869,-415.48748342137856L290.90909090909093,-411.7904077800483L294.949494949495,-408.5464788212248L298.989898989899,-405.78810881076413L303.030303030303,-403.54285847001495L307.0707070707071,-401.83316159820083L311.11111111111114,-400.6761009213143L315.1515151515152,-400.08323740716537L319.1919191919192,-400.060494752013L323.2323232323232,-400.6081001929497L327.27272727272725,-401.7205822374236L331.31313131313135,-403.3868253325844L335.3535353535354,-405.5901809282118L339.3939393939394,-408.30863382352686L343.4343434343434,-411.51502213580056L347.47474747474746,-415.1773086929078L351.51515151515156,-419.25890113816104L355.5555555555556,-423.7190175490422L359.5959595959596,-428.51309391669224L363.6363636363636,-433.5932294147567L367.67676767676767,-438.9086650086085L371.71717171717177,-444.40629062284313L375.75757575757575,-450.03117579959644L379.7979797979798,-455.72711854552244L383.83838383838383,-461.437206883532L387.87878787878793,-467.10438749845605L391.919191919192,-472.67203579491104L395.95959595959596,-478.0845216715388L400,-483.2877653585898L400,-312.4658240189424L395.95959595959596,-308.5633912536541L391.919191919192,-304.50402684618325L387.87878787878793,-300.328290623842L383.83838383838383,-296.077905162649L379.7979797979798,-291.79533890914183L375.75757575757575,-287.52338184969733L371.71717171717177,-283.3047179671323L367.67676767676767,-279.1814987564564L363.6363636363636,-275.19492206106753L359.5959595959596,-271.3848204375192L355.5555555555556,-267.7892631617816L351.51515151515156,-264.4441758536208L347.47474747474746,-261.3829815196808L343.4343434343434,-258.6362666018504L339.3939393939394,-256.23147536764515L335.3535353535354,-254.19263569615885L331.31313131313135,-252.5401189994383L327.27272727272725,-251.29043667806772L323.2323232323232,-250.45607514471226L319.1919191919192,-250.04537106400977L315.1515151515152,-250.06242805537403L311.11111111111114,-250.50707569098572L307.0707070707071,-251.37487119865062L303.030303030303,-252.6571438525112L298.989898989899,-254.3410816080731L294.949494949495,-256.4098591159186L290.90909090909093,-258.84280583503624L286.8686868686869,-261.6156125660339L282.82828282828285,-264.7005743406233L278.7878787878788,-268.06686724050576L274.74747474747477,-271.6808563797739L270.7070707070707,-275.5064319735743L266.6666666666667,-279.5053701351409L262.62626262626264,-283.6377147962364L258.5858585858586,-287.86217693497883L254.5454545454546,-292.1365471220992L250.50505050505052,-296.418117263607L246.4646464646465,-300.66410732594693L242.42424242424244,-304.832092779954L238.3838383838384,-308.88042849272443L234.34343434343435,-312.76866483201815L230.3030303030303,-316.457951825613L226.26262626262624,-319.91142733738513L222.22222222222223,-323.0945853815882L218.18181818181822,-325.9756208952566L214.14141414141415,-328.5257475238814L210.10101010101013,-330.7194852451495L206.06060606060606,-332.53491495690275L202.02020202020202,-333.95389748556306L197.97979797979798,-334.9622548267571L193.93939393939397,-335.54991180725034L189.8989898989899,-335.7109967527472L185.85858585858588,-335.4439001557199L181.8181818181818,-334.7512907570756L177.7777777777778,-333.6400888809793L173.73737373737373,-332.12139728926235L169.6969696969697,-330.2103902462967L165.65656565656568,-327.92616190276044L161.6161616161616,-325.29153551319695L157.5757575757576,-322.3328353935989L153.53535353535355,-319.0796238975451L149.4949494949495,-315.56440603893543L145.45454545454547,-311.82230471263654L141.41414141414143,-307.8907097581266L137.37373737373738,-303.80890437257847L133.33333333333334,-299.6176726061392L129.2929292929293,-295.358891861182L125.25252525252526,-291.07511446714466L121.21212121212122,-286.8091425117199L117.17171717171718,-282.60360017654364L113.13131313131312,-278.50050785046125L109.09090909090911,-274.54086227569303L105.05050505050507,-270.7642269219373L101.01010101010101,-267.20833668125897L96.96969696969698,-263.9087208335221L92.92929292929294,-260.8983480495691L88.8888888888889,-258.2072969791604L84.84848484848484,-255.86245571504827L80.8080808080808,-253.8872531360422L76.76767676767678,-252.30142481339652L72.72727272727273,-251.1208158195059L68.68686868686869,-250.35722240917988L64.64646464646465,-250.01827415536405L60.60606060606061,-250.10735771696915L56.56565656565656,-250.62358300049456L52.52525252525253,-251.5617920535489L48.48484848484849,-252.9126106014046L44.44444444444445,-254.66254171165278L40.4040404040404,-256.79410065109016L36.36363636363637,-259.2859895873936L32.323232323232325,-262.1133103900205L28.28282828282828,-265.2478134040989L24.242424242424246,-268.6581797116413L20.2020202020202,-272.31033405981987L16.161616161616163,-276.1677853296292L12.121212121212123,-280.1919911430855L8.080808080808081,-284.34274296592594L4.040404040404041,-288.57856785799305L0,-292.85714285714283Z"/>
     </g>
</svg>
