<svg xmlns="http://www.w3.org/2000/svg" xmlns:xlink="http://www.w3.org/1999/xlink" width="140" height="160">
     <path d="M0,120.0L35,120.0L70,120.0L105,120.0L140,120.0L140,160L105,160L70,160L35,160L0,160Z" fill="rgb(31,119,180)"/>
     <path d="M0,80.0L35,80.0L70,80.0L105,80.0L140,80.0L140,120.0L105,120.0L70,120.0L35,120.0L0,120.0Z" fill="rgb(174,199,232)"/>
     <path d="M0,40.0L35,40.0L70,40.0L105,40.0L140,40.0L140,80.0L105,80.0L70,80.0L35,80.0L0,80.0Z" fill="rgb(255,127,14)"/>
     <path d="M0,0.0L35,0.0L70,0.0L105,0.0L140,0.0L140,40.0L105,40.0L70,40.0L35,40.0L0,40.0Z" fill="rgb(255,187,120)"/>
</svg>
