<svg xmlns="http://www.w3.org/2000/svg" xmlns:xlink="http://www.w3.org/1999/xlink" width="140" height="200">
     <path d="M0,156L35,160L70,160L105,160L140,160L140,200L105,200L70,200L35,200L0,200Z" fill="rgb(31,119,180)"/>
     <path d="M0,116L35,120L70,120L105,120L140,120L140,160L105,160L70,160L35,160L0,156Z" fill="rgb(174,199,232)"/>
     <path d="M0,76L35,80L70,80L105,80L140,80L140,120L105,120L70,120L35,120L0,116Z" fill="rgb(174,199,232)"/>
     <path d="M0,36L35,40L70,40L105,40L140,40L140,80L105,80L70,80L35,80L0,76Z" fill="rgb(174,199,232)"/>
</svg>
