<svg xmlns="http://www.w3.org/2000/svg" xmlns:xlink="http://www.w3.org/1999/xlink" font-size="10px" font-family="sans-serif" width="600" height="600">
     <g transform="translate(0,0.0)">
          <g transform="translate(0.0,0)">
               <text dy=".35em" transform="translate(100.0,100.0)" fill="rgb(0,0,0)" text-anchor="middle" style="font:bold large Arial">a-a</text>
               <rect x="0.0" y="0.0" width="63.66666666666667" height="63.66666666666667" fill="rgb(31,119,180)"/>
               <rect x="66.66666666666667" y="0.0" width="63.66666666666667" height="63.66666666666667" fill="rgb(174,199,232)"/>
               <rect x="133.33333333333334" y="0.0" width="63.66666666666667" height="63.66666666666667" fill="rgb(255,127,14)"/>
               <rect x="0.0" y="66.66666666666667" width="63.66666666666667" height="63.66666666666667" fill="rgb(255,187,120)"/>
               <rect x="133.33333333333334" y="66.66666666666667" width="63.66666666666667" height="63.66666666666667" fill="rgb(44,160,44)"/>
               <rect x="0.0" y="133.33333333333334" width="63.66666666666667" height="63.66666666666667" fill="rgb(152,223,138)"/>
               <rect x="66.66666666666667" y="133.33333333333334" width="63.66666666666667" height="63.66666666666667" fill="rgb(214,39,40)"/>
               <rect x="133.33333333333334" y="133.33333333333334" width="63.66666666666667" height="63.66666666666667" fill="rgb(255,152,150)"/>
               <text x="0.0" y="0.0" dy=".35em" transform="translate(31.833333333333336,31.833333333333336)" fill="rgb(0,0,0)" text-anchor="middle">a-a-1</text>
               <text x="66.66666666666667" y="0.0" dy=".35em" transform="translate(31.833333333333336,31.833333333333336)" fill="rgb(0,0,0)" text-anchor="middle">a-a-2</text>
               <text x="133.33333333333334" y="0.0" dy=".35em" transform="translate(31.833333333333336,31.833333333333336)" fill="rgb(0,0,0)" text-anchor="middle">a-a-3</text>
               <text x="0.0" y="66.66666666666667" dy=".35em" transform="translate(31.833333333333336,31.833333333333336)" fill="rgb(0,0,0)" text-anchor="middle">a-a-4</text>
               <text x="133.33333333333334" y="66.66666666666667" dy=".35em" transform="translate(31.833333333333336,31.833333333333336)" fill="rgb(0,0,0)" text-anchor="middle">a-a-6</text>
               <text x="0.0" y="133.33333333333334" dy=".35em" transform="translate(31.833333333333336,31.833333333333336)" fill="rgb(0,0,0)" text-anchor="middle">a-a-7</text>
               <text x="66.66666666666667" y="133.33333333333334" dy=".35em" transform="translate(31.833333333333336,31.833333333333336)" fill="rgb(0,0,0)" text-anchor="middle">a-a-8</text>
               <text x="133.33333333333334" y="133.33333333333334" dy=".35em" transform="translate(31.833333333333336,31.833333333333336)" fill="rgb(0,0,0)" text-anchor="middle">a-a-9</text>
          </g>
          <g transform="translate(200.0,0)">
               <text dy=".35em" transform="translate(100.0,100.0)" fill="rgb(0,0,0)" text-anchor="middle" style="font:bold large Arial">a-b</text>
               <rect x="0.0" y="0.0" width="63.66666666666667" height="63.66666666666667" fill="rgb(31,119,180)"/>
               <rect x="66.66666666666667" y="0.0" width="63.66666666666667" height="63.66666666666667" fill="rgb(174,199,232)"/>
               <rect x="133.33333333333334" y="0.0" width="63.66666666666667" height="63.66666666666667" fill="rgb(255,127,14)"/>
               <rect x="0.0" y="66.66666666666667" width="63.66666666666667" height="63.66666666666667" fill="rgb(255,187,120)"/>
               <rect x="133.33333333333334" y="66.66666666666667" width="63.66666666666667" height="63.66666666666667" fill="rgb(44,160,44)"/>
               <rect x="0.0" y="133.33333333333334" width="63.66666666666667" height="63.66666666666667" fill="rgb(152,223,138)"/>
               <rect x="66.66666666666667" y="133.33333333333334" width="63.66666666666667" height="63.66666666666667" fill="rgb(214,39,40)"/>
               <rect x="133.33333333333334" y="133.33333333333334" width="63.66666666666667" height="63.66666666666667" fill="rgb(255,152,150)"/>
               <text x="0.0" y="0.0" dy=".35em" transform="translate(31.833333333333336,31.833333333333336)" fill="rgb(0,0,0)" text-anchor="middle">a-b-1</text>
               <text x="66.66666666666667" y="0.0" dy=".35em" transform="translate(31.833333333333336,31.833333333333336)" fill="rgb(0,0,0)" text-anchor="middle">a-b-2</text>
               <text x="133.33333333333334" y="0.0" dy=".35em" transform="translate(31.833333333333336,31.833333333333336)" fill="rgb(0,0,0)" text-anchor="middle">a-b-3</text>
               <text x="0.0" y="66.66666666666667" dy=".35em" transform="translate(31.833333333333336,31.833333333333336)" fill="rgb(0,0,0)" text-anchor="middle">a-b-4</text>
               <text x="133.33333333333334" y="66.66666666666667" dy=".35em" transform="translate(31.833333333333336,31.833333333333336)" fill="rgb(0,0,0)" text-anchor="middle">a-b-6</text>
               <text x="0.0" y="133.33333333333334" dy=".35em" transform="translate(31.833333333333336,31.833333333333336)" fill="rgb(0,0,0)" text-anchor="middle">a-b-7</text>
               <text x="66.66666666666667" y="133.33333333333334" dy=".35em" transform="translate(31.833333333333336,31.833333333333336)" fill="rgb(0,0,0)" text-anchor="middle">a-b-8</text>
               <text x="133.33333333333334" y="133.33333333333334" dy=".35em" transform="translate(31.833333333333336,31.833333333333336)" fill="rgb(0,0,0)" text-anchor="middle">a-b-9</text>
          </g>
          <g transform="translate(400.0,0)">
               <text dy=".35em" transform="translate(100.0,100.0)" fill="rgb(0,0,0)" text-anchor="middle" style="font:bold large Arial">a-c</text>
               <rect x="0.0" y="0.0" width="63.66666666666667" height="63.66666666666667" fill="rgb(31,119,180)"/>
               <rect x="66.66666666666667" y="0.0" width="63.66666666666667" height="63.66666666666667" fill="rgb(174,199,232)"/>
               <rect x="133.33333333333334" y="0.0" width="63.66666666666667" height="63.66666666666667" fill="rgb(255,127,14)"/>
               <rect x="0.0" y="66.66666666666667" width="63.66666666666667" height="63.66666666666667" fill="rgb(255,187,120)"/>
               <rect x="133.33333333333334" y="66.66666666666667" width="63.66666666666667" height="63.66666666666667" fill="rgb(44,160,44)"/>
               <rect x="0.0" y="133.33333333333334" width="63.66666666666667" height="63.66666666666667" fill="rgb(152,223,138)"/>
               <rect x="66.66666666666667" y="133.33333333333334" width="63.66666666666667" height="63.66666666666667" fill="rgb(214,39,40)"/>
               <rect x="133.33333333333334" y="133.33333333333334" width="63.66666666666667" height="63.66666666666667" fill="rgb(255,152,150)"/>
               <text x="0.0" y="0.0" dy=".35em" transform="translate(31.833333333333336,31.833333333333336)" fill="rgb(0,0,0)" text-anchor="middle">a-c-1</text>
               <text x="66.66666666666667" y="0.0" dy=".35em" transform="translate(31.833333333333336,31.833333333333336)" fill="rgb(0,0,0)" text-anchor="middle">a-c-2</text>
               <text x="133.33333333333334" y="0.0" dy=".35em" transform="translate(31.833333333333336,31.833333333333336)" fill="rgb(0,0,0)" text-anchor="middle">a-c-3</text>
               <text x="0.0" y="66.66666666666667" dy=".35em" transform="translate(31.833333333333336,31.833333333333336)" fill="rgb(0,0,0)" text-anchor="middle">a-c-4</text>
               <text x="133.33333333333334" y="66.66666666666667" dy=".35em" transform="translate(31.833333333333336,31.833333333333336)" fill="rgb(0,0,0)" text-anchor="middle">a-c-6</text>
               <text x="0.0" y="133.33333333333334" dy=".35em" transform="translate(31.833333333333336,31.833333333333336)" fill="rgb(0,0,0)" text-anchor="middle">a-c-7</text>
               <text x="66.66666666666667" y="133.33333333333334" dy=".35em" transform="translate(31.833333333333336,31.833333333333336)" fill="rgb(0,0,0)" text-anchor="middle">a-c-8</text>
               <text x="133.33333333333334" y="133.33333333333334" dy=".35em" transform="translate(31.833333333333336,31.833333333333336)" fill="rgb(0,0,0)" text-anchor="middle">a-c-9</text>
          </g>
     </g>
     <g transform="translate(0,200.0)">
          <g transform="translate(0.0,0)">
               <text dy=".35em" transform="translate(100.0,100.0)" fill="rgb(0,0,0)" text-anchor="middle" style="font:bold large Arial">b-a</text>
               <rect x="0.0" y="0.0" width="63.66666666666667" height="63.66666666666667" fill="rgb(31,119,180)"/>
               <rect x="66.66666666666667" y="0.0" width="63.66666666666667" height="63.66666666666667" fill="rgb(174,199,232)"/>
               <rect x="133.33333333333334" y="0.0" width="63.66666666666667" height="63.66666666666667" fill="rgb(255,127,14)"/>
               <rect x="0.0" y="66.66666666666667" width="63.66666666666667" height="63.66666666666667" fill="rgb(255,187,120)"/>
               <rect x="133.33333333333334" y="66.66666666666667" width="63.66666666666667" height="63.66666666666667" fill="rgb(44,160,44)"/>
               <rect x="0.0" y="133.33333333333334" width="63.66666666666667" height="63.66666666666667" fill="rgb(152,223,138)"/>
               <rect x="66.66666666666667" y="133.33333333333334" width="63.66666666666667" height="63.66666666666667" fill="rgb(214,39,40)"/>
               <rect x="133.33333333333334" y="133.33333333333334" width="63.66666666666667" height="63.66666666666667" fill="rgb(255,152,150)"/>
               <text x="0.0" y="0.0" dy=".35em" transform="translate(31.833333333333336,31.833333333333336)" fill="rgb(0,0,0)" text-anchor="middle">b-a-1</text>
               <text x="66.66666666666667" y="0.0" dy=".35em" transform="translate(31.833333333333336,31.833333333333336)" fill="rgb(0,0,0)" text-anchor="middle">b-a-2</text>
               <text x="133.33333333333334" y="0.0" dy=".35em" transform="translate(31.833333333333336,31.833333333333336)" fill="rgb(0,0,0)" text-anchor="middle">b-a-3</text>
               <text x="0.0" y="66.66666666666667" dy=".35em" transform="translate(31.833333333333336,31.833333333333336)" fill="rgb(0,0,0)" text-anchor="middle">b-a-4</text>
               <text x="133.33333333333334" y="66.66666666666667" dy=".35em" transform="translate(31.833333333333336,31.833333333333336)" fill="rgb(0,0,0)" text-anchor="middle">b-a-6</text>
               <text x="0.0" y="133.33333333333334" dy=".35em" transform="translate(31.833333333333336,31.833333333333336)" fill="rgb(0,0,0)" text-anchor="middle">b-a-7</text>
               <text x="66.66666666666667" y="133.33333333333334" dy=".35em" transform="translate(31.833333333333336,31.833333333333336)" fill="rgb(0,0,0)" text-anchor="middle">b-a-8</text>
               <text x="133.33333333333334" y="133.33333333333334" dy=".35em" transform="translate(31.833333333333336,31.833333333333336)" fill="rgb(0,0,0)" text-anchor="middle">b-a-9</text>
          </g>
          <g transform="translate(200.0,0)">
               <text dy=".35em" transform="translate(100.0,100.0)" fill="rgb(0,0,0)" text-anchor="middle" style="font:bold large Arial">b-b</text>
               <rect x="0.0" y="0.0" width="63.66666666666667" height="63.66666666666667" fill="rgb(31,119,180)"/>
               <rect x="66.66666666666667" y="0.0" width="63.66666666666667" height="63.66666666666667" fill="rgb(174,199,232)"/>
               <rect x="133.33333333333334" y="0.0" width="63.66666666666667" height="63.66666666666667" fill="rgb(255,127,14)"/>
               <rect x="0.0" y="66.66666666666667" width="63.66666666666667" height="63.66666666666667" fill="rgb(255,187,120)"/>
               <rect x="133.33333333333334" y="66.66666666666667" width="63.66666666666667" height="63.66666666666667" fill="rgb(44,160,44)"/>
               <rect x="0.0" y="133.33333333333334" width="63.66666666666667" height="63.66666666666667" fill="rgb(152,223,138)"/>
               <rect x="66.66666666666667" y="133.33333333333334" width="63.66666666666667" height="63.66666666666667" fill="rgb(214,39,40)"/>
               <rect x="133.33333333333334" y="133.33333333333334" width="63.66666666666667" height="63.66666666666667" fill="rgb(255,152,150)"/>
               <text x="0.0" y="0.0" dy=".35em" transform="translate(31.833333333333336,31.833333333333336)" fill="rgb(0,0,0)" text-anchor="middle">b-b-1</text>
               <text x="66.66666666666667" y="0.0" dy=".35em" transform="translate(31.833333333333336,31.833333333333336)" fill="rgb(0,0,0)" text-anchor="middle">b-b-2</text>
               <text x="133.33333333333334" y="0.0" dy=".35em" transform="translate(31.833333333333336,31.833333333333336)" fill="rgb(0,0,0)" text-anchor="middle">b-b-3</text>
               <text x="0.0" y="66.66666666666667" dy=".35em" transform="translate(31.833333333333336,31.833333333333336)" fill="rgb(0,0,0)" text-anchor="middle">b-b-4</text>
               <text x="133.33333333333334" y="66.66666666666667" dy=".35em" transform="translate(31.833333333333336,31.833333333333336)" fill="rgb(0,0,0)" text-anchor="middle">b-b-6</text>
               <text x="0.0" y="133.33333333333334" dy=".35em" transform="translate(31.833333333333336,31.833333333333336)" fill="rgb(0,0,0)" text-anchor="middle">b-b-7</text>
               <text x="66.66666666666667" y="133.33333333333334" dy=".35em" transform="translate(31.833333333333336,31.833333333333336)" fill="rgb(0,0,0)" text-anchor="middle">b-b-8</text>
               <text x="133.33333333333334" y="133.33333333333334" dy=".35em" transform="translate(31.833333333333336,31.833333333333336)" fill="rgb(0,0,0)" text-anchor="middle">b-b-9</text>
          </g>
          <g transform="translate(400.0,0)">
               <text dy=".35em" transform="translate(100.0,100.0)" fill="rgb(0,0,0)" text-anchor="middle" style="font:bold large Arial">b-c</text>
               <rect x="0.0" y="0.0" width="63.66666666666667" height="63.66666666666667" fill="rgb(31,119,180)"/>
               <rect x="66.66666666666667" y="0.0" width="63.66666666666667" height="63.66666666666667" fill="rgb(174,199,232)"/>
               <rect x="133.33333333333334" y="0.0" width="63.66666666666667" height="63.66666666666667" fill="rgb(255,127,14)"/>
               <rect x="0.0" y="66.66666666666667" width="63.66666666666667" height="63.66666666666667" fill="rgb(255,187,120)"/>
               <rect x="133.33333333333334" y="66.66666666666667" width="63.66666666666667" height="63.66666666666667" fill="rgb(44,160,44)"/>
               <rect x="0.0" y="133.33333333333334" width="63.66666666666667" height="63.66666666666667" fill="rgb(152,223,138)"/>
               <rect x="66.66666666666667" y="133.33333333333334" width="63.66666666666667" height="63.66666666666667" fill="rgb(214,39,40)"/>
               <rect x="133.33333333333334" y="133.33333333333334" width="63.66666666666667" height="63.66666666666667" fill="rgb(255,152,150)"/>
               <text x="0.0" y="0.0" dy=".35em" transform="translate(31.833333333333336,31.833333333333336)" fill="rgb(0,0,0)" text-anchor="middle">b-c-1</text>
               <text x="66.66666666666667" y="0.0" dy=".35em" transform="translate(31.833333333333336,31.833333333333336)" fill="rgb(0,0,0)" text-anchor="middle">b-c-2</text>
               <text x="133.33333333333334" y="0.0" dy=".35em" transform="translate(31.833333333333336,31.833333333333336)" fill="rgb(0,0,0)" text-anchor="middle">b-c-3</text>
               <text x="0.0" y="66.66666666666667" dy=".35em" transform="translate(31.833333333333336,31.833333333333336)" fill="rgb(0,0,0)" text-anchor="middle">b-c-4</text>
               <text x="133.33333333333334" y="66.66666666666667" dy=".35em" transform="translate(31.833333333333336,31.833333333333336)" fill="rgb(0,0,0)" text-anchor="middle">b-c-6</text>
               <text x="0.0" y="133.33333333333334" dy=".35em" transform="translate(31.833333333333336,31.833333333333336)" fill="rgb(0,0,0)" text-anchor="middle">b-c-7</text>
               <text x="66.66666666666667" y="133.33333333333334" dy=".35em" transform="translate(31.833333333333336,31.833333333333336)" fill="rgb(0,0,0)" text-anchor="middle">b-c-8</text>
               <text x="133.33333333333334" y="133.33333333333334" dy=".35em" transform="translate(31.833333333333336,31.833333333333336)" fill="rgb(0,0,0)" text-anchor="middle">b-c-9</text>
          </g>
     </g>
     <g transform="translate(0,400.0)">
          <g transform="translate(0.0,0)">
               <text dy=".35em" transform="translate(100.0,100.0)" fill="rgb(0,0,0)" text-anchor="middle" style="font:bold large Arial">c-a</text>
               <rect x="0.0" y="0.0" width="63.66666666666667" height="63.66666666666667" fill="rgb(31,119,180)"/>
               <rect x="66.66666666666667" y="0.0" width="63.66666666666667" height="63.66666666666667" fill="rgb(174,199,232)"/>
               <rect x="133.33333333333334" y="0.0" width="63.66666666666667" height="63.66666666666667" fill="rgb(255,127,14)"/>
               <rect x="0.0" y="66.66666666666667" width="63.66666666666667" height="63.66666666666667" fill="rgb(255,187,120)"/>
               <rect x="133.33333333333334" y="66.66666666666667" width="63.66666666666667" height="63.66666666666667" fill="rgb(44,160,44)"/>
               <rect x="0.0" y="133.33333333333334" width="63.66666666666667" height="63.66666666666667" fill="rgb(152,223,138)"/>
               <rect x="66.66666666666667" y="133.33333333333334" width="63.66666666666667" height="63.66666666666667" fill="rgb(214,39,40)"/>
               <rect x="133.33333333333334" y="133.33333333333334" width="63.66666666666667" height="63.66666666666667" fill="rgb(255,152,150)"/>
               <text x="0.0" y="0.0" dy=".35em" transform="translate(31.833333333333336,31.833333333333336)" fill="rgb(0,0,0)" text-anchor="middle">c-a-1</text>
               <text x="66.66666666666667" y="0.0" dy=".35em" transform="translate(31.833333333333336,31.833333333333336)" fill="rgb(0,0,0)" text-anchor="middle">c-a-2</text>
               <text x="133.33333333333334" y="0.0" dy=".35em" transform="translate(31.833333333333336,31.833333333333336)" fill="rgb(0,0,0)" text-anchor="middle">c-a-3</text>
               <text x="0.0" y="66.66666666666667" dy=".35em" transform="translate(31.833333333333336,31.833333333333336)" fill="rgb(0,0,0)" text-anchor="middle">c-a-4</text>
               <text x="133.33333333333334" y="66.66666666666667" dy=".35em" transform="translate(31.833333333333336,31.833333333333336)" fill="rgb(0,0,0)" text-anchor="middle">c-a-6</text>
               <text x="0.0" y="133.33333333333334" dy=".35em" transform="translate(31.833333333333336,31.833333333333336)" fill="rgb(0,0,0)" text-anchor="middle">c-a-7</text>
               <text x="66.66666666666667" y="133.33333333333334" dy=".35em" transform="translate(31.833333333333336,31.833333333333336)" fill="rgb(0,0,0)" text-anchor="middle">c-a-8</text>
               <text x="133.33333333333334" y="133.33333333333334" dy=".35em" transform="translate(31.833333333333336,31.833333333333336)" fill="rgb(0,0,0)" text-anchor="middle">c-a-9</text>
          </g>
          <g transform="translate(200.0,0)">
               <text dy=".35em" transform="translate(100.0,100.0)" fill="rgb(0,0,0)" text-anchor="middle" style="font:bold large Arial">c-b</text>
               <rect x="0.0" y="0.0" width="63.66666666666667" height="63.66666666666667" fill="rgb(31,119,180)"/>
               <rect x="66.66666666666667" y="0.0" width="63.66666666666667" height="63.66666666666667" fill="rgb(174,199,232)"/>
               <rect x="133.33333333333334" y="0.0" width="63.66666666666667" height="63.66666666666667" fill="rgb(255,127,14)"/>
               <rect x="0.0" y="66.66666666666667" width="63.66666666666667" height="63.66666666666667" fill="rgb(255,187,120)"/>
               <rect x="133.33333333333334" y="66.66666666666667" width="63.66666666666667" height="63.66666666666667" fill="rgb(44,160,44)"/>
               <rect x="0.0" y="133.33333333333334" width="63.66666666666667" height="63.66666666666667" fill="rgb(152,223,138)"/>
               <rect x="66.66666666666667" y="133.33333333333334" width="63.66666666666667" height="63.66666666666667" fill="rgb(214,39,40)"/>
               <rect x="133.33333333333334" y="133.33333333333334" width="63.66666666666667" height="63.66666666666667" fill="rgb(255,152,150)"/>
               <text x="0.0" y="0.0" dy=".35em" transform="translate(31.833333333333336,31.833333333333336)" fill="rgb(0,0,0)" text-anchor="middle">c-b-1</text>
               <text x="66.66666666666667" y="0.0" dy=".35em" transform="translate(31.833333333333336,31.833333333333336)" fill="rgb(0,0,0)" text-anchor="middle">c-b-2</text>
               <text x="133.33333333333334" y="0.0" dy=".35em" transform="translate(31.833333333333336,31.833333333333336)" fill="rgb(0,0,0)" text-anchor="middle">c-b-3</text>
               <text x="0.0" y="66.66666666666667" dy=".35em" transform="translate(31.833333333333336,31.833333333333336)" fill="rgb(0,0,0)" text-anchor="middle">c-b-4</text>
               <text x="133.33333333333334" y="66.66666666666667" dy=".35em" transform="translate(31.833333333333336,31.833333333333336)" fill="rgb(0,0,0)" text-anchor="middle">c-b-6</text>
               <text x="0.0" y="133.33333333333334" dy=".35em" transform="translate(31.833333333333336,31.833333333333336)" fill="rgb(0,0,0)" text-anchor="middle">c-b-7</text>
               <text x="66.66666666666667" y="133.33333333333334" dy=".35em" transform="translate(31.833333333333336,31.833333333333336)" fill="rgb(0,0,0)" text-anchor="middle">c-b-8</text>
               <text x="133.33333333333334" y="133.33333333333334" dy=".35em" transform="translate(31.833333333333336,31.833333333333336)" fill="rgb(0,0,0)" text-anchor="middle">c-b-9</text>
          </g>
          <g transform="translate(400.0,0)">
               <text dy=".35em" transform="translate(100.0,100.0)" fill="rgb(0,0,0)" text-anchor="middle" style="font:bold large Arial">c-c</text>
               <rect x="0.0" y="0.0" width="63.66666666666667" height="63.66666666666667" fill="rgb(31,119,180)"/>
               <rect x="66.66666666666667" y="0.0" width="63.66666666666667" height="63.66666666666667" fill="rgb(174,199,232)"/>
               <rect x="133.33333333333334" y="0.0" width="63.66666666666667" height="63.66666666666667" fill="rgb(255,127,14)"/>
               <rect x="0.0" y="66.66666666666667" width="63.66666666666667" height="63.66666666666667" fill="rgb(255,187,120)"/>
               <rect x="133.33333333333334" y="66.66666666666667" width="63.66666666666667" height="63.66666666666667" fill="rgb(44,160,44)"/>
               <rect x="0.0" y="133.33333333333334" width="63.66666666666667" height="63.66666666666667" fill="rgb(152,223,138)"/>
               <rect x="66.66666666666667" y="133.33333333333334" width="63.66666666666667" height="63.66666666666667" fill="rgb(214,39,40)"/>
               <rect x="133.33333333333334" y="133.33333333333334" width="63.66666666666667" height="63.66666666666667" fill="rgb(255,152,150)"/>
               <text x="0.0" y="0.0" dy=".35em" transform="translate(31.833333333333336,31.833333333333336)" fill="rgb(0,0,0)" text-anchor="middle">c-c-1</text>
               <text x="66.66666666666667" y="0.0" dy=".35em" transform="translate(31.833333333333336,31.833333333333336)" fill="rgb(0,0,0)" text-anchor="middle">c-c-2</text>
               <text x="133.33333333333334" y="0.0" dy=".35em" transform="translate(31.833333333333336,31.833333333333336)" fill="rgb(0,0,0)" text-anchor="middle">c-c-3</text>
               <text x="0.0" y="66.66666666666667" dy=".35em" transform="translate(31.833333333333336,31.833333333333336)" fill="rgb(0,0,0)" text-anchor="middle">c-c-4</text>
               <text x="133.33333333333334" y="66.66666666666667" dy=".35em" transform="translate(31.833333333333336,31.833333333333336)" fill="rgb(0,0,0)" text-anchor="middle">c-c-6</text>
               <text x="0.0" y="133.33333333333334" dy=".35em" transform="translate(31.833333333333336,31.833333333333336)" fill="rgb(0,0,0)" text-anchor="middle">c-c-7</text>
               <text x="66.66666666666667" y="133.33333333333334" dy=".35em" transform="translate(31.833333333333336,31.833333333333336)" fill="rgb(0,0,0)" text-anchor="middle">c-c-8</text>
               <text x="133.33333333333334" y="133.33333333333334" dy=".35em" transform="translate(31.833333333333336,31.833333333333336)" fill="rgb(0,0,0)" text-anchor="middle">c-c-9</text>
          </g>
     </g>
</svg>
