<svg width="960" height="960"><g transform="translate(480,480)"><path class="area" d="M2.3512441993389643e-14,-384L6.920136701091393,-396.4543660851341L14.264169739856836,-408.47237754103946L21.99780935161698,-419.7432070687884L30.0666320392421,-429.97287025656226L38.398078552398275,-438.89204617945103L46.90415414913326,-446.2632169918903L55.48473827337977,-451.8869299639057L64.03138953355102,-455.607010369218L72.43151435044658,-457.31458344033905L80.57275443745571,-456.95079739766453L88.34743982572004,-454.5081763561031L95.6569507433135,-450.0305706478898L102.4158334315191,-443.6117116533294L108.55552189839503,-435.3924174601158L114.02752947074552,-425.55653344637983L118.80599045213769,-414.3257271176101L122.88945272047322,-401.95328821484276L126.30184606498192,-388.71711234903785L129.09257771767946,-374.91206843489607L131.33573503705682,-360.8419663817888L133.1284047474207,-346.81135140763587L134.58814758607642,-333.1173547159498L135.84969571694973,-320.04182705121303L137.06096691175506,-307.8439719506708L138.378513410019,-296.7536796576105L139.96254375932588,-286.9657411469562L141.97167212498806,-278.6350951966343L144.55756098955882,-271.8732307189797L147.8596294285404,-266.74583256582275L152,-263.2717227504694L157.07885264136283,-261.4231115621805L163.17034391680485,-261.12713548556616L170.31923476368672,-262.2686222763119L178.53834996943047,-264.69398904734544L187.8069685449906,-268.21614777980733L198.07021665530758,-272.6202651881737L209.23950464146134,-277.670201112871L221.19401783244632,-283.1154322158063L233.78323826611438,-288.698256180381L246.83044211963113,-294.16106615768757L260.13708659115025,-299.25348596097535L273.4879711475056,-303.7391634116649L286.65703236850544,-307.4020320205178L299.41360989924056,-310.05186941212776L311.5290039756343,-311.5290039756342L322.78313318638203,-311.7080484151459L332.971094992321,-310.5005693281157L341.9094312890234,-307.85663471621115L349.441907039263,-303.7652154264421L355.4446216072058,-298.2534508945542L359.83028960520875,-291.3848231822334L362.5515503552474,-283.2563151602812L363.6031918502119,-273.9946578490305L363.02320561497777,-263.75179753211586L360.89262223413846,-252.69973457261287L357.3341125606724,-241.02490228050385L352.50937571171426,-228.92226526050132L346.61537082484006,-216.589322129129L339.87948412043613,-204.2201972233732L332.55375505322445,-192.00000000000003L324.90831426152846,-180.09961948742603L317.2242107509591,-168.67110480765365L309.78582551333545,-157.84376199168494L302.8730829578459,-147.72107275795304L296.7536796576105,-138.37851341001897L291.6755517054065,-129.86232242244014L287.8597973278826,-122.18923456488699L285.49426041849426,-115.34716853448366L284.7279635941957,-109.29682499268489L285.6665567189162,-103.97412357100332L288.3689191952922,-99.29338169343531L292.84502248234105,-95.15111574828087L299.05512415577124,-91.4303269018482L306.9103273958518,-88.00512022248553L316.2745011436246,-84.74549716799038L326.96751742858703,-81.52215811506244L338.7697246660821,-78.21115354176347L351.4275401510753,-74.69822961066615L364.6600125789763,-70.88272597526574L378.1661771566878,-66.68090022410125L391.6330025635308,-62.028573923642504L404.7437113750032,-56.88301903718674L417.18624410212436,-51.22402979681128L428.66163207577125,-45.05415302706067L438.89204617945103,-38.398078552398346L447.62829687078874,-31.30121973587744L454.65657580283795,-23.827541474258457L459.8042502443019,-16.056718234107176L462.9445478102054,-8.080727140191476L464,0L462.94454781020545,8.080727140191476L459.80425024430195,16.056718234107077L454.65657580283795,23.827541474258457L447.6282968707887,31.301219735877538L438.8920461794511,38.398078552398346L428.6616320757713,45.05415302706068L417.1862441021245,51.224029796811294L404.7437113750033,56.883019037186656L391.63300256353074,62.0285739236426L378.1661771566879,66.68090022410126L364.6600125789764,70.88272597526576L351.42754015107545,74.69822961066617L338.76972466608197,78.21115354176335L326.9675174285871,81.52215811506245L316.27450114362466,84.74549716799048L306.9103273958519,88.00512022248557L299.05512415577135,91.43032690184823L292.84502248234105,95.15111574828087L288.3689191952923,99.29338169343526L285.6665567189162,103.97412357100332L284.72796359419567,109.29682499268493L285.49426041849426,115.34716853448366L287.8597973278826,122.18923456488699L291.67555170540663,129.86232242244012L296.75367965761046,138.37851341001897L302.8730829578458,147.72107275795307L309.78582551333517,157.84376199168477L317.2242107509592,168.6711048076536L324.9083142615283,180.09961948742594L332.5537550532244,191.99999999999991L339.8794841204362,204.22019722337322L346.61537082483994,216.5893221291289L352.5093757117143,228.92226526050146L357.3341125606724,241.02490228050382L360.89262223413846,252.69973457261273L363.02320561497766,263.7517975321158L363.60319185021183,273.99465784903055L362.5515503552474,283.2563151602812L359.83028960520875,291.3848231822333L355.4446216072058,298.25345089455425L349.4419070392631,303.76521542644207L341.90943128902353,307.85663471621103L332.97109499232107,310.5005693281158L322.783133186382,311.7080484151459L311.52900397563434,311.5290039756343L299.41360989924067,310.0518694121277L286.65703236850555,307.402032020518L273.48797114750545,303.73916341166495L260.13708659115036,299.25348596097547L246.8304421196312,294.16106615768757L233.78323826611432,288.69825618038107L221.19401783244643,283.11543221580644L209.2395046414613,277.67020111287087L198.0702166553076,272.62026518817373L187.80696854499055,268.21614777980733L178.53834996943056,264.69398904734555L170.31923476368678,262.26862227631193L163.17034391680485,261.12713548556616L157.07885264136283,261.4231115621805L152,263.2717227504694L147.85962942854036,266.7458325658227L144.55756098955877,271.87323071897976L141.97167212498806,278.6350951966343L139.96254375932597,286.9657411469562L138.37851341001894,296.7536796576104L137.06096691175495,307.8439719506708L135.8496957169496,320.0418270512127L134.58814758607645,333.11735471594983L133.12840474742072,346.8113514076357L131.33573503705682,360.8419663817887L129.09257771767935,374.91206843489607L126.30184606498187,388.71711234903773L122.88945272047334,401.95328821484287L118.8059904521376,414.3257271176098L114.02752947074562,425.5565334463798L108.55552189839504,435.39241746011584L102.41583343151909,443.61171165332934L95.6569507433134,450.0305706478899L88.34743982572004,454.5081763561031L80.57275443745581,456.95079739766453L72.43151435044658,457.31458344033905L64.03138953355092,455.607010369218L55.48473827337977,451.8869299639057L46.90415414913337,446.2632169918904L38.39807855239828,438.8920461794511L30.066632039242094,429.97287025656215L21.997809351617086,419.74320706878865L14.264169739856834,408.4723775410394L6.920136701091307,396.4543660851342L2.351244199338965e-14,384.0000000000001L-6.483311442742283,371.42866379497445L-12.538643727663956,359.0597776096263L-18.19620504296386,347.20427562272425L-23.50633979624608,336.15632034298307L-28.537531877803143,326.18548195500966L-33.37370564042463,317.5295986509436L-38.110917461773624,310.38851449662974L-42.8535520037793,304.918866424308L-47.71015480045075,301.2300621367268L-52.78904601074689,299.3815569157113L-58.19386862346642,299.38150053170284L-64.01922780472566,301.1867867156729L-70.34657630456931,304.70449810173136L-77.2404939221497,309.7947003198495L-84.74549716799028,316.2745011436246L-92.88349881531755,323.923255363019L-101.65201650658858,332.48876436476826L-111.02320561497785,341.69429216564004L-120.94376490541693,351.24619762537907L-131.33573503705674,360.8419663817887L-142.09818050337006,370.17841614221504L-153.10971615734402,378.95984559134274L-164.23181096281252,386.9059004002614L-175.31277497045926,393.7589395188465L-186.19231160683805,399.29070078653655L-196.70649697468556,403.3080864108043L-206.69303167498362,405.65791538003225L-215.9965992300052,406.2305205966762L-224.47415892064666,404.9621025172331L-232.0000000000001,401.83578735597945L-238.47038888955888,396.88137537704176L-243.8076510142965,390.1738023625692L-247.96354412785405,381.8303739057737L-250.9217998961031,372.00686667492675L-252.69973457261275,360.89262223413857L-253.3488571053118,348.704786491786L-252.9544331393117,335.68187060345L-251.63399521765905,322.07682655415624L-249.53482206016102,308.149842218573L-246.83044211963136,294.16106615768786L-243.71624767355928,280.3634716501133L-240.40433453609768,266.996062554974L-237.1177081594935,254.27761082300526L-234.08401861326945,242.4010972479564L-231.52900397563425,231.5290039756343L-229.66983347370197,221.78958009736408L-228.70854785120213,213.2741711998833L-228.82579467761525,206.035670967392L-230.1750505718258,200.08811883826763L-232.87751070816932,195.40743334470804L-237.01780879374502,191.93323714404167L-242.64070841471508,189.5716978898243L-249.74887986610906,188.1992799317426L-258.30184606498165,187.6672762285034L-268.2161477798073,187.80696854499072L-279.3667431615997,188.4352475850299L-291.58962047037124,189.36051363103928L-304.685567023295,190.3886728019723L-318.42500281878586,191.32904430754843L-332.5537550532243,192.00000000000006L-346.7996208215274,192.23416886176108L-360.8795405646968,191.88305541191048L-374.50718506333124,190.82094180828713L-387.4007445999141,188.9479679760584L-399.29070078653655,186.19231160683793L-409.92735976411115,182.51141945977443L-419.0879301235916,177.89227211487523L-426.58293988879836,172.35069520893688L-432.2618039556552,165.92976025810586L-436.01737604466143,158.69734650311057L-437.78934686498303,150.74296092966097L-437.56638203233695,142.1739359316788L-435.3869284238399,133.1111423252137L-431.3386550847773,123.6843690449697L-425.5565334463799,114.02752947074546L-418.2196003513784,104.27385770548236L-409.54648508897867,94.551256194325L-399.7898172124875,84.97794893737313L-389.22966430883014,75.65858247392067L-378.16617715668775,66.68090022410121L-366.9116430135348,58.11309522725481L-355.78216541852294,50.001922500143635L-345.08920035841123,42.37162593834217L-335.1311835670627,35.22370676249741L-326.18548195500966,28.5375318778032L-318.50089372875635,22.27175209961081L-312.290906888675,16.366472920322305L-307.7279049063636,10.746095233413506L-304.93848206990316,5.322721003642251L-304.00000000000006,3.7228033156200275e-14L-304.93848206990305,-5.322721003642174L-307.7279049063636,-10.74609523341343L-312.2909068886748,-16.366472920322217L-318.500893728756,-22.27175209961071L-326.18548195500966,-28.53753187780312L-335.13118356706275,-35.22370676249733L-345.08920035841066,-42.371625938342014L-355.7821654185225,-50.001922500143486L-366.91164301353484,-58.113095227254725L-378.1661771566878,-66.68090022410111L-389.2296643088297,-75.65858247392049L-399.7898172124875,-84.97794893737304L-409.5464850889787,-94.5512561943249L-418.21960035137795,-104.27385770548216L-425.5565334463796,-114.02752947074528L-431.3386550847773,-123.6843690449696L-435.3869284238399,-133.1111423252136L-437.56638203233683,-142.17393593167864L-437.7893468649831,-150.74296092966085L-436.01737604466143,-158.69734650311042L-432.26180395565524,-165.92976025810574L-426.5829398887986,-172.35069520893686L-419.0879301235916,-177.8922721148751L-409.9273597641112,-182.51141945977434L-399.29070078653695,-186.192311606838L-387.4007445999145,-188.9479679760585L-374.5071850633313,-190.82094180828705L-360.8795405646968,-191.88305541191036L-346.799620821528,-192.23416886176125L-332.5537550532248,-192.00000000000028L-318.4250028187859,-191.32904430754834L-304.68556702329545,-190.38867280197252L-291.5896204703717,-189.36051363103948L-279.3667431615997,-188.43524758502986L-268.2161477798074,-187.80696854499064L-258.301846064982,-187.6672762285035L-249.74887986610932,-188.19927993174275L-242.64070841471505,-189.57169788982418L-237.01780879374513,-191.93323714404167L-232.87751070816935,-195.40743334470798L-230.17505057182584,-200.08811883826738L-228.8257946776152,-206.03567096739206L-228.70854785120187,-213.27417119988314L-229.66983347370174,-221.78958009736382L-231.52900397563434,-231.52900397563425L-234.08401861326954,-242.4010972479563L-237.11770815949333,-254.27761082300472L-240.40433453609754,-266.99606255497343L-243.7162476735592,-280.3634716501134L-246.83044211963107,-294.1610661576874L-249.53482206016068,-308.14984221857264L-251.63399521765916,-322.0768265541562L-252.95443313931148,-335.68187060344957L-253.34885710531165,-348.7047864917857L-252.6997345726128,-360.8926222341381L-250.92179989610335,-372.0068666749266L-247.96354412785414,-381.8303739057739L-243.80765101429648,-390.17380236256884L-238.470388889559,-396.88137537704165L-232.0000000000002,-401.8357873559794L-224.47415892064677,-404.96210251723306L-215.99659923000527,-406.2305205966761L-206.693031674984,-405.6579153800323L-196.7064969746858,-403.30808641080415L-186.19231160683813,-399.2907007865369L-175.31277497045951,-393.75893951884683L-164.2318109628124,-386.9059004002608L-153.1097161573444,-378.9598455913435L-142.09818050337034,-370.17841614221555L-131.335735037057,-360.84196638178867L-120.94376490541686,-351.2461976253791L-111.0232056149777,-341.6942921656398L-101.65201650658898,-332.48876436476917L-92.88349881531762,-323.923255363019L-84.7454971679904,-316.2745011436247L-77.2404939221498,-309.7947003198496L-70.34657630456937,-304.7044981017313L-64.0192278047259,-301.186786715673L-58.19386862346637,-299.3815005317029L-52.78904601074683,-299.3815569157113L-47.7101548004508,-301.2300621367267L-42.85355200377938,-304.9188664243081L-38.11091746177365,-310.38851449662934L-33.37370564042482,-317.5295986509433L-28.537531877803218,-326.18548195500966L-23.506339796246298,-336.15632034298284L-18.196205042963808,-347.20427562272454L-12.53864372766387,-359.05977760962577L-6.4833114427423695,-371.4286637949742L-7.05373259801689e-14,-383.9999999999999L-4.408582873760558e-14,-240L-4.188577544948039,-239.9634468375339L-8.375879208600182,-239.853798484583L-12.560629498306422,-239.67108834109774L-16.74155369859014,-239.41537206235782L-20.91737825943798,-239.08672754201893L-25.086831184237017,-238.6852548883856L-29.24864241723553,-238.21107639391727L-33.4015442304158,-237.66433649797685L-37.544271609655446,-237.04520174283303L-41.675562640063276,-236.35386072292994L-45.79415889037071,-235.59052402743936L-49.89880579626235,-234.75542417611334L-53.98825304252766,-233.84881554845643L-58.06125494392027,-232.87097430623916L-62.11657082460495,-231.8221983093764L-66.15296539607974,-230.70280702519656L-70.1692091334569,-229.51314143112847L-74.16407864998742,-228.25356391083685L-78.13635706971759,-226.92445814383603L-82.08483439816065,-225.52622898861796L-86.00830789087217,-224.0593023593284L-89.90558241981896,-222.52412509602897L-93.77547083742571,-220.92116482858566L-97.61679433819202,-219.25090983422425L-101.4283828177678,-217.51386888879603L-105.20907522937866,-215.71057111180005L-108.95771993749126,-213.84156580520826L-112.67317506861377,-211.9074222861425L-116.35430885912103,-209.90872971345493L-120.00000000000011,-207.84609690826522L-123.60913797841307,-205.7201521685069L-127.18062341596921,-203.53154307754224L-130.71336840360647,-201.28093630690176L-134.20629683297935,-198.96901741320994L-137.65834472425112,-196.596490629358L-141.06846055019358,-194.16407864998737L-144.4356055564916,-191.6725224113503L-147.75875407815795,-189.12258086561332L-151.0368938519609,-186.51503074967306L-154.26902632476947,-183.85066634855468L-157.45416695772175,-181.1302992534653L-160.5913455261261,-178.35475811457448L-163.67960641499974,-175.52488838860083L-166.71800891015943,-172.64155208127622L-169.70562748477144,-169.70562748477138L-172.64155208127625,-166.71800891015937L-175.52488838860089,-163.67960641499968L-178.35475811457454,-160.59134552612605L-181.1302992534653,-157.4541669577217L-183.8506663485547,-154.2690263247694L-186.51503074967312,-151.03689385196083L-189.12258086561334,-147.7587540781579L-191.67252241135034,-144.43560555649154L-194.1640786499874,-141.06846055019352L-196.59649062935804,-137.65834472425107L-198.96901741320997,-134.2062968329793L-201.28093630690182,-130.7133684036064L-203.53154307754227,-127.18062341596915L-205.72015216850696,-123.609137978413L-207.84609690826525,-120.00000000000003L-209.90872971345496,-116.35430885912096L-211.9074222861425,-112.67317506861372L-213.8415658052083,-108.9577199374912L-215.71057111180005,-105.20907522937858L-217.51386888879605,-101.42838281776773L-219.25090983422427,-97.61679433819195L-220.9211648285857,-93.77547083742566L-222.52412509602897,-89.90558241981888L-224.05930235932843,-86.0083078908721L-225.526228988618,-82.08483439816057L-226.92445814383606,-78.13635706971753L-228.25356391083687,-74.16407864998735L-229.5131414311285,-70.16920913345683L-230.70280702519656,-66.15296539607967L-231.82219830937643,-62.116570824604885L-232.87097430623916,-58.061254943920204L-233.84881554845646,-53.988253042527596L-234.75542417611334,-49.89880579626228L-235.5905240274394,-45.79415889037063L-236.35386072292994,-41.675562640063205L-237.04520174283306,-37.544271609655375L-237.66433649797685,-33.40154423041572L-238.21107639391727,-29.24864241723546L-238.6852548883856,-25.086831184236942L-239.08672754201893,-20.917378259437907L-239.41537206235782,-16.741553698590067L-239.67108834109774,-12.56062949830635L-239.853798484583,-8.375879208600109L-239.9634468375339,-4.188577544947966L-240,2.9390552491737054e-14L-239.9634468375339,4.188577544948025L-239.853798484583,8.375879208600168L-239.67108834109774,12.560629498306406L-239.41537206235782,16.741553698590124L-239.08672754201893,20.917378259437967L-238.6852548883856,25.086831184237003L-238.21107639391727,29.248642417235516L-237.66433649797685,33.40154423041578L-237.04520174283303,37.54427160965543L-236.35386072292994,41.67556264006327L-235.59052402743936,45.79415889037069L-234.75542417611334,49.89880579626234L-233.84881554845643,53.988253042527646L-232.87097430623916,58.061254943920254L-231.8221983093764,62.116570824604935L-230.70280702519656,66.15296539607972L-229.5131414311285,70.16920913345689L-228.25356391083685,74.1640786499874L-226.92445814383603,78.13635706971758L-225.52622898861796,82.08483439816064L-224.0593023593284,86.00830789087216L-222.52412509602897,89.90558241981894L-220.9211648285857,93.7754708374257L-219.25090983422425,97.61679433819201L-217.51386888879603,101.42838281776778L-215.71057111180005,105.20907522937864L-213.84156580520826,108.95771993749125L-211.9074222861425,112.67317506861377L-209.90872971345493,116.35430885912102L-207.84609690826522,120.00000000000009L-205.72015216850693,123.60913797841305L-203.53154307754224,127.18062341596918L-201.2809363069018,130.71336840360647L-198.96901741320994,134.20629683297935L-196.596490629358,137.65834472425112L-194.16407864998737,141.06846055019358L-191.67252241135031,144.43560555649157L-189.12258086561332,147.75875407815795L-186.5150307496731,151.03689385196088L-183.85066634855468,154.26902632476947L-181.1302992534652,157.45416695772184L-178.35475811457457,160.591345526126L-175.5248883886009,163.67960641499965L-172.64155208127625,166.7180089101594L-169.70562748477138,169.7056274847714L-166.71800891015937,172.64155208127625L-163.6796064149996,175.52488838860094L-160.59134552612596,178.35475811457462L-157.4541669577218,181.13029925346524L-154.26902632476944,183.8506663485547L-151.03689385196094,186.51503074967303L-147.7587540781579,189.12258086561334L-144.43560555649154,191.67252241135034L-141.06846055019352,194.1640786499874L-137.658344724251,196.59649062935807L-134.2062968329792,198.96901741321003L-130.7133684036065,201.28093630690174L-127.18062341596915,203.53154307754227L-123.60913797841303,205.72015216850696L-120.00000000000006,207.84609690826522L-116.35430885912098,209.90872971345496L-112.67317506861373,211.9074222861425L-108.9577199374911,213.84156580520835L-105.20907522937851,215.7105711118001L-101.42838281776784,217.51386888879603L-97.61679433819197,219.25090983422427L-93.77547083742567,220.9211648285857L-89.9055824198189,222.52412509602897L-86.00830789087212,224.0593023593284L-82.0848343981605,225.52622898861802L-78.13635706971763,226.924458143836L-74.16407864998747,228.25356391083682L-70.16920913345683,229.5131414311285L-66.15296539607968,230.70280702519656L-62.1165708246049,231.82219830937643L-58.06125494392022,232.87097430623916L-53.98825304252761,233.84881554845646L-49.89880579626219,234.75542417611337L-45.79415889037075,235.59052402743936L-41.675562640063326,236.35386072292994L-37.5442716096554,237.04520174283306L-33.40154423041574,237.66433649797685L-29.248642417235473,238.21107639391727L-25.086831184236853,238.6852548883856L-20.917378259437925,239.08672754201893L-16.74155369858997,239.41537206235785L-12.560629498306469,239.67108834109771L-8.37587920860023,239.853798484583L-4.188577544947981,239.9634468375339L1.4695276245868527e-14,240L4.188577544948011,239.9634468375339L8.37587920860026,239.853798484583L12.560629498306605,239.67108834109771L16.74155369859011,239.41537206235782L20.917378259437953,239.08672754201893L25.086831184236882,238.6852548883856L29.2486424172354,238.21107639391727L33.40154423041566,237.66433649797688L37.544271609655425,237.04520174283306L41.675562640063355,236.35386072292994L45.79415889037078,235.59052402743936L49.89880579626222,234.75542417611337L53.98825304252763,233.84881554845646L58.06125494392024,232.87097430623916L62.116570824605034,231.82219830937638L66.1529653960798,230.70280702519653L70.16920913345687,229.5131414311285L74.16407864998739,228.25356391083685L78.13635706971756,226.92445814383603L82.08483439816052,225.526228988618L86.00830789087215,224.0593023593284L89.90558241981893,222.52412509602897L93.77547083742569,220.9211648285857L97.616794338192,219.25090983422425L101.42838281776787,217.513868888796L105.20907522937863,215.71057111180005L108.95771993749123,213.84156580520826L112.67317506861376,211.9074222861425L116.3543088591209,209.908729713455L119.99999999999997,207.84609690826528L123.60913797841305,205.72015216850693L127.18062341596918,203.53154307754224L130.71336840360652,201.28093630690174L134.20629683297923,198.96901741321003L137.65834472425104,196.59649062935807L141.06846055019355,194.1640786499874L144.43560555649162,191.67252241135026L147.75875407815798,189.12258086561326L151.03689385196097,186.51503074967303L154.26902632476947,183.85066634855468L157.45416695772175,181.1302992534653L160.59134552612593,178.35475811457468L163.67960641499963,175.5248883886009L166.7180089101594,172.64155208127625L169.7056274847714,169.70562748477138L172.64155208127625,166.71800891015937L175.52488838860094,163.67960641499963L178.35475811457468,160.59134552612593L181.1302992534653,157.45416695772172L183.8506663485547,154.26902632476944L186.51503074967303,151.03689385196094L189.12258086561326,147.75875407815798L191.67252241135026,144.43560555649162L194.1640786499874,141.06846055019355L196.59649062935807,137.658344724251L198.96901741321003,134.20629683297923L201.28093630690174,130.71336840360652L203.53154307754227,127.18062341596918L205.72015216850693,123.60913797841303L207.84609690826528,119.99999999999996L209.908729713455,116.35430885912089L211.9074222861425,112.67317506861374L213.8415658052083,108.95771993749122L215.71057111180005,105.20907522937861L217.513868888796,101.42838281776785L219.25090983422425,97.61679433819204L220.9211648285857,93.77547083742567L222.52412509602897,89.90558241981891L224.05930235932843,86.00830789087208L225.526228988618,82.08483439816051L226.92445814383603,78.13635706971755L228.25356391083685,74.16407864998737L229.51314143112853,70.16920913345682L230.70280702519653,66.1529653960798L231.82219830937638,62.11657082460502L232.87097430623916,58.061254943920225L233.84881554845646,53.98825304252757L234.75542417611337,49.8988057962622L235.59052402743936,45.79415889037077L236.35386072292994,41.67556264006328L237.04520174283303,37.54427160965546L237.66433649797688,33.401544230415645L238.2110763939173,29.24864241723538L238.6852548883856,25.086831184236814L239.08672754201893,20.91737825943799L239.41537206235782,16.741553698590096L239.67108834109771,12.560629498306536L239.853798484583,8.37587920860019L239.9634468375339,4.188577544948049L240,0L239.9634468375339,-4.188577544948049L239.853798484583,-8.375879208600244L239.67108834109771,-12.560629498306536L239.41537206235785,-16.741553698590042L239.08672754201893,-20.91737825943799L238.6852548883856,-25.086831184236814L238.2110763939173,-29.24864241723538L237.66433649797688,-33.401544230415695L237.04520174283306,-37.54427160965541L236.35386072292994,-41.67556264006328L235.59052402743936,-45.79415889037077L234.75542417611337,-49.8988057962622L233.84881554845646,-53.98825304252762L232.87097430623916,-58.061254943920225L231.8221983093764,-62.11657082460496L230.70280702519653,-66.1529653960798L229.51314143112853,-70.16920913345682L228.25356391083685,-74.16407864998737L226.92445814383603,-78.1363570697176L225.526228988618,-82.08483439816051L224.05930235932846,-86.00830789087202L222.52412509602897,-89.90558241981891L220.9211648285857,-93.77547083742567L219.25090983422422,-97.61679433819208L217.513868888796,-101.42838281776785L215.71057111180008,-105.20907522937858L213.8415658052083,-108.95771993749122L211.9074222861425,-112.67317506861379L209.908729713455,-116.35430885912089L207.84609690826525,-120L205.72015216850693,-123.60913797841303L203.53154307754227,-127.18062341596918L201.28093630690176,-130.7133684036065L198.96901741321003,-134.20629683297923L196.59649062935804,-137.65834472425104L194.1640786499874,-141.06846055019355L191.6725224113503,-144.4356055564916L189.12258086561326,-147.75875407815798L186.51503074967303,-151.036893851961L183.8506663485547,-154.2690263247694L181.13029925346527,-157.45416695772178L178.35475811457462,-160.59134552612596L175.52488838860094,-163.67960641499963L172.64155208127625,-166.71800891015937L169.7056274847714,-169.70562748477138L166.71800891015934,-172.64155208127625L163.67960641499965,-175.5248883886009L160.59134552612596,-178.3547581145746L157.45416695772175,-181.1302992534653L154.26902632476944,-183.8506663485547L151.036893851961,-186.515030749673L147.75875407815798,-189.12258086561326L144.43560555649162,-191.6725224113503L141.06846055019355,-194.1640786499874L137.65834472425107,-196.59649062935804L134.20629683297923,-198.96901741321003L130.7133684036065,-201.28093630690176L127.18062341596918,-203.53154307754224L123.60913797841305,-205.72015216850693L119.99999999999997,-207.84609690826528L116.3543088591209,-209.908729713455L112.6731750686138,-211.90742228614246L108.95771993749123,-213.84156580520826L105.20907522937858,-215.71057111180008L101.42838281776787,-217.513868888796L97.61679433819205,-219.25090983422422L93.77547083742569,-220.9211648285857L89.90558241981893,-222.52412509602897L86.00830789087209,-224.05930235932843L82.08483439816052,-225.526228988618L78.13635706971762,-226.924458143836L74.16407864998739,-228.25356391083685L70.16920913345683,-229.5131414311285L66.1529653960798,-230.70280702519653L62.11657082460498,-231.8221983093764L58.06125494392024,-232.87097430623916L53.98825304252763,-233.84881554845646L49.898805796262266,-234.75542417611334L45.79415889037078,-235.59052402743936L41.6755626400633,-236.35386072292994L37.544271609655425,-237.04520174283306L33.40154423041571,-237.66433649797688L29.2486424172354,-238.21107639391727L25.08683118423683,-238.6852548883856L20.917378259437953,-239.08672754201893L16.74155369859011,-239.41537206235782L12.560629498306552,-239.67108834109771L8.37587920860026,-239.853798484583L4.188577544948064,-239.9634468375339L1.4695276245868527e-14,-240Z"></path><path class="line" d="M2.3512441993389643e-14,-384L6.920136701091393,-396.4543660851341L14.264169739856836,-408.47237754103946L21.99780935161698,-419.7432070687884L30.0666320392421,-429.97287025656226L38.398078552398275,-438.89204617945103L46.90415414913326,-446.2632169918903L55.48473827337977,-451.8869299639057L64.03138953355102,-455.607010369218L72.43151435044658,-457.31458344033905L80.57275443745571,-456.95079739766453L88.34743982572004,-454.5081763561031L95.6569507433135,-450.0305706478898L102.4158334315191,-443.6117116533294L108.55552189839503,-435.3924174601158L114.02752947074552,-425.55653344637983L118.80599045213769,-414.3257271176101L122.88945272047322,-401.95328821484276L126.30184606498192,-388.71711234903785L129.09257771767946,-374.91206843489607L131.33573503705682,-360.8419663817888L133.1284047474207,-346.81135140763587L134.58814758607642,-333.1173547159498L135.84969571694973,-320.04182705121303L137.06096691175506,-307.8439719506708L138.378513410019,-296.7536796576105L139.96254375932588,-286.9657411469562L141.97167212498806,-278.6350951966343L144.55756098955882,-271.8732307189797L147.8596294285404,-266.74583256582275L152,-263.2717227504694L157.07885264136283,-261.4231115621805L163.17034391680485,-261.12713548556616L170.31923476368672,-262.2686222763119L178.53834996943047,-264.69398904734544L187.8069685449906,-268.21614777980733L198.07021665530758,-272.6202651881737L209.23950464146134,-277.670201112871L221.19401783244632,-283.1154322158063L233.78323826611438,-288.698256180381L246.83044211963113,-294.16106615768757L260.13708659115025,-299.25348596097535L273.4879711475056,-303.7391634116649L286.65703236850544,-307.4020320205178L299.41360989924056,-310.05186941212776L311.5290039756343,-311.5290039756342L322.78313318638203,-311.7080484151459L332.971094992321,-310.5005693281157L341.9094312890234,-307.85663471621115L349.441907039263,-303.7652154264421L355.4446216072058,-298.2534508945542L359.83028960520875,-291.3848231822334L362.5515503552474,-283.2563151602812L363.6031918502119,-273.9946578490305L363.02320561497777,-263.75179753211586L360.89262223413846,-252.69973457261287L357.3341125606724,-241.02490228050385L352.50937571171426,-228.92226526050132L346.61537082484006,-216.589322129129L339.87948412043613,-204.2201972233732L332.55375505322445,-192.00000000000003L324.90831426152846,-180.09961948742603L317.2242107509591,-168.67110480765365L309.78582551333545,-157.84376199168494L302.8730829578459,-147.72107275795304L296.7536796576105,-138.37851341001897L291.6755517054065,-129.86232242244014L287.8597973278826,-122.18923456488699L285.49426041849426,-115.34716853448366L284.7279635941957,-109.29682499268489L285.6665567189162,-103.97412357100332L288.3689191952922,-99.29338169343531L292.84502248234105,-95.15111574828087L299.05512415577124,-91.4303269018482L306.9103273958518,-88.00512022248553L316.2745011436246,-84.74549716799038L326.96751742858703,-81.52215811506244L338.7697246660821,-78.21115354176347L351.4275401510753,-74.69822961066615L364.6600125789763,-70.88272597526574L378.1661771566878,-66.68090022410125L391.6330025635308,-62.028573923642504L404.7437113750032,-56.88301903718674L417.18624410212436,-51.22402979681128L428.66163207577125,-45.05415302706067L438.89204617945103,-38.398078552398346L447.62829687078874,-31.30121973587744L454.65657580283795,-23.827541474258457L459.8042502443019,-16.056718234107176L462.9445478102054,-8.080727140191476L464,0L462.94454781020545,8.080727140191476L459.80425024430195,16.056718234107077L454.65657580283795,23.827541474258457L447.6282968707887,31.301219735877538L438.8920461794511,38.398078552398346L428.6616320757713,45.05415302706068L417.1862441021245,51.224029796811294L404.7437113750033,56.883019037186656L391.63300256353074,62.0285739236426L378.1661771566879,66.68090022410126L364.6600125789764,70.88272597526576L351.42754015107545,74.69822961066617L338.76972466608197,78.21115354176335L326.9675174285871,81.52215811506245L316.27450114362466,84.74549716799048L306.9103273958519,88.00512022248557L299.05512415577135,91.43032690184823L292.84502248234105,95.15111574828087L288.3689191952923,99.29338169343526L285.6665567189162,103.97412357100332L284.72796359419567,109.29682499268493L285.49426041849426,115.34716853448366L287.8597973278826,122.18923456488699L291.67555170540663,129.86232242244012L296.75367965761046,138.37851341001897L302.8730829578458,147.72107275795307L309.78582551333517,157.84376199168477L317.2242107509592,168.6711048076536L324.9083142615283,180.09961948742594L332.5537550532244,191.99999999999991L339.8794841204362,204.22019722337322L346.61537082483994,216.5893221291289L352.5093757117143,228.92226526050146L357.3341125606724,241.02490228050382L360.89262223413846,252.69973457261273L363.02320561497766,263.7517975321158L363.60319185021183,273.99465784903055L362.5515503552474,283.2563151602812L359.83028960520875,291.3848231822333L355.4446216072058,298.25345089455425L349.4419070392631,303.76521542644207L341.90943128902353,307.85663471621103L332.97109499232107,310.5005693281158L322.783133186382,311.7080484151459L311.52900397563434,311.5290039756343L299.41360989924067,310.0518694121277L286.65703236850555,307.402032020518L273.48797114750545,303.73916341166495L260.13708659115036,299.25348596097547L246.8304421196312,294.16106615768757L233.78323826611432,288.69825618038107L221.19401783244643,283.11543221580644L209.2395046414613,277.67020111287087L198.0702166553076,272.62026518817373L187.80696854499055,268.21614777980733L178.53834996943056,264.69398904734555L170.31923476368678,262.26862227631193L163.17034391680485,261.12713548556616L157.07885264136283,261.4231115621805L152,263.2717227504694L147.85962942854036,266.7458325658227L144.55756098955877,271.87323071897976L141.97167212498806,278.6350951966343L139.96254375932597,286.9657411469562L138.37851341001894,296.7536796576104L137.06096691175495,307.8439719506708L135.8496957169496,320.0418270512127L134.58814758607645,333.11735471594983L133.12840474742072,346.8113514076357L131.33573503705682,360.8419663817887L129.09257771767935,374.91206843489607L126.30184606498187,388.71711234903773L122.88945272047334,401.95328821484287L118.8059904521376,414.3257271176098L114.02752947074562,425.5565334463798L108.55552189839504,435.39241746011584L102.41583343151909,443.61171165332934L95.6569507433134,450.0305706478899L88.34743982572004,454.5081763561031L80.57275443745581,456.95079739766453L72.43151435044658,457.31458344033905L64.03138953355092,455.607010369218L55.48473827337977,451.8869299639057L46.90415414913337,446.2632169918904L38.39807855239828,438.8920461794511L30.066632039242094,429.97287025656215L21.997809351617086,419.74320706878865L14.264169739856834,408.4723775410394L6.920136701091307,396.4543660851342L2.351244199338965e-14,384.0000000000001L-6.483311442742283,371.42866379497445L-12.538643727663956,359.0597776096263L-18.19620504296386,347.20427562272425L-23.50633979624608,336.15632034298307L-28.537531877803143,326.18548195500966L-33.37370564042463,317.5295986509436L-38.110917461773624,310.38851449662974L-42.8535520037793,304.918866424308L-47.71015480045075,301.2300621367268L-52.78904601074689,299.3815569157113L-58.19386862346642,299.38150053170284L-64.01922780472566,301.1867867156729L-70.34657630456931,304.70449810173136L-77.2404939221497,309.7947003198495L-84.74549716799028,316.2745011436246L-92.88349881531755,323.923255363019L-101.65201650658858,332.48876436476826L-111.02320561497785,341.69429216564004L-120.94376490541693,351.24619762537907L-131.33573503705674,360.8419663817887L-142.09818050337006,370.17841614221504L-153.10971615734402,378.95984559134274L-164.23181096281252,386.9059004002614L-175.31277497045926,393.7589395188465L-186.19231160683805,399.29070078653655L-196.70649697468556,403.3080864108043L-206.69303167498362,405.65791538003225L-215.9965992300052,406.2305205966762L-224.47415892064666,404.9621025172331L-232.0000000000001,401.83578735597945L-238.47038888955888,396.88137537704176L-243.8076510142965,390.1738023625692L-247.96354412785405,381.8303739057737L-250.9217998961031,372.00686667492675L-252.69973457261275,360.89262223413857L-253.3488571053118,348.704786491786L-252.9544331393117,335.68187060345L-251.63399521765905,322.07682655415624L-249.53482206016102,308.149842218573L-246.83044211963136,294.16106615768786L-243.71624767355928,280.3634716501133L-240.40433453609768,266.996062554974L-237.1177081594935,254.27761082300526L-234.08401861326945,242.4010972479564L-231.52900397563425,231.5290039756343L-229.66983347370197,221.78958009736408L-228.70854785120213,213.2741711998833L-228.82579467761525,206.035670967392L-230.1750505718258,200.08811883826763L-232.87751070816932,195.40743334470804L-237.01780879374502,191.93323714404167L-242.64070841471508,189.5716978898243L-249.74887986610906,188.1992799317426L-258.30184606498165,187.6672762285034L-268.2161477798073,187.80696854499072L-279.3667431615997,188.4352475850299L-291.58962047037124,189.36051363103928L-304.685567023295,190.3886728019723L-318.42500281878586,191.32904430754843L-332.5537550532243,192.00000000000006L-346.7996208215274,192.23416886176108L-360.8795405646968,191.88305541191048L-374.50718506333124,190.82094180828713L-387.4007445999141,188.9479679760584L-399.29070078653655,186.19231160683793L-409.92735976411115,182.51141945977443L-419.0879301235916,177.89227211487523L-426.58293988879836,172.35069520893688L-432.2618039556552,165.92976025810586L-436.01737604466143,158.69734650311057L-437.78934686498303,150.74296092966097L-437.56638203233695,142.1739359316788L-435.3869284238399,133.1111423252137L-431.3386550847773,123.6843690449697L-425.5565334463799,114.02752947074546L-418.2196003513784,104.27385770548236L-409.54648508897867,94.551256194325L-399.7898172124875,84.97794893737313L-389.22966430883014,75.65858247392067L-378.16617715668775,66.68090022410121L-366.9116430135348,58.11309522725481L-355.78216541852294,50.001922500143635L-345.08920035841123,42.37162593834217L-335.1311835670627,35.22370676249741L-326.18548195500966,28.5375318778032L-318.50089372875635,22.27175209961081L-312.290906888675,16.366472920322305L-307.7279049063636,10.746095233413506L-304.93848206990316,5.322721003642251L-304.00000000000006,3.7228033156200275e-14L-304.93848206990305,-5.322721003642174L-307.7279049063636,-10.74609523341343L-312.2909068886748,-16.366472920322217L-318.500893728756,-22.27175209961071L-326.18548195500966,-28.53753187780312L-335.13118356706275,-35.22370676249733L-345.08920035841066,-42.371625938342014L-355.7821654185225,-50.001922500143486L-366.91164301353484,-58.113095227254725L-378.1661771566878,-66.68090022410111L-389.2296643088297,-75.65858247392049L-399.7898172124875,-84.97794893737304L-409.5464850889787,-94.5512561943249L-418.21960035137795,-104.27385770548216L-425.5565334463796,-114.02752947074528L-431.3386550847773,-123.6843690449696L-435.3869284238399,-133.1111423252136L-437.56638203233683,-142.17393593167864L-437.7893468649831,-150.74296092966085L-436.01737604466143,-158.69734650311042L-432.26180395565524,-165.92976025810574L-426.5829398887986,-172.35069520893686L-419.0879301235916,-177.8922721148751L-409.9273597641112,-182.51141945977434L-399.29070078653695,-186.192311606838L-387.4007445999145,-188.9479679760585L-374.5071850633313,-190.82094180828705L-360.8795405646968,-191.88305541191036L-346.799620821528,-192.23416886176125L-332.5537550532248,-192.00000000000028L-318.4250028187859,-191.32904430754834L-304.68556702329545,-190.38867280197252L-291.5896204703717,-189.36051363103948L-279.3667431615997,-188.43524758502986L-268.2161477798074,-187.80696854499064L-258.301846064982,-187.6672762285035L-249.74887986610932,-188.19927993174275L-242.64070841471505,-189.57169788982418L-237.01780879374513,-191.93323714404167L-232.87751070816935,-195.40743334470798L-230.17505057182584,-200.08811883826738L-228.8257946776152,-206.03567096739206L-228.70854785120187,-213.27417119988314L-229.66983347370174,-221.78958009736382L-231.52900397563434,-231.52900397563425L-234.08401861326954,-242.4010972479563L-237.11770815949333,-254.27761082300472L-240.40433453609754,-266.99606255497343L-243.7162476735592,-280.3634716501134L-246.83044211963107,-294.1610661576874L-249.53482206016068,-308.14984221857264L-251.63399521765916,-322.0768265541562L-252.95443313931148,-335.68187060344957L-253.34885710531165,-348.7047864917857L-252.6997345726128,-360.8926222341381L-250.92179989610335,-372.0068666749266L-247.96354412785414,-381.8303739057739L-243.80765101429648,-390.17380236256884L-238.470388889559,-396.88137537704165L-232.0000000000002,-401.8357873559794L-224.47415892064677,-404.96210251723306L-215.99659923000527,-406.2305205966761L-206.693031674984,-405.6579153800323L-196.7064969746858,-403.30808641080415L-186.19231160683813,-399.2907007865369L-175.31277497045951,-393.75893951884683L-164.2318109628124,-386.9059004002608L-153.1097161573444,-378.9598455913435L-142.09818050337034,-370.17841614221555L-131.335735037057,-360.84196638178867L-120.94376490541686,-351.2461976253791L-111.0232056149777,-341.6942921656398L-101.65201650658898,-332.48876436476917L-92.88349881531762,-323.923255363019L-84.7454971679904,-316.2745011436247L-77.2404939221498,-309.7947003198496L-70.34657630456937,-304.7044981017313L-64.0192278047259,-301.186786715673L-58.19386862346637,-299.3815005317029L-52.78904601074683,-299.3815569157113L-47.7101548004508,-301.2300621367267L-42.85355200377938,-304.9188664243081L-38.11091746177365,-310.38851449662934L-33.37370564042482,-317.5295986509433L-28.537531877803218,-326.18548195500966L-23.506339796246298,-336.15632034298284L-18.196205042963808,-347.20427562272454L-12.53864372766387,-359.05977760962577L-6.4833114427423695,-371.4286637949742L-7.05373259801689e-14,-383.9999999999999"></path></g></svg>