<svg width="490" height="315"><g transform="translate(20,20)"><g class="rule"><line x1="0" x2="0" y1="0" y2="274"></line><line class="axis" y1="275" y2="275" x1="0" x2="451"></line><text x="0" y="278" dy=".71em" text-anchor="middle">0.0</text><text y="275" x="-3" dy=".35em" text-anchor="end">0.0</text></g><g class="rule"><line x1="45" x2="45" y1="0" y2="274"></line><line y1="247.5" y2="247.5" x1="0" x2="451"></line><text x="45" y="278" dy=".71em" text-anchor="middle">0.1</text><text y="247.5" x="-3" dy=".35em" text-anchor="end">0.1</text></g><g class="rule"><line x1="90" x2="90" y1="0" y2="274"></line><line y1="220" y2="220" x1="0" x2="451"></line><text x="90" y="278" dy=".71em" text-anchor="middle">0.2</text><text y="220" x="-3" dy=".35em" text-anchor="end">0.2</text></g><g class="rule"><line x1="135" x2="135" y1="0" y2="274"></line><line y1="192.5" y2="192.5" x1="0" x2="451"></line><text x="135" y="278" dy=".71em" text-anchor="middle">0.3</text><text y="192.5" x="-3" dy=".35em" text-anchor="end">0.3</text></g><g class="rule"><line x1="180" x2="180" y1="0" y2="274"></line><line y1="165" y2="165" x1="0" x2="451"></line><text x="180" y="278" dy=".71em" text-anchor="middle">0.4</text><text y="165" x="-3" dy=".35em" text-anchor="end">0.4</text></g><g class="rule"><line x1="225" x2="225" y1="0" y2="274"></line><line y1="137.5" y2="137.5" x1="0" x2="451"></line><text x="225" y="278" dy=".71em" text-anchor="middle">0.5</text><text y="137.5" x="-3" dy=".35em" text-anchor="end">0.5</text></g><g class="rule"><line x1="270" x2="270" y1="0" y2="274"></line><line y1="110" y2="110" x1="0" x2="451"></line><text x="270" y="278" dy=".71em" text-anchor="middle">0.6</text><text y="110" x="-3" dy=".35em" text-anchor="end">0.6</text></g><g class="rule"><line x1="315" x2="315" y1="0" y2="274"></line><line y1="82.5" y2="82.5" x1="0" x2="451"></line><text x="315" y="278" dy=".71em" text-anchor="middle">0.7</text><text y="82.5" x="-3" dy=".35em" text-anchor="end">0.7</text></g><g class="rule"><line x1="360" x2="360" y1="0" y2="274"></line><line y1="55" y2="55" x1="0" x2="451"></line><text x="360" y="278" dy=".71em" text-anchor="middle">0.8</text><text y="55" x="-3" dy=".35em" text-anchor="end">0.8</text></g><g class="rule"><line x1="405" x2="405" y1="0" y2="274"></line><line y1="27.5" y2="27.5" x1="0" x2="451"></line><text x="405" y="278" dy=".71em" text-anchor="middle">0.9</text><text y="27.5" x="-3" dy=".35em" text-anchor="end">0.9</text></g><g class="rule"><line x1="450" x2="450" y1="0" y2="274"></line><line y1="0" y2="0" x1="0" x2="451"></line><text x="450" y="278" dy=".71em" text-anchor="middle">1.0</text><text y="0" x="-3" dy=".35em" text-anchor="end">1.0</text></g><path class="area" d="M0,137.5L23.684210526315788,92.51072919052905L47.368421052631575,52.474152077911185L71.05263157894737,21.797739588914226L94.73684210526315,3.8585385625444815L118.42105263157895,0.6314058091323318L142.10526315789474,12.471603811468754L165.78947368421052,38.07569126098036L189.4736842105263,74.62501383757584L213.15789473684208,118.09599889176826L236.8421052631579,163.70309489537925L260.5263157894737,206.4255941808974L284.2105263157895,241.56034310484011L307.89473684210526,265.23949392472974L331.57894736842104,274.85630110096514L355.2631578947368,269.3520877661815L378.9473684210526,249.33279134054226L402.63157894736844,217.0022582398425L426.31578947368416,175.9196310023523L450,130.60753614120125L450,274L426.31578947368416,274L402.63157894736844,274L378.9473684210526,274L355.2631578947368,274L331.57894736842104,274L307.89473684210526,274L284.2105263157895,274L260.5263157894737,274L236.8421052631579,274L213.15789473684208,274L189.4736842105263,274L165.78947368421052,274L142.10526315789474,274L118.42105263157895,274L94.73684210526315,274L71.05263157894737,274L47.368421052631575,274L23.684210526315788,274L0,274Z"></path><path class="line" d="M0,137.5L23.684210526315788,92.51072919052905L47.368421052631575,52.474152077911185L71.05263157894737,21.797739588914226L94.73684210526315,3.8585385625444815L118.42105263157895,0.6314058091323318L142.10526315789474,12.471603811468754L165.78947368421052,38.07569126098036L189.4736842105263,74.62501383757584L213.15789473684208,118.09599889176826L236.8421052631579,163.70309489537925L260.5263157894737,206.4255941808974L284.2105263157895,241.56034310484011L307.89473684210526,265.23949392472974L331.57894736842104,274.85630110096514L355.2631578947368,269.3520877661815L378.9473684210526,249.33279134054226L402.63157894736844,217.0022582398425L426.31578947368416,175.9196310023523L450,130.60753614120125"></path><circle class="area" cx="0" cy="137.5" r="3.5"></circle><circle class="area" cx="23.684210526315788" cy="92.51072919052905" r="3.5"></circle><circle class="area" cx="47.368421052631575" cy="52.474152077911185" r="3.5"></circle><circle class="area" cx="71.05263157894737" cy="21.797739588914226" r="3.5"></circle><circle class="area" cx="94.73684210526315" cy="3.8585385625444815" r="3.5"></circle><circle class="area" cx="118.42105263157895" cy="0.6314058091323318" r="3.5"></circle><circle class="area" cx="142.10526315789474" cy="12.471603811468754" r="3.5"></circle><circle class="area" cx="165.78947368421052" cy="38.07569126098036" r="3.5"></circle><circle class="area" cx="189.4736842105263" cy="74.62501383757584" r="3.5"></circle><circle class="area" cx="213.15789473684208" cy="118.09599889176826" r="3.5"></circle><circle class="area" cx="236.8421052631579" cy="163.70309489537925" r="3.5"></circle><circle class="area" cx="260.5263157894737" cy="206.4255941808974" r="3.5"></circle><circle class="area" cx="284.2105263157895" cy="241.56034310484011" r="3.5"></circle><circle class="area" cx="307.89473684210526" cy="265.23949392472974" r="3.5"></circle><circle class="area" cx="331.57894736842104" cy="274.85630110096514" r="3.5"></circle><circle class="area" cx="355.2631578947368" cy="269.3520877661815" r="3.5"></circle><circle class="area" cx="378.9473684210526" cy="249.33279134054226" r="3.5"></circle><circle class="area" cx="402.63157894736844" cy="217.0022582398425" r="3.5"></circle><circle class="area" cx="426.31578947368416" cy="175.9196310023523" r="3.5"></circle><circle class="area" cx="450" cy="130.60753614120125" r="3.5"></circle></g></svg>