<svg width="400" height="400"><g class="arc" transform="translate(200,200)"><path fill="#1f77b4" d="M-3.673819061467132e-14,-200A200,200 0 0,1 -3.673819061467132e-14,-200L-2.204291436880279e-14,-120A120,120 0 0,0 -2.204291436880279e-14,-120Z"></path><text transform="translate(-2.9390552491737054e-14,-160)" dy=".35em" text-anchor="middle" display="none">0.00</text></g><g class="arc" transform="translate(200,200)"><path fill="#aec7e8" d="M-27.834620192013166,-198.05361374831406A200,200 0 0,1 -3.673819061467132e-14,-200L-2.204291436880279e-14,-120A120,120 0 0,0 -16.7007721152079,-118.83216824898842Z"></path><text transform="translate(-11.161035799060093,-159.61024804157188)" dy=".35em" text-anchor="middle" display="none">0.10</text></g><g class="arc" transform="translate(200,200)"><path fill="#ff7f0e" d="M-81.34732861516018,-182.7090915285201A200,200 0 0,1 -27.834620192013166,-198.05361374831406L-16.7007721152079,-118.83216824898842A120,120 0 0,0 -48.808397169096104,-109.62545491711207Z"></path><text transform="translate(-44.10197693071996,-153.801871350131)" dy=".35em" text-anchor="middle">0.20</text></g><g class="arc" transform="translate(200,200)"><path fill="#ffbb78" d="M-148.62896509547892,-133.82612127177157A200,200 0 0,1 -81.34732861516018,-182.7090915285201L-48.808397169096104,-109.62545491711207A120,120 0 0,0 -89.17737905728735,-80.29567276306295Z"></path><text transform="translate(-94.04564036679572,-129.44271909999156)" dy=".35em" text-anchor="middle">0.30</text></g><g class="arc" transform="translate(200,200)"><path fill="#2ca02c" d="M-196.96155060244163,-34.729635533386A200,200 0 0,1 -148.62896509547892,-133.82612127177157L-89.17737905728735,-80.29567276306295A120,120 0 0,0 -118.17693036146497,-20.837781320031603Z"></path><text transform="translate(-143.80704740786672,-70.1393834862524)" dy=".35em" text-anchor="middle">0.40</text></g><g class="arc" transform="translate(200,200)"><path fill="#98df8a" d="M-173.2050807568877,100.00000000000007A200,200 0 0,1 -196.96155060244163,-34.729635533386L-118.17693036146497,-20.837781320031603A120,120 0 0,0 -103.92304845413261,60.00000000000004Z"></path><text transform="translate(-157.56924048195327,27.783708426708845)" dy=".35em" text-anchor="middle">0.50</text></g><g class="arc" transform="translate(200,200)"><path fill="#d62728" d="M-41.582338163551825,195.62952014676114A200,200 0 0,1 -173.2050807568877,100.00000000000007L-103.92304845413261,60.00000000000004A120,120 0 0,0 -24.949402898131094,117.37771208805668Z"></path><text transform="translate(-94.04564036679568,129.4427190999916)" dy=".35em" text-anchor="middle">0.60</text></g><g class="arc" transform="translate(200,200)"><path fill="#ff9896" d="M138.9316740917995,143.8679600677302A200,200 0 0,1 -41.582338163551825,195.62952014676114L-24.949402898131094,117.37771208805668A120,120 0 0,0 83.3590044550797,86.32077604063812Z"></path><text transform="translate(44.101976930719935,153.801871350131)" dy=".35em" text-anchor="middle">0.70</text></g><g class="arc" transform="translate(200,200)"><path fill="#9467bd" d="M190.2113032590307,-61.803398874989476A200,200 0 0,1 138.9316740917995,143.8679600677302L83.3590044550797,86.32077604063812A120,120 0 0,0 114.12678195541842,-37.08203932499369Z"></path><text transform="translate(155.24731620415943,38.70750329594682)" dy=".35em" text-anchor="middle">0.80</text></g><g class="arc" transform="translate(200,200)"><path fill="#c5b0d5" d="M1.2246063538223773e-14,-200A200,200 0 0,1 190.2113032590307,-61.803398874989476L114.12678195541842,-37.08203932499369A120,120 0 0,0 7.347638122934264e-15,-120Z"></path><text transform="translate(94.04564036679571,-129.4427190999916)" dy=".35em" text-anchor="middle">0.90</text></g></svg>