<svg xmlns="http://www.w3.org/2000/svg" xmlns:xlink="http://www.w3.org/1999/xlink" font-size="10px" font-family="sans-serif" width="450" height="495">
     <g transform="translate(20,5)">
          <g>
               <text y="3" dy=".71em" transform="translate(100,0)" fill="rgb(0,0,0)" text-anchor="middle">linear</text>
               <path d="M0,84.6570632840196L8.947368421052632,53.10034034220688L17.894736842105264,29.26980375573818L26.842105263157894,19L35.78947368421053,24.80533520632453L44.73684210526316,45.26446084806L53.68421052631579,75.36826943115794L62.63157894736842,107.74629870744745L71.57894736842105,134.47127788684475L80.52631578947368,149L80.52631578947368,149L71.57894736842105,149L62.63157894736842,149L53.68421052631579,149L44.73684210526316,149L35.78947368421053,149L26.842105263157894,149L17.894736842105264,149L8.947368421052632,149L0,149ZM80.52631578947368,149L89.47368421052632,147.77532716671485L98.42105263157895,131.09710200853576L107.36842105263158,103.04873571762235L116.31578947368422,70.49744658296274L125.26315789473684,41.4129254506185L134.21052631578948,22.916077451923385L143.1578947368421,19.535576077084272L152.10526315789474,32.09908596176898L161.05263157894737,57.5306217184813L170,89.60365643816101L170,149L161.05263157894737,149L152.10526315789474,149L143.1578947368421,149L134.21052631578948,149L125.26315789473684,149L116.31578947368422,149L107.36842105263158,149L98.42105263157895,149L89.47368421052632,149L80.52631578947368,149Z" fill="rgb(31,119,180)"/>
          </g>
          <g transform="translate(210,0)">
               <text y="3" dy=".71em" transform="translate(100,0)" fill="rgb(0,0,0)" text-anchor="middle">step-before</text>
               <path d="M0,84.6570632840196V53.10034034220688L8.947368421052632,53.10034034220688V29.26980375573818L17.894736842105264,29.26980375573818V19L26.842105263157894,19V24.80533520632453L35.78947368421053,24.80533520632453V45.26446084806L44.73684210526316,45.26446084806V75.36826943115794L53.68421052631579,75.36826943115794V107.74629870744745L62.63157894736842,107.74629870744745V134.47127788684475L71.57894736842105,134.47127788684475L71.57894736842105,149H62.63157894736842L62.63157894736842,149H53.68421052631579L53.68421052631579,149H44.73684210526316L44.73684210526316,149H35.78947368421053L35.78947368421053,149H26.842105263157894L26.842105263157894,149H17.894736842105264L17.894736842105264,149H8.947368421052632L8.947368421052632,149H0L0,149ZM80.52631578947368,149V147.77532716671485L89.47368421052632,147.77532716671485V131.09710200853576L98.42105263157895,131.09710200853576V103.04873571762235L107.36842105263158,103.04873571762235V70.49744658296274L116.31578947368422,70.49744658296274V41.4129254506185L125.26315789473684,41.4129254506185V22.916077451923385L134.21052631578948,22.916077451923385V19.535576077084272L143.1578947368421,19.535576077084272V32.09908596176898L152.10526315789474,32.09908596176898V57.5306217184813L161.05263157894737,57.5306217184813V89.60365643816101L170,89.60365643816101L170,149H161.05263157894737L161.05263157894737,149H152.10526315789474L152.10526315789474,149H143.1578947368421L143.1578947368421,149H134.21052631578948L134.21052631578948,149H125.26315789473684L125.26315789473684,149H116.31578947368422L116.31578947368422,149H107.36842105263158L107.36842105263158,149H98.42105263157895L98.42105263157895,149H89.47368421052632L89.47368421052632,149H80.52631578947368L80.52631578947368,149Z" fill="rgb(31,119,180)"/>
          </g>
          <g transform="translate(0,160)">
               <text y="3" dy=".71em" transform="translate(100,0)" fill="rgb(0,0,0)" text-anchor="middle">step-after</text>
               <path d="M0,84.6570632840196H8.947368421052632L8.947368421052632,53.10034034220688H17.894736842105264L17.894736842105264,29.26980375573818H26.842105263157894L26.842105263157894,19H35.78947368421053L35.78947368421053,24.80533520632453H44.73684210526316L44.73684210526316,45.26446084806H53.68421052631579L53.68421052631579,75.36826943115794H62.63157894736842L62.63157894736842,107.74629870744745H71.57894736842105L71.57894736842105,134.47127788684475H80.52631578947368L80.52631578947368,149L80.52631578947368,149V149L71.57894736842105,149V149L62.63157894736842,149V149L53.68421052631579,149V149L44.73684210526316,149V149L35.78947368421053,149V149L26.842105263157894,149V149L17.894736842105264,149V149L8.947368421052632,149V149L0,149ZM89.47368421052632,147.77532716671485H98.42105263157895L98.42105263157895,131.09710200853576H107.36842105263158L107.36842105263158,103.04873571762235H116.31578947368422L116.31578947368422,70.49744658296274H125.26315789473684L125.26315789473684,41.4129254506185H134.21052631578948L134.21052631578948,22.916077451923385H143.1578947368421L143.1578947368421,19.535576077084272H152.10526315789474L152.10526315789474,32.09908596176898H161.05263157894737L161.05263157894737,57.5306217184813H170L170,89.60365643816101L170,149V149L161.05263157894737,149V149L152.10526315789474,149V149L143.1578947368421,149V149L134.21052631578948,149V149L125.26315789473684,149V149L116.31578947368422,149V149L107.36842105263158,149V149L98.42105263157895,149V149L89.47368421052632,149Z" fill="rgb(31,119,180)"/>
          </g>
          <g transform="translate(210,160)">
               <text y="3" dy=".71em" transform="translate(100,0)" fill="rgb(0,0,0)" text-anchor="middle">basis</text>
               <path d="M0.0,84.6570632840196C0.0,84.6570632840196,0.0,84.6570632840196,1.4912280701754386,79.39760946038415C2.982456140350877,74.13815563674869,5.964912280701754,63.619247989477785,8.947368421052632,54.38803806809754C11.929824561403509,45.15682814671731,14.912280701754385,37.21331595122774,17.89473684210526,31.529925894193266C20.877192982456137,25.846535837158786,23.859649122807014,22.42326791857939,26.84210526315789,21.679189827010447C29.824561403508767,20.93511173544151,32.807017543859644,22.870223470883015,35.78947368421053,27.247633612226352C38.771929824561404,31.62504375356968,41.75438596491228,38.44475230081484,44.73684210526316,46.87190800495374C47.71929824561403,55.29906370909264,50.701754385964904,65.33366657012529,53.68421052631578,75.74730621335652C56.66666666666666,86.16094585658777,59.649122807017534,96.9536222820176,62.63157894736841,106.80412369129873C65.61403508771929,116.65462510057986,68.59649122807016,125.5629514937123,71.57894736842105,132.4385683758044C74.56140350877193,139.3141852578965,77.54385964912281,144.15709262894825,79.03508771929825,146.57854631447412C80.52631578947368,149.0,80.52631578947368,149.0,80.52631578947368,149.0L80.52631578947368,149C80.52631578947368,149.0,80.52631578947368,149.0,79.03508771929825,149.0C77.54385964912281,149.0,74.56140350877193,149.0,71.57894736842104,149.0C68.59649122807016,149.0,65.61403508771929,149.0,62.63157894736841,149.0C59.649122807017534,149.0,56.66666666666666,149.0,53.68421052631578,149.0C50.701754385964904,149.0,47.71929824561403,149.0,44.73684210526315,149.0C41.75438596491228,149.0,38.771929824561404,149.0,35.78947368421052,149.0C32.807017543859644,149.0,29.824561403508767,149.0,26.84210526315789,149.0C23.859649122807014,149.0,20.877192982456137,149.0,17.89473684210526,149.0C14.912280701754385,149.0,11.929824561403509,149.0,8.947368421052632,149.0C5.964912280701754,149.0,2.982456140350877,149.0,1.4912280701754386,149.0C0.0,149.0,0.0,149.0,0.0,149.0ZM80.52631578947368,149.0C80.52631578947368,149.0,80.52631578947368,149.0,82.01754385964912,148.79588786111913C83.50877192982456,148.59177572223828,86.49122807017544,148.18355144447656,89.47368421052632,145.19973511256586C92.45614035087718,142.21591878065516,95.43859649122805,136.65651039459544,98.42105263157893,129.20207848641337C101.40350877192981,121.74764657823128,104.38596491228068,112.39819114792681,107.36842105263156,102.29824857699798C110.35087719298244,92.19830600606913,113.33333333333333,81.34787629451594,116.3157894736842,71.0752412500153C119.29824561403508,60.80260620551466,122.28070175438594,51.107765828066576,125.26315789473682,43.17753763956002C128.2456140350877,35.24730945105346,131.22807017543857,29.081693451488423,134.21052631578948,25.435468555899384C137.19298245614036,21.789243660310348,140.17543859649123,20.66240986869731,143.1578947368421,22.192911287004904C146.140350877193,23.723412705312505,149.12280701754386,27.911249333540738,152.10526315789474,34.24375694044024C155.08771929824562,40.57626454733975,158.0701754385965,49.053443132910516,161.05263157894737,58.63753821230919C164.03508771929825,68.22163329170786,167.01754385964912,78.91264486493444,168.50877192982458,84.25815065154772C170.0,89.60365643816101,170.0,89.60365643816101,170.0,89.60365643816101L170,149C170.0,149.0,170.0,149.0,168.50877192982455,149.0C167.01754385964912,149.0,164.03508771929825,149.0,161.05263157894737,149.0C158.0701754385965,149.0,155.08771929824562,149.0,152.10526315789474,149.0C149.12280701754386,149.0,146.140350877193,149.0,143.1578947368421,149.0C140.17543859649123,149.0,137.19298245614036,149.0,134.21052631578948,149.0C131.22807017543857,149.0,128.2456140350877,149.0,125.26315789473682,149.0C122.28070175438594,149.0,119.29824561403508,149.0,116.3157894736842,149.0C113.33333333333333,149.0,110.35087719298244,149.0,107.36842105263156,149.0C104.38596491228068,149.0,101.40350877192981,149.0,98.42105263157893,149.0C95.43859649122805,149.0,92.45614035087718,149.0,89.47368421052632,149.0C86.49122807017544,149.0,83.50877192982456,149.0,82.01754385964912,149.0C80.52631578947368,149.0,80.52631578947368,149.0,80.52631578947368,149.0Z" fill="rgb(31,119,180)"/>
          </g>
          <g transform="translate(0,320)">
               <text y="3" dy=".71em" transform="translate(100,0)" fill="rgb(0,0,0)" text-anchor="middle">cardinal</text>
               <path d="M0.0,84.6570632840196Q7.157894736842105,58.63906629503502,8.947368421052632,53.10034034220688C11.631578947368421,44.79225141296466,15.210526315789474,34.38485480706921,17.894736842105264,29.26980375573818S24.157894736842103,19.66967028241205,26.842105263157894,19.0S33.10526315789474,20.865666079115528,35.78947368421053,24.80533520632453S42.05263157894737,37.68002071433499,44.73684210526316,45.26446084806S51.0,65.99599375224982,53.68421052631579,75.36826943115794S59.94736842105263,98.88084743909442,62.63157894736842,107.74629870744745S70.23684210526316,128.28322269296186,71.57894736842105,134.47127788684475Q72.47368421052632,138.5966480161,80.52631578947368,149.0L80.52631578947368,149Q73.36842105263158,149.0,71.57894736842105,149C68.89473684210526,149.0,65.3157894736842,149.0,62.63157894736842,149S56.368421052631575,149.0,53.68421052631579,149S47.421052631578945,149.0,44.73684210526316,149S38.473684210526315,149.0,35.78947368421053,149S29.526315789473685,149.0,26.842105263157894,149S20.578947368421055,149.0,17.894736842105264,149S10.289473684210527,149.0,8.947368421052632,149Q8.052631578947368,149.0,0,149ZM80.52631578947368,149.0Q87.6842105263158,149.56561696586127,89.47368421052632,147.77532716671485C92.15789473684211,145.0898924679952,95.73684210526315,137.80609072589962,98.42105263157895,131.09710200853576S104.68421052631578,112.1386840314583,107.36842105263158,103.04873571762235S113.63157894736842,79.74281812301332,116.31578947368422,70.49744658296274S122.57894736842104,48.550130820274404,125.26315789473684,41.4129254506185S131.5263157894737,26.19767985795352,134.21052631578948,22.916077451923385S140.47368421052633,18.158124800607432,143.1578947368421,19.535576077084272S149.42105263157896,26.399829115559424,152.10526315789474,32.09908596176898S159.71052631578948,48.9049361470225,161.05263157894737,57.5306217184813Q161.94736842105263,63.2810787661205,170.0,89.60365643816101L170,149Q162.8421052631579,149.0,161.05263157894737,149C158.3684210526316,149.0,154.78947368421052,149.0,152.10526315789474,149S145.8421052631579,149.0,143.1578947368421,149S136.89473684210526,149.0,134.21052631578948,149S127.94736842105263,149.0,125.26315789473684,149S119.00000000000001,149.0,116.31578947368422,149S110.05263157894737,149.0,107.36842105263158,149S101.10526315789474,149.0,98.42105263157895,149S90.8157894736842,149.0,89.47368421052632,149Q88.57894736842105,149.0,80.52631578947368,149Z" fill="rgb(31,119,180)"/>
          </g>
     </g>
</svg>
