<svg xmlns="http://www.w3.org/2000/svg" xmlns:xlink="http://www.w3.org/1999/xlink" width="400" height="400">
     <rect width="40.0" height="40"/>
     <rect width="40.0" height="40"/>
     <rect width="40.0" height="40"/>
     <rect width="40.0" height="40"/>
     <rect width="40.0" height="40"/>
     <rect width="40.0" height="40"/>
     <rect width="40.0" height="40"/>
     <rect width="40.0" height="40"/>
     <rect width="40.0" height="40"/>
     <rect width="40.0" height="40"/>
     <rect width="40.0" height="40"/>
     <rect width="40.0" height="40"/>
     <rect width="40.0" height="40"/>
     <rect width="40.0" height="40"/>
     <rect width="40.0" height="40"/>
     <rect width="40.0" height="40"/>
     <rect width="40.0" height="40"/>
     <rect width="40.0" height="40"/>
     <rect width="40.0" height="40"/>
     <rect width="40.0" height="40"/>
     <rect width="40.0" height="40"/>
     <rect width="40.0" height="40"/>
     <rect width="40.0" height="40"/>
     <rect width="40.0" height="40"/>
     <rect width="40.0" height="40"/>
     <rect width="40.0" height="40"/>
     <rect width="40.0" height="40"/>
     <rect width="40.0" height="40"/>
     <rect width="40.0" height="40"/>
     <rect width="40.0" height="40"/>
     <rect width="40.0" height="40"/>
     <rect width="40.0" height="40"/>
     <rect width="40.0" height="40"/>
     <rect width="40.0" height="40"/>
     <rect width="40.0" height="40"/>
     <rect width="40.0" height="40"/>
     <rect width="40.0" height="40"/>
     <rect width="40.0" height="40"/>
     <rect width="40.0" height="40"/>
     <rect width="40.0" height="40"/>
     <rect width="40.0" height="40"/>
     <rect width="40.0" height="40"/>
     <rect width="40.0" height="40"/>
     <rect width="40.0" height="40"/>
     <rect width="40.0" height="40"/>
     <rect width="40.0" height="40"/>
     <rect width="40.0" height="40"/>
     <rect width="40.0" height="40"/>
     <rect width="40.0" height="40"/>
     <rect width="40.0" height="40"/>
     <rect width="40.0" height="40"/>
     <rect width="40.0" height="40"/>
     <rect width="40.0" height="40"/>
     <rect width="40.0" height="40"/>
     <rect width="40.0" height="40"/>
     <rect width="40.0" height="40"/>
     <rect width="40.0" height="40"/>
     <rect width="40.0" height="40"/>
     <rect width="40.0" height="40"/>
     <rect width="40.0" height="40"/>
     <rect width="40.0" height="40"/>
     <rect width="40.0" height="40"/>
     <rect width="40.0" height="40"/>
     <rect width="40.0" height="40"/>
     <rect width="40.0" height="40"/>
     <rect width="40.0" height="40"/>
     <rect width="40.0" height="40"/>
     <rect width="40.0" height="40"/>
     <rect width="40.0" height="40"/>
     <rect width="40.0" height="40"/>
     <rect width="40.0" height="40"/>
     <rect width="40.0" height="40"/>
     <rect width="40.0" height="40"/>
     <rect width="40.0" height="40"/>
     <rect width="40.0" height="40"/>
     <rect width="40.0" height="40"/>
     <rect width="40.0" height="40"/>
     <rect width="40.0" height="40"/>
     <rect width="40.0" height="40"/>
     <rect width="40.0" height="40"/>
     <rect width="40.0" height="40"/>
     <rect width="40.0" height="40"/>
     <rect width="40.0" height="40"/>
     <rect width="40.0" height="40"/>
     <rect width="40.0" height="40"/>
     <rect width="40.0" height="40"/>
     <rect width="40.0" height="40"/>
     <rect width="40.0" height="40"/>
     <rect width="40.0" height="40"/>
     <rect width="40.0" height="40"/>
     <rect width="40.0" height="40"/>
     <rect width="40.0" height="40"/>
     <rect width="40.0" height="40"/>
     <rect width="40.0" height="40"/>
     <rect width="40.0" height="40"/>
     <rect width="40.0" height="40"/>
     <rect width="40.0" height="40"/>
     <rect width="40.0" height="40"/>
     <rect width="40.0" height="40"/>
     <rect width="40.0" height="40"/>
     <text>0.0</text>
     <text>0.01</text>
     <text>0.02</text>
     <text>0.03</text>
     <text>0.04</text>
     <text>0.05</text>
     <text>0.06</text>
     <text>0.07</text>
     <text>0.08</text>
     <text>0.09</text>
     <text>0.1</text>
     <text>0.11</text>
     <text>0.12000000000000001</text>
     <text>0.13</text>
     <text>0.14</text>
     <text>0.15000000000000002</text>
     <text>0.16</text>
     <text>0.17</text>
     <text>0.18</text>
     <text>0.19</text>
     <text>0.2</text>
     <text>0.21000000000000002</text>
     <text>0.22</text>
     <text>0.23</text>
     <text>0.24000000000000002</text>
     <text>0.25</text>
     <text>0.26</text>
     <text>0.27</text>
     <text>0.28</text>
     <text>0.29000000000000004</text>
     <text>0.3</text>
     <text>0.31</text>
     <text>0.32</text>
     <text>0.32999999999999996</text>
     <text>0.33999999999999997</text>
     <text>0.35</text>
     <text>0.36</text>
     <text>0.37</text>
     <text>0.38</text>
     <text>0.39</text>
     <text>0.4</text>
     <text>0.41000000000000003</text>
     <text>0.42000000000000004</text>
     <text>0.43000000000000005</text>
     <text>0.44</text>
     <text>0.45</text>
     <text>0.46</text>
     <text>0.47000000000000003</text>
     <text>0.48000000000000004</text>
     <text>0.49</text>
     <text>0.5</text>
     <text>0.51</text>
     <text>0.52</text>
     <text>0.53</text>
     <text>0.54</text>
     <text>0.55</text>
     <text>0.56</text>
     <text>0.5700000000000001</text>
     <text>0.58</text>
     <text>0.59</text>
     <text>0.6</text>
     <text>0.61</text>
     <text>0.62</text>
     <text>0.63</text>
     <text>0.64</text>
     <text>0.65</text>
     <text>0.6599999999999999</text>
     <text>0.6699999999999999</text>
     <text>0.6799999999999999</text>
     <text>0.69</text>
     <text>0.7</text>
     <text>0.71</text>
     <text>0.72</text>
     <text>0.73</text>
     <text>0.74</text>
     <text>0.75</text>
     <text>0.76</text>
     <text>0.77</text>
     <text>0.7799999999999999</text>
     <text>0.7899999999999999</text>
     <text>0.8</text>
     <text>0.81</text>
     <text>0.8200000000000001</text>
     <text>0.8300000000000001</text>
     <text>0.8400000000000001</text>
     <text>0.8500000000000001</text>
     <text>0.8600000000000001</text>
     <text>0.8700000000000001</text>
     <text>0.88</text>
     <text>0.89</text>
     <text>0.9</text>
     <text>0.91</text>
     <text>0.92</text>
     <text>0.93</text>
     <text>0.9400000000000001</text>
     <text>0.9500000000000001</text>
     <text>0.96</text>
     <text>0.97</text>
     <text>0.98</text>
     <text>0.99</text>
</svg>
