<svg xmlns="http://www.w3.org/2000/svg" xmlns:xlink="http://www.w3.org/1999/xlink" fill="none" width="430" height="225">
     <g transform="translate(20,5)">
          <path d="M0.0,99.98251287463937L4.040404040404041,89.99665907173913L8.080808080808081,80.11058061915301L12.121212121212123,70.4230559448763L16.161616161616163,61.03087959318438L20.2020202020202,52.02789508554267L24.242424242424246,43.504057267160505L28.28282828282828,35.544533507913L32.323232323232325,28.22885273813378L36.36363636363637,21.63011082183195L40.4040404040404,15.814240206981111L44.44444444444445,10.839351150293652L48.48484848484849,6.755151098744307L52.52525252525253,3.6024480291910663L56.56565656565656,1.4127427085598754L60.60606060606061,0.2079139485941539L64.64646464646465,0.0L68.68686868686869,0.7910782702245172L72.72727272727273,2.5732445666874355L76.76767676767678,5.328692072860264L80.8080808080808,9.02988926809121L84.84848484848484,13.639855013458657L88.8888888888889,19.112528055086983L92.92929292929294,25.39322725296941L96.96969696969698,32.41919793684377L101.01010101010101,40.12023893011397L105.05050505050507,48.41940397680099L109.09090909090911,57.233770563097494L113.13131313131312,66.47526845171552L117.17171717171718,76.05155965058496L121.21212121212122,85.86696102354769L125.25252525252526,95.82340032462551L129.2929292929293,105.82139610348324L133.33333333333334,115.76105169119654L137.37373737373738,125.54305333474629L141.41414141414143,135.06966250720996L145.45454545454547,144.24569247881462L149.4949494949495,152.97945939127627L153.53535353535355,161.18369833260505L157.5757575757576,168.7764352592601L161.6161616161616,175.68180605369528L165.65656565656568,181.83081453354487L169.6969696969697,187.16202183867006L173.73737373737373,191.6221603079409L177.7777777777778,195.16666571209828L181.8181818181818,197.76012252480143L185.85858585858588,199.37661778286076L189.8989898989899,200.0L193.93939393939397,199.62404054716828L197.97979797979798,198.2524958869426L202.02020202020202,195.89907004019557L206.06060606060606,192.58727766004864L210.10101010101013,188.3502090812314L214.14141414141415,183.23019969239456L218.18181818181822,177.2784069349014L222.22222222222223,170.55429915458367L226.26262626262624,163.1250614136877L230.3030303030303,155.06492419994112L234.34343434343435,146.4544217400565L238.3838383838384,137.37958732835938L242.42424242424244,127.93109371054993L246.4646464646465,118.20334711160056L250.50505050505052,108.29354395996255L254.5454545454546,98.30069973298153L258.5858585858586,88.32465962697856L262.62626262626264,78.46510093705221L266.6666666666667,68.82053711449547L270.7070707070707,59.48733345295446L274.74747474747477,50.558744238268304L278.7878787878788,42.123980982470954L282.82828282828285,34.26732105185238L286.8686868686869,27.067265595372618L290.90909090909093,20.595755187131147L294.949494949495,14.91745101993007L298.989898989899,10.089088832010248L303.030303030303,6.158912022309124L307.0707070707071,3.1661896183653937L311.11111111111114,1.1408239131768596L315.1515151515152,0.1030516913727979L319.1919191919192,0.06324202995162409L323.2323232323232,1.0217926938909159L327.27272727272725,2.9691261618113174L331.31313131313135,5.885785321404285L335.3535353535354,9.742627878466436L339.3939393939394,14.501117537070286L343.4343434343434,20.11370904149453L347.47474747474746,26.524323232703182L351.51515151515156,33.668907372765034L355.5555555555556,41.476075138637896L359.5959595959596,49.867819890711814L363.6363636363636,58.76029408936611L367.67676767676767,68.06464707186899L371.71717171717177,77.6879128188296L375.75757575757575,87.53393883993279L379.7979797979798,97.5043468978392L383.83838383838383,107.49951597101311L387.87878787878793,117.41957763403904L391.919191919192,127.16541390991618L395.95959595959596,136.63964762412124L400.0,145.74761536514723" stroke="rgb(31,119,180)" stroke-width="5"/>
          <path d="M0.0,99.98251287463937L4.040404040404041,89.99665907173913L8.080808080808081,80.11058061915301L12.121212121212123,70.4230559448763L16.161616161616163,61.03087959318438L20.2020202020202,52.02789508554267L24.242424242424246,43.504057267160505L28.28282828282828,35.544533507913L32.323232323232325,28.22885273813378L36.36363636363637,21.63011082183195L40.4040404040404,15.814240206981111L44.44444444444445,10.839351150293652L48.48484848484849,6.755151098744307L52.52525252525253,3.6024480291910663L56.56565656565656,1.4127427085598754L60.60606060606061,0.2079139485941539L64.64646464646465,0.0L68.68686868686869,0.7910782702245172L72.72727272727273,2.5732445666874355L76.76767676767678,5.328692072860264L80.8080808080808,9.02988926809121L84.84848484848484,13.639855013458657L88.8888888888889,19.112528055086983L92.92929292929294,25.39322725296941L96.96969696969698,32.41919793684377L101.01010101010101,40.12023893011397L105.05050505050507,48.41940397680099L109.09090909090911,57.233770563097494L113.13131313131312,66.47526845171552L117.17171717171718,76.05155965058496L121.21212121212122,85.86696102354769L125.25252525252526,95.82340032462551L129.2929292929293,105.82139610348324L133.33333333333334,115.76105169119654L137.37373737373738,125.54305333474629L141.41414141414143,135.06966250720996L145.45454545454547,144.24569247881462L149.4949494949495,152.97945939127627L153.53535353535355,161.18369833260505L157.5757575757576,168.7764352592601L161.6161616161616,175.68180605369528L165.65656565656568,181.83081453354487L169.6969696969697,187.16202183867006L173.73737373737373,191.6221603079409L177.7777777777778,195.16666571209828L181.8181818181818,197.76012252480143L185.85858585858588,199.37661778286076L189.8989898989899,200.0L193.93939393939397,199.62404054716828L197.97979797979798,198.2524958869426L202.02020202020202,195.89907004019557L206.06060606060606,192.58727766004864L210.10101010101013,188.3502090812314L214.14141414141415,183.23019969239456L218.18181818181822,177.2784069349014L222.22222222222223,170.55429915458367L226.26262626262624,163.1250614136877L230.3030303030303,155.06492419994112L234.34343434343435,146.4544217400565L238.3838383838384,137.37958732835938L242.42424242424244,127.93109371054993L246.4646464646465,118.20334711160056L250.50505050505052,108.29354395996255L254.5454545454546,98.30069973298153L258.5858585858586,88.32465962697856L262.62626262626264,78.46510093705221L266.6666666666667,68.82053711449547L270.7070707070707,59.48733345295446L274.74747474747477,50.558744238268304L278.7878787878788,42.123980982470954L282.82828282828285,34.26732105185238L286.8686868686869,27.067265595372618L290.90909090909093,20.595755187131147L294.949494949495,14.91745101993007L298.989898989899,10.089088832010248L303.030303030303,6.158912022309124L307.0707070707071,3.1661896183653937L311.11111111111114,1.1408239131768596L315.1515151515152,0.1030516913727979L319.1919191919192,0.06324202995162409L323.2323232323232,1.0217926938909159L327.27272727272725,2.9691261618113174L331.31313131313135,5.885785321404285L335.3535353535354,9.742627878466436L339.3939393939394,14.501117537070286L343.4343434343434,20.11370904149453L347.47474747474746,26.524323232703182L351.51515151515156,33.668907372765034L355.5555555555556,41.476075138637896L359.5959595959596,49.867819890711814L363.6363636363636,58.76029408936611L367.67676767676767,68.06464707186899L371.71717171717177,77.6879128188296L375.75757575757575,87.53393883993279L379.7979797979798,97.5043468978392L383.83838383838383,107.49951597101311L387.87878787878793,117.41957763403904L391.919191919192,127.16541390991618L395.95959595959596,136.63964762412124L400.0,145.74761536514723" stroke="red" stroke-width="1"/>
     </g>
</svg>
