<svg xmlns="http://www.w3.org/2000/svg" xmlns:xlink="http://www.w3.org/1999/xlink" font-size="10px" font-family="sans-serif" width="450" height="645">
     <g transform="translate(20,5)">
          <g>
               <text y="3" dy=".71em" transform="translate(100,0)" fill="rgb(0,0,0)" text-anchor="middle">linear</text>
               <path d="M0,86.01536001878696L18.88888888888889,29.867841971562683L37.77777777777778,25.342093079410432L56.666666666666664,76.59906600221463L75.55555555555556,136.51333621839072L94.44444444444444,150L113.33333333333333,104.65948086316754L132.22222222222223,42.17764300378009L151.11111111111111,20L170,58.51657455206184" fill="none" stroke="rgb(31,119,180)" stroke-width="2"/>
          </g>
          <g transform="translate(210,0)">
               <text y="3" dy=".71em" transform="translate(100,0)" fill="rgb(0,0,0)" text-anchor="middle">step-before</text>
               <path d="M0,86.01536001878696V29.867841971562683H18.88888888888889V25.342093079410432H37.77777777777778V76.59906600221463H56.666666666666664V136.51333621839072H75.55555555555556V150H94.44444444444444V104.65948086316754H113.33333333333333V42.17764300378009H132.22222222222223V20H151.11111111111111V58.51657455206184H170" fill="none" stroke="rgb(31,119,180)" stroke-width="2"/>
          </g>
          <g transform="translate(0,160)">
               <text y="3" dy=".71em" transform="translate(100,0)" fill="rgb(0,0,0)" text-anchor="middle">step-after</text>
               <path d="M0,86.01536001878696H18.88888888888889V29.867841971562683H37.77777777777778V25.342093079410432H56.666666666666664V76.59906600221463H75.55555555555556V136.51333621839072H94.44444444444444V150H113.33333333333333V104.65948086316754H132.22222222222223V42.17764300378009H151.11111111111111V20H170V58.51657455206184" fill="none" stroke="rgb(31,119,180)" stroke-width="2"/>
          </g>
          <g transform="translate(210,160)">
               <text y="3" dy=".71em" transform="translate(100,0)" fill="rgb(0,0,0)" text-anchor="middle">polar</text>
               <path d="M0,86.01536001878696A29.619815606786645,29.619815606786645 0 0,1 18.88888888888889,29.867841971562683A9.71175224266465,9.71175224266465 0 0,1 37.77777777777778,25.342093079410432A27.313309011660746,27.313309011660746 0 0,1 56.666666666666664,76.59906600221463A31.41062678057283,31.41062678057283 0 0,1 75.55555555555556,136.51333621839072A11.604742817216605,11.604742817216605 0 0,1 94.44444444444444,150A24.558872119125606,24.558872119125606 0 0,1 113.33333333333333,104.65948086316754A32.637287669717495,32.637287669717495 0 0,1 132.22222222222223,42.17764300378009A14.565695766594073,14.565695766594073 0 0,1 151.11111111111111,20A21.44945592947131,21.44945592947131 0 0,1 170,58.51657455206184" fill="none" stroke="rgb(31,119,180)" stroke-width="2"/>
          </g>
          <g transform="translate(0,320)">
               <text y="3" dy=".71em" transform="translate(100,0)" fill="rgb(0,0,0)" text-anchor="middle">polar-reverse</text>
               <path d="M0,86.01536001878696A29.619815606786645,29.619815606786645 0 0,0 18.88888888888889,29.867841971562683A9.71175224266465,9.71175224266465 0 0,0 37.77777777777778,25.342093079410432A27.313309011660746,27.313309011660746 0 0,0 56.666666666666664,76.59906600221463A31.41062678057283,31.41062678057283 0 0,0 75.55555555555556,136.51333621839072A11.604742817216605,11.604742817216605 0 0,0 94.44444444444444,150A24.558872119125606,24.558872119125606 0 0,0 113.33333333333333,104.65948086316754A32.637287669717495,32.637287669717495 0 0,0 132.22222222222223,42.17764300378009A14.565695766594073,14.565695766594073 0 0,0 151.11111111111111,20A21.44945592947131,21.44945592947131 0 0,0 170,58.51657455206184" fill="none" stroke="rgb(31,119,180)" stroke-width="2"/>
          </g>
          <g transform="translate(210,320)">
               <text y="3" dy=".71em" transform="translate(100,0)" fill="rgb(0,0,0)" text-anchor="middle">basis</text>
               <path d="M0,86.01536001878696C0.0,86.01536001878696,0.0,86.01536001878696,3.148148148148148,76.65744034424958C6.296296296296296,67.29952066971221,12.592592592592592,48.58368132063744,18.888888888888886,38.47147016407468C25.185185185185183,28.35925900751193,31.48148148148148,26.850676043461178,37.77777777777777,34.63921338190317C44.07407407407407,42.42775072034516,50.37037037037037,59.513408361279886,56.66666666666666,78.04194888444327C62.962962962962955,96.57048940760666,69.25925925925925,116.54191281299867,75.55555555555554,128.77540181262958C81.85185185185185,141.00889081226046,88.14814814814815,145.50444540613023,94.44444444444444,140.19546951359303C100.74074074074073,134.88649362105585,107.03703703703702,119.7729872421117,113.33333333333331,101.80259440940839C119.62962962962962,83.83220157670506,125.92592592592592,63.004922290242575,132.22222222222223,48.89500881304799C138.51851851851853,34.78509533585339,144.8148148148148,27.392547667926696,151.11111111111111,30.115702925973654C157.4074074074074,32.83885818402061,163.7037037037037,45.677716368041224,166.85185185185185,52.097145460051536C170.0,58.51657455206184,170.0,58.51657455206184,170.0,58.51657455206184" fill="none" stroke="rgb(31,119,180)" stroke-width="2"/>
          </g>
          <g transform="translate(0,480)">
               <text y="3" dy=".71em" transform="translate(100,0)" fill="rgb(0,0,0)" text-anchor="middle">cardinal</text>
               <path d="M0,86.01536001878696Q15.11111111111111,35.935168665500335,18.88888888888889,29.867841971562683C24.555555555555557,20.766851930656202,32.111111111111114,18.33240947481264,37.77777777777778,25.342093079410432S51.0,59.92337953136759,56.666666666666664,76.59906600221463S69.88888888888889,125.50319611872291,75.55555555555556,136.51333621839072S88.77777777777777,154.77807830328348,94.44444444444444,150.0S107.66666666666666,120.83283441260053,113.33333333333333,104.65948086316754S126.55555555555556,54.87656513325523,132.22222222222223,42.17764300378009S148.27777777777777,17.54916026775774,151.11111111111111,20.0Q153.0,21.633893154828176,170.0,58.51657455206184" fill="none" stroke="rgb(31,119,180)" stroke-width="2"/>
          </g>
     </g>
</svg>
